<?xml version="1.0" standalone="no"?>
<!DOCTYPE svg PUBLIC "-//W3C//DTD SVG 1.1//EN" "http://www.w3.org/Graphics/SVG/1.1/DTD/svg11.dtd" >
<svg>
<metadata>
Created by FontForge 20090914 at Sat May 29 12:07:58 2021
 By www-data
Copyright (c) 2011, Sorkin Type Co. (www.sorkintype.com)with Reserved Font Name "Hammersmith".This Font Software is licensed under the SIL Open Font License,Version 1.1. This license is available with a FAQ at:http://scripts.sil.org/OFL
</metadata>
<defs>
<font id="HammersmithOne-Regular" horiz-adv-x="1193" >
  <font-face 
    font-family="Hammersmith One"
    font-weight="400"
    font-stretch="normal"
    units-per-em="2048"
    panose-1="2 1 7 3 3 5 1 6 5 4"
    ascent="1638"
    descent="-410"
    x-height="1045"
    cap-height="1338"
    bbox="-145 -716.001 3056 1843"
    underline-thickness="50"
    underline-position="-50"
    unicode-range="U+0001-U+FB02"
  />
<missing-glyph horiz-adv-x="0" 
 />
    <glyph glyph-name=".notdef" horiz-adv-x="0" 
 />
    <glyph glyph-name="uni0001" horiz-adv-x="0" 
 />
    <glyph glyph-name="uni0002" horiz-adv-x="0" 
 />
    <glyph glyph-name="uni0003" horiz-adv-x="0" 
 />
    <glyph glyph-name="uni0004" horiz-adv-x="0" 
 />
    <glyph glyph-name="uni0005" horiz-adv-x="0" 
 />
    <glyph glyph-name="uni0006" horiz-adv-x="0" 
 />
    <glyph glyph-name="uni0007" horiz-adv-x="0" 
 />
    <glyph glyph-name="uni0008" horiz-adv-x="0" 
 />
    <glyph glyph-name="uni0009" unicode="&#x9;" horiz-adv-x="0" 
 />
    <glyph glyph-name="uni0010" horiz-adv-x="0" 
 />
    <glyph glyph-name="uni0011" horiz-adv-x="0" 
 />
    <glyph glyph-name="uni0012" horiz-adv-x="0" 
 />
    <glyph glyph-name="uni0013" horiz-adv-x="0" 
 />
    <glyph glyph-name="uni0014" horiz-adv-x="0" 
 />
    <glyph glyph-name="uni0015" horiz-adv-x="0" 
 />
    <glyph glyph-name="uni0016" horiz-adv-x="0" 
 />
    <glyph glyph-name="uni0017" horiz-adv-x="0" 
 />
    <glyph glyph-name="uni0018" horiz-adv-x="0" 
 />
    <glyph glyph-name="uni0019" horiz-adv-x="0" 
 />
    <glyph glyph-name="space" unicode=" " horiz-adv-x="679" 
 />
    <glyph glyph-name="exclam" unicode="!" horiz-adv-x="684" 
d="M468 374c-34 4 -92.332 6 -174.999 6h-80l-2 978l91 -4h22c77.333 0 126.666 2.66699 147.999 8zM474.001 240c-2.66699 -33.333 -4 -75.832 -4 -127.499s1.33301 -89.167 4 -112.5h-265c5.33301 41.333 8 82.166 8 122.499s-2 79.5 -6 117.5h263z" />
    <glyph glyph-name="quotedbl" unicode="&#x22;" horiz-adv-x="1026" 
d="M203 1110c-4.66699 153.333 -10 260 -16 320h251c-8 -74 -13.667 -181 -17 -321l-3 -132h-211zM604 1110c-4.66699 153.333 -10 260 -16 320h251c-8 -74 -13.667 -181 -17 -321l-3 -132h-211z" />
    <glyph glyph-name="numbersign" unicode="#" horiz-adv-x="1535" 
d="M1253 491c-32 3.33301 -73.333 5 -124 5h-94l-44 -319h-226l44 319h-184l-44 -319h-226l44 319h-41c-50.667 0 -92 -1.66699 -124 -5l3 207c15.333 -4 59.333 -6 132 -6h58l28 201h-70c-50.667 0 -92 -1.66699 -124 -5l3 207c14.667 -4 58.667 -6 132 -6h86l45 321h226
l-45 -321h184l45 321h226l-45 -321h47c72.667 0 116.667 2 132 6l3 -207c-32 3.33301 -73.333 5 -124 5h-85l-28 -201h55c73.333 0 117.333 2 132 6zM837 692l28 201h-184l-28 -201h184z" />
    <glyph glyph-name="dollar" unicode="$" 
d="M412 -195c6 22.667 8.99707 67.668 8.99707 135.001v47c-61.333 10.667 -116.666 27.167 -165.999 49.5s-86.333 46.833 -111 73.5l29 252l7 6c25.333 -38 75.333 -72.667 150 -104c78 -32.667 155.333 -49 232 -49c103.333 0 174 31.333 212 94
c11.333 18.667 17 37.667 17 57s-3.5 36.333 -10.5 51s-19.167 29 -36.5 43c-33.333 26.667 -89.166 55.5 -167.499 86.5s-141 60.833 -188 89.5s-84.5 59 -112.5 91c-52 58.667 -78 133 -78 223c0 80 29 155.333 87 226c60.667 74 139.334 125.667 236.001 155v80
c0 67.333 -3 112.333 -9 135h269c-2.66699 -38.667 -4 -80 -4 -124v-74c68 -10 133.667 -31.333 197 -64l-31 -247l-7 -2c-99.333 54 -191 81 -275 81c-60 0 -110.667 -14.667 -152 -44c-36.667 -26.667 -55 -58.334 -55 -95.001c0 -32.667 12.667 -59.667 38 -81
c46.667 -38.667 108.167 -70.5 184.5 -95.5s137.5 -50.667 183.5 -77s83 -54.833 111 -85.5c52 -58 78 -131.333 78 -220c0 -95.333 -30.333 -182 -91 -260c-69.333 -90 -163 -146.667 -281 -170v-59c2.66699 -80.667 4 -122 4 -124h-269z" />
    <glyph glyph-name="percent" unicode="%" horiz-adv-x="2214" 
d="M551 612c-60 0 -114.333 9.00098 -163 27.001s-90.667 43 -126 75c-76 70 -114 157.667 -114 263c0 100 34.333 185.667 103 257c78 80.667 183.333 121 316 121c121.333 0 219.333 -37.667 294 -113c69.333 -70.667 104 -156.334 104 -257.001
c0 -102.667 -38.333 -189.667 -115 -261c-79.333 -74.667 -179 -112 -299 -112zM1346 1330h245l-750 -1330h-245zM562 816.001c31.333 0 59 4.66602 83 13.999s44.333 22 61 38c35.333 32 53 72 53 120c0 44.667 -17.667 83.334 -53 116.001c-37.333 35.333 -87 53 -149 53
c-60.667 0 -109.667 -17.333 -147 -52c-34 -32 -51 -72 -51 -120c0 -46.667 17.667 -85.667 53 -117c38 -34.667 88 -52 150 -52zM1249 334c0 49.333 8.5 96.501 25.5 141.501s42.833 85.5 77.5 121.5c78 80.667 183.333 121 316 121c121.333 0 219.333 -38 294 -114
c69.333 -70 104 -155.333 104 -256c0 -102.667 -38 -189.667 -114 -261c-80 -74.667 -182 -112 -306 -112c-114 0 -208.333 34.333 -283 103c-76 69.333 -114 154.666 -114 255.999zM1461 348.001c0 -22.667 4.5 -44.1689 13.5 -64.502s22.167 -38.166 39.5 -53.499
c38 -34.667 88.667 -52 152 -52c58 0 105.333 17.333 142 52c35.333 32 53 72 53 120c0 44.667 -17.667 83.334 -53 116.001c-37.333 35.333 -87 53 -149 53c-60.667 0 -109.667 -17.333 -147 -52c-34 -32 -51 -71.667 -51 -119z" />
    <glyph glyph-name="ampersand" unicode="&#x26;" horiz-adv-x="1364" 
d="M988 118c-110 -95.333 -242.997 -142.999 -398.997 -142.999c-153.333 0 -280 45.667 -380 137c-98 88.667 -147 198.667 -147 330c0 118.667 51.333 217.334 154 296.001c30.667 24 63.667 44 99 60c-38 64 -57 126.667 -57 188s10 113.666 30 156.999
s47.667 80.666 83 111.999c75.333 66.667 172 100 290 100c84 0 161 -20 231 -60c-3.33301 -56.667 -5 -100.334 -5 -131.001c0 -42 0.5 -68.333 1.5 -79s1.33301 -18.167 1 -22.5s-0.833008 -7.83301 -1.5 -10.5c-2.66699 -4 -3.33398 -8.66699 -2.00098 -14l-5 -7
c-26.667 40 -78.334 68.667 -155.001 86c-23.333 5.33301 -53.333 8 -90 8s-66.834 -11 -90.501 -33s-35.5 -49.667 -35.5 -83c0 -57.333 40.667 -130.333 122 -219c25.333 -28 56 -59.667 92 -95l235 -215c21.333 58 32 119 32 183c0 39.333 -10 72 -30 98
c-4.66699 6 -8.33398 10 -11.001 12v12l145 -58c28 -11.333 50.667 -20 68 -26s30.333 -11 39 -15c15.333 -6.66699 23 -14 23 -22c0 -120 -27 -234 -81 -342c68 -56 111.667 -87.667 131 -95s34 -11.666 44 -12.999c32 -4 50.667 -2.66699 56 4l5 -6l-103 -225
c-11.333 -8 -30.666 -12 -57.999 -12c-42 0 -119 47.667 -231 143zM595.503 215.001c77.667 0 147.5 21.333 209.5 64l-108 99c-115.333 104.667 -207 196 -275 274c-72.667 -52.667 -109 -114.667 -109 -186s27.667 -131 83 -179s121.833 -72 199.5 -72z" />
    <glyph glyph-name="quotesingle" unicode="'" horiz-adv-x="684" 
d="M232 1110c-4.66699 153.333 -10 260 -16 320h251c-8 -74 -13.667 -181 -17 -321l-3 -132h-211z" />
    <glyph glyph-name="parenleft" unicode="(" horiz-adv-x="929" 
d="M500 -100c-212 182.667 -318 442.667 -318 780c0 224.667 60 423.334 180 596.001c39.333 57.333 85.333 108.666 138 153.999h256v-6c-166 -150.667 -266.667 -326.667 -302 -528c-12 -68 -18 -141.667 -18 -221c0 -290 103.333 -546.333 310 -769v-6h-246z" />
    <glyph glyph-name="parenright" unicode=")" horiz-adv-x="929" 
d="M427 -100c212 182.667 318 442.667 318 780c0 224.667 -60 423.334 -180 596.001c-39.333 57.333 -85.333 108.666 -138 153.999h-256v-6c166 -150.667 266.667 -326.667 302 -528c12 -68 18 -141.667 18 -221c0 -290 -103.333 -546.333 -310 -769v-6h246z" />
    <glyph glyph-name="asterisk" unicode="*" 
d="M483 759l32 281.999l-258 -199l-128 191l289 133l-288 170l157 180l225 -217l-40 306h244l-42 -318l228 201l151 -181l-303 -146l313 -150l-134 -186l-254 206l37 -307h-233c0 0.666992 1.33301 12.334 4 35.001z" />
    <glyph glyph-name="plus" unicode="+" horiz-adv-x="1364" 
d="M351 500c-50.667 0 -92 -1.66699 -124 -5l3 247c14.667 -4 58.667 -6 132 -6h202v192c0 73.333 -2 117.333 -6 132l247 3c-3.33301 -32 -5 -73.333 -5 -124v-203h201c72.667 0 116.667 2 132 6l3 -247c-32 3.33301 -73.333 5 -124 5h-212v-222
c0 -50.667 1.66699 -92 5 -124l-247 3c4 15.333 6 59.333 6 132v211h-213z" />
    <glyph glyph-name="comma" unicode="," horiz-adv-x="510" 
d="M158 66.5c0 49 -3.66797 100.169 -11.001 153.502l249 40l8 -51c5.33301 -37.333 8 -75.833 8 -115.5s-2 -76.334 -6 -110.001s-9.33301 -64.834 -16 -93.501c-15.333 -62.667 -32.666 -100 -51.999 -112c-32.667 -20.667 -111 -44 -235 -70l-6 6
c22.667 40 38.5 96.5 47.5 169.5s13.5 134 13.5 183z" />
    <glyph glyph-name="hyphen" unicode="-" horiz-adv-x="1016" 
d="M302 500c-50.667 0 -92 -1.66699 -124 -5l3 247c15.333 -4 59.333 -6 132 -6h389c73.333 0 117.333 2 132 6l3 -247c-32 3.33301 -73.333 5 -124 5h-411z" />
    <glyph glyph-name="period" unicode="." horiz-adv-x="510" 
d="M109 0c6 40.667 9.00098 76.667 9.00098 108s-0.166992 52.833 -0.5 64.5s-0.833008 23.167 -1.5 34.5s-1.33398 22 -2.00098 32l-3 25h290c-2 -25.333 -3 -46 -3 -62l-2 -42v-71.5c0 -35 1.66699 -64.5 5 -88.5h-292z" />
    <glyph glyph-name="slash" unicode="/" horiz-adv-x="855" 
d="M599 1530h256l-599 -1700h-256z" />
    <glyph glyph-name="zero" unicode="0" horiz-adv-x="1364" 
d="M106 646c0 100.667 14.833 194.668 44.5 282.001s71.167 162.666 124.5 225.999c114 134 258.333 201 433 201c167.333 0 301.333 -63 402 -189c98 -122.667 147 -285 147 -487c0 -228 -59.333 -405.667 -178 -533c-106 -114 -242 -171 -408 -171
c-160.667 0 -294.667 62 -402 186c-108.667 126 -163 287.667 -163 485zM561 241.501c40.667 -21 82.168 -31.5 124.501 -31.5s81.833 9.33301 118.5 28s69.667 46.667 99 84c66 85.333 99 197 99 335c0 141.333 -28 254.333 -84 339
c-56.667 83.333 -133.334 125 -230.001 125c-97.333 0 -176 -43.333 -236 -130c-60.667 -87.333 -91 -200.333 -91 -339c0 -132.667 31.667 -240 95 -322c29.333 -38 64.333 -67.5 105 -88.5z" />
    <glyph glyph-name="one" unicode="1" horiz-adv-x="689" 
d="M217 1330h255v-1330h-255v1330z" />
    <glyph glyph-name="two" unicode="2" 
d="M553 600c98.667 125.333 155.334 224.331 170.001 296.998c4.66699 22.667 7 44.334 7 65.001c0 48.667 -18.333 87.667 -55 117s-89.334 44 -158.001 44c-64.667 0 -131.667 -17 -201 -51c-63.333 -31.333 -108.333 -67 -135 -107l-13 -2l8 300
c58.667 38 140.667 65.667 246 83c32.667 6 64 9 94 9c168 0 293.333 -40.333 376 -121c70.667 -67.333 106 -157.333 106 -270c0 -77.333 -24 -160.666 -72 -249.999c-41.333 -74.667 -95.666 -155.334 -162.999 -242.001l-196 -242h324c44 0 78.5 1.83301 103.5 5.5
s46.167 12.167 63.5 25.5l7 -3l-73 -273l-109 6c-188.667 10.667 -455.334 11.334 -800.001 2.00098z" />
    <glyph glyph-name="three" unicode="3" 
d="M872 778c160.667 -68 240.998 -183.332 240.998 -345.999c0 -129.333 -53 -236.666 -159 -321.999c-111.333 -90 -258.666 -135 -441.999 -135c-176.667 0 -318.667 41 -426 123l-4 267l10 12c80 -108.667 219.333 -163 418 -163c232 0 348 77 348 231
c0 55.333 -34 98.666 -102 129.999c-61.333 28 -132.666 42 -213.999 42c-112 0 -198 -19 -258 -57l-6 7l10 236c80.667 22 165.334 33 254.001 33h52c18.667 0 37 -0.666992 55 -2c42.667 25.333 70.334 63.333 83.001 114c4 14 6 28.167 6 42.5s-4.33301 29 -13 44
s-21.667 28.167 -39 39.5c-38 26 -80.833 39 -128.5 39s-87.834 -2.66699 -120.501 -8s-64.334 -13 -95.001 -23c-66 -22 -115.333 -49.333 -148 -82l-5 5l-12 256c107.333 62.667 237.666 94 390.999 94c120.667 0 221.334 -27.667 302.001 -83
c86.667 -60 130 -140 130 -240c0 -54.667 -12 -103.834 -36 -147.501s-54.667 -79.167 -92 -106.5zM555.998 809.001c16.667 0 30.667 1.33301 42 4z" />
    <glyph glyph-name="four" unicode="4" 
d="M922 563c101.333 0 185.333 8.66699 252 26l5 -7l-73 -232h-184v-350h-255v350h-616l-4 74l553 904l322 2v-767zM667 563v474l-273 -474h273z" />
    <glyph glyph-name="five" unicode="5" horiz-adv-x="1364" 
d="M483 875c66 14 138.666 21.001 217.999 21.001s152.5 -11 219.5 -33s122.833 -51.667 167.5 -89c90.667 -74.667 136 -170.667 136 -288c0 -149.333 -55.333 -272 -166 -368c-111.333 -95.333 -251.666 -143 -420.999 -143c-190 0 -340.333 46 -451 138l-11 283l10 7
c94.667 -130 246.667 -195 456 -195c94.667 0 170.334 22 227.001 66s85 100 85 168c0 111.333 -57.667 186 -173 224c-38.667 12.667 -79.334 19 -122.001 19s-82.5 -1.83301 -119.5 -5.5s-73.167 -8.83398 -108.5 -15.501c-73.333 -14 -134 -34 -182 -60v726h627
c128 0 203.667 10.667 227 32l4 -3l-24 -244c-29.333 -14 -97 -21 -203 -21h-396v-219z" />
    <glyph glyph-name="six" unicode="6" horiz-adv-x="1364" 
d="M155 358c-24 76 -36.0029 151.333 -36.0029 226s6 143 18 205s30.333 121 55 177s56 107.667 94 155s82.667 88.333 134 123c110.667 74 243.334 111 398.001 111c116.667 0 217 -19.667 301 -59l9 -246l-4 -6c-73.333 54 -181.333 81 -324 81
c-107.333 0 -200 -36.333 -278 -109c-74.667 -70 -123.667 -159.333 -147 -268c82.667 82.667 187 136 313 160c37.333 6.66699 81.333 10 132 10s104.334 -10 161.001 -30s105 -48.667 145 -86c85.333 -80 128 -186 128 -318c0 -146.667 -55.333 -268.667 -166 -366
c-107.333 -95.333 -238.666 -143 -393.999 -143c-183.333 0 -327 61.333 -431 184c-48 56.667 -84 123 -108 199zM383.997 444c22 -74 58.333 -132.167 109 -174.5s115 -63.5 193 -63.5c89.333 0 163 24 221 72c60.667 49.333 91 115.333 91 198c0 62 -20 113 -60 153
c-43.333 43.333 -102 65 -176 65c-94 0 -176 -24.667 -246 -74c-66 -47.333 -110 -106 -132 -176z" />
    <glyph glyph-name="seven" unicode="7" horiz-adv-x="1031" 
d="M582 128c0 -45.333 2.33203 -88 6.99902 -128h-304c0 98.667 34.333 258 103 478c80.667 261.333 175.334 470.333 284.001 627l-492 -8c-72.667 0 -118.667 -8.33301 -138 -25l-7 5l-8 260l520 -3h164.5c49 0 92.5 0.333008 130.5 1c86.667 1.33301 155 3.33301 205 6
l-172 -350c-195.333 -396 -293 -683.667 -293 -863z" />
    <glyph glyph-name="eight" unicode="8" horiz-adv-x="1364" 
d="M1036 710c76.667 -26.667 135.334 -69.999 176.001 -129.999c37.333 -53.333 56 -113.5 56 -180.5s-13.333 -126.833 -40 -179.5s-64.667 -97.334 -114 -134.001c-100.667 -76 -240.334 -114 -419.001 -114c-161.333 0 -299 35 -413 105
c-124.667 76.667 -187 184.334 -187 323.001c0 97.333 41.667 183.666 125 258.999c26 24 55.667 44.333 89 61c-82 65.333 -123 150 -123 254c0 109.333 43 199.333 129 270c92 75.333 218.333 113 379 113c156.667 0 281.667 -39.667 375 -119
c84.667 -71.333 127 -161.5 127 -270.5s-53.333 -194.833 -160 -257.5zM458 1036c-11.333 -18 -17.001 -37.5 -17.001 -58.5s6.5 -41.5 19.5 -61.5s33.5 -39 61.5 -57c60.667 -38 153.334 -66.667 278.001 -86c63.333 32 106.333 77.667 129 137c28.667 76 11 134 -53 174
c-45.333 28.667 -110.333 43 -195 43c-112 0 -186.333 -30.333 -223 -91zM484.999 604.001c-82.667 -48 -123.999 -107.667 -123.999 -179c0 -146 115 -220.333 345 -223c147.333 -2 239.666 28.667 276.999 92c13.333 22.667 20 48.167 20 76.5s-6 50.833 -18 67.5
s-30 31.334 -54 44.001c-38 19.333 -90.333 35.5 -157 48.5s-111.667 22.167 -135 27.5s-44.333 10.666 -63 15.999c-34 8.66699 -64.333 18.667 -91 30z" />
    <glyph glyph-name="nine" unicode="9" horiz-adv-x="1364" 
d="M244 286c73.333 -54 181.334 -81.001 324.001 -81.001c103.333 0 192.666 33.333 267.999 100c72.667 64.667 121.334 148 146.001 250c-76.667 -71.333 -178.334 -116.333 -305.001 -135c-36 -5.33301 -79.167 -8 -129.5 -8s-103.833 10 -160.5 30s-105 48.667 -145 86
c-85.333 80 -128 186 -128 318c0 146.667 55.333 268.667 166 366c107.333 95.333 238.666 143 393.999 143c183.333 0 327 -61.333 431 -184c96 -113.333 144 -260.666 144 -441.999c0 -208 -55.667 -381.333 -167 -520c-125.333 -156 -302.666 -234 -531.999 -234
c-116.667 0 -217 19.667 -301 59l-9 246zM614.001 635.999c44.667 0 87.835 5.99902 129.502 17.999s78.5 28 110.5 48c65.333 42 107.666 96.333 126.999 163c-31.333 124 -95 204.333 -191 241c-32 12 -68.833 18 -110.5 18s-81.5 -6.16699 -119.5 -18.5
s-71 -30.166 -99 -53.499c-60.667 -49.333 -91 -115.333 -91 -198c0 -62 20 -113 60 -153c43.333 -43.333 104.666 -65 183.999 -65z" />
    <glyph glyph-name="colon" unicode=":" horiz-adv-x="510" 
d="M396 770l0.000976562 -71.5c0 -35 1.66699 -64.5 5 -88.5h-292c6 40.667 9 76.667 9 108s-0.166992 52.833 -0.5 64.5s-0.833008 23.167 -1.5 34.5s-1.33398 22 -2.00098 32l-3 25h290c-2 -25.333 -3 -46 -3 -62zM396.001 160l0.000976562 -71.5
c0 -35 1.66699 -64.5 5 -88.5h-292c6 40.667 9 76.667 9 108s-0.166992 52.833 -0.5 64.5s-0.833008 23.167 -1.5 34.5s-1.33398 22 -2.00098 32l-3 25h290c-2 -25.333 -3 -46 -3 -62z" />
    <glyph glyph-name="semicolon" unicode=";" horiz-adv-x="518" 
d="M402 690c-2.66699 -33.333 -4 -75.832 -4 -127.499s1.33301 -89.167 4 -112.5h-265c5.33301 41.333 8 82.166 8 122.499s-2 79.5 -6 117.5h263zM162 66.501c0 49 -3.66797 100.169 -11.001 153.502l249 40l8 -51c5.33301 -37.333 8 -75.833 8 -115.5
s-2 -76.334 -6 -110.001s-9.33301 -64.834 -16 -93.501c-15.333 -62.667 -32.666 -100 -51.999 -112c-32.667 -20.667 -111 -44 -235 -70l-6 6c22.667 40 38.5 96.5 47.5 169.5s13.5 134 13.5 183z" />
    <glyph glyph-name="less" unicode="&#x3c;" horiz-adv-x="1364" 
d="M344 648l675 417v-281l-440 -248l440 -271v-280l-675 449v214z" />
    <glyph glyph-name="equal" unicode="=" horiz-adv-x="1364" 
d="M351 720c-50.667 0 -92 -1.66699 -124 -5l3 247c14.667 -4 58.667 -6 132 -6h639c72.667 0 116.667 2 132 6l3 -247c-32 3.33301 -73.333 5 -124 5h-661zM351 300c-50.667 0 -92 -1.66699 -124 -5l3 247c14.667 -4 58.667 -6 132 -6h639c72.667 0 116.667 2 132 6l3 -247
c-32 3.33301 -73.333 5 -124 5h-661z" />
    <glyph glyph-name="greater" unicode="&#x3e;" horiz-adv-x="1359" 
d="M342 265l439 271l-439 248v281l675 -417v-214l-675 -449v280z" />
    <glyph glyph-name="question" unicode="?" horiz-adv-x="1026" 
d="M610 456c-58 -43.333 -120.666 -80.998 -187.999 -112.998c-83.333 32 -125 91.333 -125 178c0 37.333 9.66699 71.666 29 102.999c38.667 60 95 121 169 183c54 45.333 88.333 78.666 103 99.999c22 32 33 61.667 33 89s-5.66699 50.5 -17 69.5s-27 35.167 -47 48.5
c-40.667 27.333 -92 41 -154 41c-81.333 0 -154.333 -27.667 -219 -83c-22 -18.667 -40 -41.334 -54 -68.001l-7 -2c2 29.333 -1 59 -9 89l-42 150c94.667 89.333 217 134 367 134c127.333 0 233.666 -36.333 318.999 -109c80 -69.333 120 -152.333 120 -249
c0 -48 -10 -89.333 -30 -124c-32.667 -57.333 -75.334 -109.166 -128.001 -155.499s-89 -79.833 -109 -100.5s-35 -38 -45 -52c-15.333 -21.333 -23 -41.666 -23 -60.999s5.83301 -34.833 17.5 -46.5s24.834 -18.834 39.501 -21.501zM588.001 240.002
c-2.66699 -33.333 -4 -75.832 -4 -127.499s1.33301 -89.167 4 -112.5h-265c5.33301 41.333 8 82.166 8 122.499s-2 79.5 -6 117.5h263z" />
    <glyph glyph-name="at" unicode="@" horiz-adv-x="2385" 
d="M1021 840c66.667 23.333 136.167 35.0029 208.5 35.0029s140.5 -13 204.5 -39l2 19h253l-43 -455c-2.66699 -22.667 -4 -49.334 -4 -80.001c0 -70 37.333 -105 112 -105c89.333 0 153.333 49.333 192 148c20 51.333 30 116.166 30 194.499s-16.167 153.666 -48.5 225.999
s-79.166 134.833 -140.499 187.5c-131.333 112.667 -305.333 169 -522 169c-248.667 0 -451 -72.333 -607 -217c-167.333 -154 -251 -344 -251 -570c0 -184 66.333 -333 199 -447c139.333 -119.333 329.666 -179 570.999 -179c139.333 0 274.333 17 405 51
c122 30.667 203.667 65.334 245 104.001l6 -3l-95 -240c-166.667 -84 -363.334 -126 -590.001 -126c-308.667 0 -551.667 70.333 -729 211c-179.333 143.333 -269 343 -269 599c0 24.667 2.83301 68.334 8.5 131.001s23.834 132.5 54.501 209.5s71 149.5 121 217.5
s108.5 130.667 175.5 188s140.5 107 220.5 149c169.333 87.333 350.666 131 543.999 131c202.667 0 380.334 -36.333 533.001 -109c138 -66 245 -158.667 321 -278c71.333 -112.667 107 -236.334 107 -371.001c0 -110.667 -18.833 -205 -56.5 -283
s-79.834 -139.667 -126.5 -185c-96 -92 -204 -138 -324 -138s-210.667 33.667 -272 101c-101.333 -67.333 -212.333 -101 -333 -101c-142 0 -255 40.667 -339 122c-78.667 76 -118 170.667 -118 284c0 75.333 17.333 143 52 203s77.167 110.167 127.5 150.5
s108.833 72.166 175.5 95.499zM1411 598.003c-50 31.333 -114.669 46.999 -194.002 46.999c-80.667 0 -147.667 -20.333 -201 -61c-51.333 -38.667 -79.666 -88.667 -84.999 -150c-10.667 -98.667 32.333 -164.667 129 -198c32.667 -10.667 79 -16 139 -16
s121.667 18.667 185 56c-1.33301 18.667 -0.666016 37.334 2.00098 56.001z" />
    <glyph glyph-name="A" unicode="A" horiz-adv-x="1197" 
d="M269 -8c-57.333 5.33301 -124.333 8.00195 -201 8.00195h-79l435 1219c19.333 54.667 29 86.5 29 95.5s-0.333008 14.5 -1 16.5l1 2c43.333 -2 89.333 -3 138 -3c40 0 88 0.666992 144 2l1 -2c-1.33301 -2.66699 -2 -6.33398 -2 -11.001
c0 -12.667 10 -46.334 30 -101.001l444 -1221c-13.333 0.666992 -29 1 -47 1l-52 2h-45h-155l-94 288h-452zM737 528.002l-151 465l-147 -465h298z" />
    <glyph glyph-name="B" unicode="B" horiz-adv-x="1197" 
d="M822 7c-78 -21.333 -173.833 -32.001 -287.5 -32.001s-234.5 10.333 -362.5 31v1318c129.333 20.667 241.5 31 336.5 31s173 -9 234 -27s110.833 -42.333 149.5 -73c76 -59.333 114 -136.166 114 -230.499s-34.333 -172.5 -103 -234.5
c81.333 -25.333 144.333 -73.333 189 -144c40.667 -63.333 61 -133.5 61 -210.5s-11.167 -142.833 -33.5 -197.5s-58 -101.5 -107 -140.5s-112.5 -69.167 -190.5 -90.5zM437 826.999c28 -4.66699 63 -7 105 -7s76.5 5.5 103.5 16.5s47.833 24.833 62.5 41.5
c24 27.333 36 65.333 36 114c0 102 -60 153 -180 153c-50.667 0 -93 -2 -127 -6v-312zM585 612.999c-56 0 -105.333 -3.66602 -148 -10.999v-393c46.667 -12 95.667 -18 147 -18s96.5 6.16699 135.5 18.5s71.833 29.166 98.5 50.499c54 44 81 100 81 168
c0 123.333 -104.667 185 -314 185z" />
    <glyph glyph-name="C" unicode="C" horiz-adv-x="1188" 
d="M768 1355c124.667 0 230.998 -21.665 318.998 -64.998v-306l-2 -2c-37.333 57.333 -116 95.333 -236 114c-35.333 6 -80 9 -134 9s-107 -10.167 -159 -30.5s-94.667 -49.166 -128 -86.499c-64.667 -72.667 -97 -176.334 -97 -311.001
c0 -156.667 41 -273.334 123 -350.001c68 -64 158 -96 270 -96c126.667 0 229.334 27 308.001 81c28.667 19.333 53 43.333 73 72l3 -2v-280c-102 -84.667 -239.333 -127 -412 -127c-203.333 0 -362.666 64.667 -477.999 194c-110.667 123.333 -166 286.666 -166 489.999
c0 215.333 60.667 385 182 509c122.667 124.667 300.667 187 534 187z" />
    <glyph glyph-name="D" unicode="D" horiz-adv-x="1364" 
d="M496 -25c-108 0 -209.665 8.66797 -304.998 26.001v1338c88 10.667 190.167 16 306.5 16s221.666 -15.833 315.999 -47.5s173.166 -76.834 236.499 -135.501c128 -117.333 192 -281.666 192 -492.999c0 -236.667 -71.333 -416.334 -214 -539.001
c-128 -110 -305.333 -165 -532 -165zM451.002 219.001c43.333 -8 86.666 -12.001 129.999 -12.001s90 8.5 140 25.5s93.333 43.5 130 79.5c78.667 76 118 186.667 118 332c0 238.667 -87 385.334 -261 440.001c-57.333 18 -123.666 27 -198.999 27h-27
c-10 0 -20.333 -0.333008 -31 -1v-891z" />
    <glyph glyph-name="E" unicode="E" horiz-adv-x="1026" 
d="M841 240c41.333 0 69.999 4 85.999 12l4 -1l-10 -251h-749v1337c18 -1.33301 38 -2.33301 60 -3l70 -2c46.667 -1.33301 97.334 -2 152.001 -2c152.667 0 303.667 2.66699 453 8c-7.33301 -58.667 -11 -137 -11 -235c0 -10.667 0.666992 -18.667 2 -24l-2 -3
c-34.667 10 -84 15 -148 15h-315v-255h237c73.333 0 117.333 2 132 6l3 -247c-32 3.33301 -73.333 5 -124 5h-248v-360h408z" />
    <glyph glyph-name="F" unicode="F" horiz-adv-x="1022" 
d="M873 575c-32 3.33301 -73.335 5 -124.002 5h-303v-580h-274v1337c18 -1.33301 38.667 -2.33301 62 -3l74 -2c50.667 -1.33301 103.334 -2 158.001 -2c164 0 320.667 2.66699 470 8c-7.33301 -58.667 -11 -137 -11 -235c0 -10.667 0.666992 -18.667 2 -24l-2 -3
c-35.333 10 -84.666 15 -147.999 15h-331v-275h292c73.333 0 117.333 2 132 6z" />
    <glyph glyph-name="G" unicode="G" horiz-adv-x="1364" 
d="M1268 802c-12.667 -22.667 -18.999 -77 -18.999 -163v-310c0 -94 -48.667 -175.667 -146 -245c-100.667 -72.667 -224 -109 -370 -109c-202.667 0 -364.334 63.667 -485.001 191c-116.667 121.333 -175 276 -175 464c0 200 59.333 366.667 178 500
c132.667 150 315.334 225 548.001 225c155.333 0 278.333 -30 369 -90l-16 -295l-8 -2c-23.333 40.667 -69.333 74 -138 100c-65.333 24.667 -133.833 37 -205.5 37s-134.334 -11.333 -188.001 -34s-99.167 -55 -136.5 -97c-78.667 -86 -118 -199.667 -118 -341
c0 -123.333 34.667 -222.333 104 -297c69.333 -74 158.666 -111 267.999 -111c120.667 0 202 31.333 244 94c13.333 20 20 42.667 20 68v166h-129c-69.333 0 -107 -6 -113 -18l-3 1l-9 261c18.667 -5.33301 94.334 -8 227.001 -8h118c73.333 0 133.333 5 180 15z" />
    <glyph glyph-name="H" unicode="H" horiz-adv-x="1364" 
d="M442 -6c-64 4 -139.998 6 -227.998 6h-32v1335c41.333 -3.33301 70.666 -5 87.999 -5h41c52.667 0 96.334 2.66699 131.001 8v-533h470v530c55.333 -3.33301 109.166 -5 161.499 -5s85.166 2.66699 98.499 8v-1344c-32 4 -95.333 6 -190 6h-70v565h-470v-571z" />
    <glyph glyph-name="I" unicode="I" horiz-adv-x="684" 
d="M203 1334c66.667 -2.66699 107.001 -4 121.001 -4h72c35.333 0 63.666 2.66699 84.999 8l-1 -1338h-277v1334z" />
    <glyph glyph-name="J" unicode="J" horiz-adv-x="860" 
d="M448 1335c41.333 -3.33301 71.334 -5 90.001 -5h78c32.667 0 65 2.66699 97 8v-896c0 -146.667 -39 -262 -117 -346c-74 -80.667 -174 -121 -300 -121c-86.667 0 -159.334 17.333 -218.001 52c-22 12.667 -44 28 -66 46v289l7 2c28 -44 60.833 -80 98.5 -108
s84.5 -42 140.5 -42c126.667 0 190 73.333 190 220v901z" />
    <glyph glyph-name="K" unicode="K" 
d="M427 -6c-46 4 -104.666 6.00098 -175.999 6.00098h-79v1334l40 -2c28 -1.33301 49 -2 63 -2h29c58.667 0 99.667 2.66699 123 8v-565l405 561c42.667 -2.66699 78.667 -4 108 -4h55c68.667 0 117.667 2.66699 147 8l-386 -504l380 -754c16 -36.667 31 -63.334 45 -80.001
h-61c-140.667 -0 -228.334 -2.66699 -263.001 -8c-7.33301 44.667 -17.333 83.667 -30 117l-255 486l-145 -190v-411z" />
    <glyph glyph-name="L" unicode="L" horiz-adv-x="855" 
d="M367 0c-98 0 -163 -2 -195 -6v1342c16 -4 49.167 -6 99.5 -6s108.833 1.33301 175.5 4v-1094h207c60 0 108 2 144 6c-4.66699 -156 -7 -237 -7 -243v-10c-65.333 4.66699 -175 7 -329 7h-95z" />
    <glyph glyph-name="M" unicode="M" horiz-adv-x="1539" 
d="M442 -6c-32 4 -93.666 6 -184.999 6h-80v1334c42.667 -2.66699 89.667 -4 141 -4s87.666 2.66699 108.999 8l336 -571l323 571c21.333 -5.33301 62 -8 122 -8s111.333 1.33301 154 4v-1334h-80c-91.333 0 -153 -2 -185 -6v896l-327 -585l-328 538v-849z" />
    <glyph glyph-name="N" unicode="N" horiz-adv-x="1359" 
d="M181 0c4 22.667 6 47.332 6 73.999v1256h200l530 -834v766c0 36.667 -3.33301 59.334 -10 68.001h270c-3.33301 -26.667 -5 -56 -5 -88v-1242h-208l-522 801v-801h-261z" />
    <glyph glyph-name="O" unicode="O" horiz-adv-x="1535" 
d="M137.5 367c-35 81.333 -52.499 170.499 -52.499 267.499s16.333 188.833 49 275.5s79.334 163 140.001 229s134 118.5 220 157.5s182.333 58.5 289 58.5c184 0 339 -58 465 -174c134.667 -124 202 -291.333 202 -502c0 -204 -69.333 -373.667 -208 -509
c-85.333 -83.333 -187 -140.666 -305 -171.999c-58 -15.333 -125.833 -23 -203.5 -23s-157.334 16 -239.001 48s-152.834 77 -213.501 135s-108.5 127.667 -143.5 209zM363.001 647.999c0 -62 10.3311 -119.001 30.998 -171.001s49.334 -96.667 86.001 -134
c78 -78.667 178.333 -118 301 -118c116.667 0 210.334 37.667 281.001 113c72 78 108 184.333 108 319c0 126.667 -34.333 232.334 -103 317.001c-74 90.667 -175.333 136 -304 136c-124.667 0 -223.667 -46 -297 -138c-68.667 -86 -103 -194 -103 -324z" />
    <glyph glyph-name="P" unicode="P" horiz-adv-x="1026" 
d="M153 1337c92.667 12 187.668 18 285.001 18c181.333 0 319.166 -42.5 413.499 -127.5s141.5 -212.167 141.5 -381.5c0 -151.333 -51.667 -271 -155 -359c-96.667 -82.667 -221 -124 -373 -124c-17.333 0 -36.333 1 -57 3v-366h-255v1337zM468.001 1114
c-20 0 -40 -0.666992 -60 -2v-526c21.333 -2.66699 47.333 -4 78 -4s62.667 6.5 96 19.5s61.333 31.167 84 54.5c47.333 48.667 71 112.667 71 192c0 177.333 -89.667 266 -269 266z" />
    <glyph glyph-name="Q" unicode="Q" horiz-adv-x="1535" 
d="M918 -6c-56 -12.667 -120.667 -18.999 -194 -18.999s-150.833 16 -232.5 48s-152.834 77 -213.501 135c-130.667 124.667 -196 284.334 -196 479.001c0 197.333 63.333 364.666 190 501.999c133.333 144 303.333 216 510 216c188 0 344 -59.333 468 -178
c131.333 -126.667 197 -292.667 197 -498c0 -164.667 -46.667 -308.667 -140 -432c-29.333 -38.667 -62 -73.334 -98 -104.001c24 -6.66699 53 -17.667 87 -33c72.667 -34 141.334 -51.667 206.001 -53h20c34.667 0 57.667 4.66699 69 14l4 -3l-76 -191
c-9.33301 -28.667 -27 -43 -53 -43c-38 0 -76.667 8 -116 24s-74.5 31 -105.5 45s-60.5 26.333 -88.5 37s-54.667 19.667 -80 27c-43.333 12 -96 21 -158 27zM350 648.001c0 -62 10.832 -119.501 32.499 -172.501s51.5 -98.833 89.5 -137.5
c81.333 -82 183.333 -123 306 -123c117.333 0 213 39.667 287 119c76.667 81.333 115 189 115 323c0 126.667 -36 232.334 -108 317.001c-78 90.667 -181.333 136 -310 136c-125.333 0 -226.666 -46 -303.999 -138c-72 -86.667 -108 -194.667 -108 -324z" />
    <glyph glyph-name="R" unicode="R" 
d="M602 517c-20 -1.33301 -41.332 -1.99902 -63.999 -1.99902s-56.334 1.66699 -101.001 5v-520h-265v1337c93.333 12 208 18 344 18c185.333 0 323.5 -34.167 414.5 -102.5s136.5 -173.833 136.5 -316.5c0 -110.667 -41.667 -205.334 -125 -284.001
c-27.333 -25.333 -58.666 -47.333 -93.999 -66l204 -430c40 -88.667 70.667 -141.334 92 -158.001l-5 -5c-64.667 10.667 -166.334 10.334 -305.001 -0.999023zM535.001 1119c-34 0 -66.667 -1.66797 -98 -5.00098v-382c32.667 -4.66699 71 -7 115 -7s81 3.83301 111 11.5
s56 19.5 78 35.5c47.333 35.333 71 88.333 71 159s-24.667 120.334 -74 149.001c-46 26 -113.667 39 -203 39z" />
    <glyph glyph-name="S" unicode="S" 
d="M975 1256l-19.0049 -294.002l-7 -2c-49.333 74 -133.333 122 -252 144c-37.333 7.33301 -73.166 11 -107.499 11s-63.666 -3 -87.999 -9s-45.166 -14.667 -62.499 -26c-36.667 -24 -55 -55.333 -55 -94c0 -50.667 16 -88.667 48 -114
c40 -30.667 106.333 -52.167 199 -64.5s167 -29.166 223 -50.499s102 -48.333 138 -81c68 -61.333 102 -148 102 -260c0 -146.667 -55.333 -259.667 -166 -339c-94.667 -68 -214 -102 -358 -102c-116 0 -230.667 22 -344 66c-37.333 14.667 -70 31.667 -98 51l11 334l4 3
c82.667 -142.667 218.334 -214 407.001 -214c134 0 222.667 32.333 266 97c14.667 22 22 46.5 22 73.5s-4.33301 49.333 -13 67s-23 32.834 -43 45.501c-38.667 25.333 -103.667 42.333 -195 51s-166 25 -224 49s-104.333 53.667 -139 89c-62.667 64 -94 153.333 -94 268
c0 118.667 41.667 214.667 125 288c84.667 74.667 198.834 112 342.501 112s269.5 -33 377.5 -99z" />
    <glyph glyph-name="T" unicode="T" horiz-adv-x="1026" 
d="M652 -6c-32 4 -114.333 6 -247 6h-32v1106h-198c-58.667 0 -93.334 -3 -104.001 -9s-19 -11.333 -25 -16l-3 1v256l3 3c22 -7.33301 81.333 -11 178 -11h627c58.667 0 93.334 3 104.001 9s19 11.333 25 16l3 -1v-256l-3 -3c-22 7.33301 -81.333 11 -178 11h-150v-1112z
" />
    <glyph glyph-name="U" unicode="U" horiz-adv-x="1368" 
d="M930 1335c41.333 -3.33301 75.667 -5.00098 103 -5.00098h83c28 0 57.333 2.66699 88 8v-827c0 -164 -49.667 -295.667 -149 -395c-94 -94 -212 -141 -354 -141c-155.333 0 -281 40.333 -377 121c-107.333 90.667 -161 221.334 -161 392.001v847
c55.333 -3.33301 107.5 -5 156.5 -5s89.5 2.66699 121.5 8v-863c0 -84 25.667 -149.333 77 -196c48 -42.667 108 -64 180 -64c106.667 0 177.667 54.667 213 164c12.667 39.333 19 88 19 146v810z" />
    <glyph glyph-name="V" unicode="V" 
d="M741 -4c-21.333 2.66699 -56.333 4.00098 -105 4.00098h-110c-18 0 -34.333 -0.666992 -49 -2l-1 2c2.66699 4.66699 4 10 4 16s-0.5 12.333 -1.5 19s-3.83301 18.667 -8.5 36s-12 42.333 -22 75l-42 134l-372 1054c41.333 -2.66699 94 -4 158 -4s105 2.66699 123 8
l301 -909l264 905c40 -2.66699 89.333 -4 148 -4c80 0 126.667 2.66699 140 8l-365 -1055l-35 -117c-19.333 -66.667 -29 -109.834 -29 -129.501s1.33301 -32.167 4 -37.5z" />
    <glyph glyph-name="W" unicode="W" horiz-adv-x="1710" 
d="M648 -4c-20 2.66699 -53.9971 4.00098 -101.997 4.00098h-116c-22.667 0 -41.334 -0.666992 -56.001 -2l-1 2c2.66699 4.66699 4 10 4 16s-0.5 12.333 -1.5 19s-3.66699 18.667 -8 36l-19.5 75l-340 1188c42.667 -2.66699 94.334 -4 155.001 -4s100 2.66699 118 8
l236 -905l230 901c10 -0.666992 19 -1.33398 27 -2.00098h22c22 -1.33301 49.667 -2 83 -2s67.666 2.66699 102.999 8l234 -905l201 901c40 -2.66699 92.333 -4 157 -4s104 2.66699 118 8l-288 -1055c-36.667 -121.333 -56 -193.333 -58 -216s-3 -38.334 -3 -47.001
s1.33301 -15.667 4 -21l-2 -3c-21.333 2.66699 -55 4 -101 4h-109c-32.667 0 -56.334 -0.666992 -71.001 -2l-1 2c2.66699 4.66699 4 10 4 16s-0.333008 12 -1 18s-2.5 17.5 -5.5 34.5s-7.83301 42.167 -14.5 75.5l-27 136l-164 623l-156 -620
c-32 -127.333 -48.667 -200.666 -50 -219.999c-2.66699 -36.667 -2.33398 -58 0.999023 -64z" />
    <glyph glyph-name="X" unicode="X" 
d="M779 1233c14 29.333 20.999 51.165 20.999 65.498s-1.33301 24.833 -4 31.5h360c-7.33301 -8 -16.666 -17.5 -27.999 -28.5s-24 -24.167 -38 -39.5c-33.333 -37.333 -64 -80.666 -92 -129.999l-241 -440l225 -423l27 -55c50.667 -105.333 93.667 -176.666 129 -213.999
h-326c-2.66699 23.333 -14 54.666 -34 93.999l-196 376c-138 -279.333 -208.667 -423.333 -212 -432c-3.33301 -11.333 -6 -24 -8 -38h-326c24.667 25.333 50 61 76 107l120 213l213 361l-280 527c-30 56.667 -56.333 97.334 -79 122.001h336
c-2.66699 -6.66699 -4 -14 -4 -22c0 -18 8.33301 -43 25 -75l167 -334z" />
    <glyph glyph-name="Y" unicode="Y" 
d="M451 0c8.66699 26 12.999 86.668 12.999 182.001v278c-115.333 254 -189 412.5 -221 475.5s-59 112.833 -81 149.5c-69.333 117.333 -111.166 184.666 -125.499 201.999s-28.833 31.666 -43.5 42.999h345c7.33301 -13.333 17.333 -33 30 -59l242 -511
c11.333 28 24.666 59.333 39.999 94c145.333 312.667 219 471.334 221 476.001h330c-34 -27.333 -75.667 -84.666 -125 -171.999c-15.333 -26 -30.666 -55.667 -45.999 -89l-226 -471c-25.333 -56.667 -47 -107.667 -65 -153v-287c0 -66.667 4 -119.334 12 -158.001h-300z
" />
    <glyph glyph-name="Z" unicode="Z" horiz-adv-x="1189" 
d="M143 1240c0 22 -0.998047 51.999 -2.99805 89.999h948l-582 -1090h363c94.667 0 150.5 2.83301 167.5 8.5s30.5 10.834 40.5 15.501v-279c-28.667 2.66699 -52.334 5 -71.001 7s-38.334 3.66699 -59.001 5c-31.333 2 -92 3 -182 3h-673l602 1090h-315
c-130 0 -212.667 -7 -248 -21c8 33.333 12 80.333 12 141v30z" />
    <glyph glyph-name="bracketleft" unicode="[" horiz-adv-x="929" 
d="M195 -110c2.66699 42.667 4 68 4 76v1224c0 93.333 -1.66699 173.333 -5 240h320c104 0 168.667 1.66699 194 5l-3 -247c-16 4 -56.667 6 -122 6h-129l9 -1068h67c100.667 0 159 2 175 6l3 -247c-50 3.33301 -98.667 5 -146 5h-367z" />
    <glyph glyph-name="backslash" unicode="\" horiz-adv-x="855" 
d="M256 1530h-256l599 -1700h256z" />
    <glyph glyph-name="bracketright" unicode="]" horiz-adv-x="929" 
d="M706 -110c-2.66699 42.667 -4 68 -4 76v1224c0 93.333 1.66699 173.333 5 240h-320c-104 0 -168.667 1.66699 -194 5l3 -247c16 4 56.667 6 122 6h129l-9 -1068h-67c-100.667 0 -159 2 -175 6l-3 -247c50 3.33301 98.667 5 146 5h367z" />
    <glyph glyph-name="asciicircum" unicode="^" 
d="M480 1415h214l417 -905h-282l-240 611l-227 -611h-281z" />
    <glyph glyph-name="underscore" unicode="_" horiz-adv-x="1353" 
d="M1384 -174v-160h-1413v160h1413z" />
    <glyph glyph-name="grave" unicode="`" horiz-adv-x="803" 
d="M132 1520c113.333 -11.333 220 -17 320 -17l169 -313h-226l-262 323z" />
    <glyph glyph-name="a" unicode="a" 
d="M837 62c-94.667 -51.333 -180.332 -77 -256.999 -77s-142.334 7.16699 -197.001 21.5s-101 35.5 -139 63.5c-77.333 56.667 -116 138.667 -116 246c0 96 47.333 176 142 240c102.667 69.333 242 104 418 104l40 -1c8 -0.666992 17 -1.16699 27 -1.5
s19 -1.16602 27 -2.49902c-5.33301 106.667 -51.333 169 -138 187c-28.667 6 -59.167 9 -91.5 9s-64 -2.83301 -95 -8.5s-61.167 -13.167 -90.5 -22.5c-64.667 -20.667 -111 -44.334 -139 -71.001l-3 2l-30 221c118 62 247 93 387 93c217.333 0 356.333 -78.333 417 -235
c19.333 -50 29 -106.333 29 -169v-362c0 -77.333 27.333 -130 82 -158l-181 -166c-38 20 -68.667 49 -92 87zM783.002 475c-18 3.33301 -36.666 4.99805 -55.999 4.99805h-40c-147.333 0 -241 -32.667 -281 -98c-12 -19.333 -18 -39.666 -18 -60.999
s3.83301 -40.166 11.5 -56.499s20.5 -29.833 38.5 -40.5c34.667 -20 86.167 -30 154.5 -30s132.166 16.333 191.499 49c-0.666992 7.33301 -1 15 -1 23v209z" />
    <glyph glyph-name="b" unicode="b" horiz-adv-x="1187" 
d="M397 1007c74.667 38.667 151 57.999 229 57.999s145.167 -12.167 201.5 -36.5s105.833 -59.166 148.5 -104.499c92.667 -100.667 139 -228 139 -382c0 -168.667 -50.333 -304.667 -151 -408c-96.667 -99.333 -217 -149 -361 -149c-126.667 0 -231 33 -313 99
c-92 74.667 -138 177.667 -138 309v1095h245v-481zM397 395.999c0 -117.333 73 -176 219 -176c71.333 0 131.333 31.333 180 94c49.333 64 74 143.667 74 239c0 96 -26 168.333 -78 217c-46.667 43.333 -109.334 65 -188.001 65c-47.333 0 -99.666 -16 -156.999 -48
c-18 -10 -34.667 -21 -50 -33v-358z" />
    <glyph glyph-name="c" unicode="c" horiz-adv-x="1026" 
d="M964 97c-74.667 -74.667 -191.667 -112 -351 -112c-154.667 0 -281 47 -379 141c-99.333 95.333 -149 222 -149 380c0 160.667 49 292.667 147 396c104 108.667 243 163 417 163c123.333 0 226.666 -27 309.999 -81l-40 -256l-7 1c-32 38.667 -65.667 64 -101 76
c-57.333 20 -114.666 30 -171.999 30s-102.333 -7.33301 -135 -22s-60.667 -35 -84 -61c-46.667 -53.333 -70 -124 -70 -212c0 -156 54 -258 162 -306c37.333 -16 76.833 -24 118.5 -24s78 3.66699 109 11s59.167 17.333 84.5 30c54 26.667 90.667 57.667 110 93l7 -3z" />
    <glyph glyph-name="d" unicode="d" horiz-adv-x="1197" 
d="M864 56c-84.667 -47.333 -169.33 -71.002 -253.997 -71.002s-158.667 13.333 -222 40s-117.333 63.334 -162 110.001c-92 96 -138 220.667 -138 374c0 158.667 53.333 290.667 160 396c107.333 106.667 244.666 160 411.999 160c51.333 0 101.666 -6.66699 150.999 -20
v445h245v-1069c0 -88.667 4.16699 -146.667 12.5 -174s17.666 -47.333 27.999 -60s23.5 -24.667 39.5 -36l-188 -166c-34.667 18.667 -62.667 42.334 -84 71.001zM657.004 214.998c56 0 107.335 10.667 154.002 32v554c-46.667 19.333 -97.334 29 -152.001 29
s-101.5 -7.33301 -140.5 -22s-72.5 -35 -100.5 -61c-58.667 -54.667 -88 -125.667 -88 -213c0 -95.333 26.667 -171.333 80 -228c57.333 -60.667 139.666 -91 246.999 -91z" />
    <glyph glyph-name="e" unicode="e" horiz-adv-x="1197" 
d="M97 514c0 78 13.335 150.333 40.002 217s64.334 125 113.001 175c104 106 240 159 408 159c142 0 256 -47 342 -141c84.667 -90.667 127 -204.667 127 -342c0 -52.667 -4 -88.667 -12 -108c-66.667 -18.667 -202.334 -28 -407.001 -28h-352
c17.333 -71.333 57.666 -126.833 120.999 -166.5s145.666 -59.5 246.999 -59.5c106 0 197 19 273 57c20 10 35 19.333 45 28c-1.33301 -28 -3 -56.667 -5 -86l-11 -156c-50.667 -34.667 -132.667 -58.667 -246 -72c-33.333 -4 -65.333 -6 -96 -6
c-169.333 0 -309.333 49.333 -420 148c-111.333 99.333 -167 226.333 -167 381zM861.002 640c-27.333 143.333 -105.334 215.001 -234.001 215.001c-101.333 0 -178.333 -43.667 -231 -131c-16 -26.667 -28.333 -56 -37 -88c16 -0.666992 35.667 -1.33398 59 -2.00098h74
c24.667 -0.666992 48.334 -1 71.001 -1h57c34 0 67.333 0.333008 100 1l82 3c22 0.666992 41.667 1.66699 59 3z" />
    <glyph glyph-name="f" unicode="f" horiz-adv-x="684" 
d="M646 930c-5.33301 -19.333 -8.00098 -68 -8.00098 -146v-88h-241v-696h-245v696h-147c0.666992 44 1.33398 83 2.00098 117l2 107v10h143v62c0 160 37.333 288.667 112 386c78 100.667 185.333 151 322 151c58 0 96.333 -4 115 -12l1 -251l-2 -5
c-25.333 25.333 -57.5 38 -96.5 38s-70.5 -6.5 -94.5 -19.5s-44.333 -31.5 -61 -55.5c-34 -48 -51 -113.667 -51 -197v-97h249z" />
    <glyph glyph-name="g" unicode="g" 
d="M422 278c-24.667 -32.667 -37.0039 -58.499 -37.0039 -77.499s3 -33.667 9 -44s19 -20.166 39 -29.499c44 -20.667 116.333 -38.834 217 -54.501s179.5 -35.167 236.5 -58.5s103.167 -52 138.5 -86c66 -64.667 99 -156.334 99 -275.001s-41.667 -209.834 -125 -273.501
s-207 -95.5 -371 -95.5c-165.333 0 -298.666 36 -399.999 108s-153.333 167.667 -156 287c-4 138.667 50.333 239 163 301c-30.667 25.333 -51.167 55.166 -61.5 89.499s-15.5 73.5 -15.5 117.5c0 74 32.333 136.667 97 188c-75.333 71.333 -113 160 -113 266
c0 118.667 42.667 218 128 298c90 84 206.667 126 350 126c75.333 0 146 -14 212 -42c86.667 36.667 150.334 68.834 191.001 96.501s66.667 47.834 78 60.501l6 -1c6 -16 13 -38.667 21 -68l18 -72c16 -59.333 25.667 -100 29 -122c-29.333 -32 -81 -54.667 -155 -68
c28.667 -55.333 43 -114 43 -176s-10.667 -118.167 -32 -168.5s-51.666 -94.5 -90.999 -132.5c-87.333 -82 -198.666 -123 -333.999 -123c-66 0 -127.333 9.66699 -184 29zM395.996 728.001c-9.33301 -24 -14 -48.332 -14 -72.999s5.16699 -48.334 15.5 -71.001
s25.5 -43 45.5 -61c44.667 -40 103 -60 175 -60c54.667 0 102 18.333 142 55c42 40 63 88.167 63 144.5s-19 101.833 -57 136.5s-90.333 52 -157 52c-110 0 -181 -41 -213 -123zM640.996 -503.998c164 0 246.003 57.333 246.003 172c0 54.667 -26.667 98.667 -80 132
c-60 38 -163 67.667 -309 89l-52 9c-44 -23.333 -76.333 -53.333 -97 -90s-30.834 -71.5 -30.501 -104.5s8.16602 -61.5 23.499 -85.5s36.666 -45 63.999 -63c60.667 -39.333 139 -59 235 -59z" />
    <glyph glyph-name="h" unicode="h" 
d="M418 112c0 -57.333 1.33398 -94.665 4.00098 -111.998h-249v1430h245v-463c86 65.333 174.667 98 266 98c112 0 202 -37 270 -111c66.667 -74 100 -172 100 -294v-398c0 -112.667 1.66699 -180.334 5 -203.001s7.83301 -37.334 13.5 -44.001s10.5 -12.667 14.5 -18l-2 -4
c-54 4.66699 -93.333 7 -118 7h-71c-22 0 -51 -1 -87 -3v579c0 92 -20.333 160 -61 204c-30.667 33.333 -72.334 50 -125.001 50c-78 0 -146.333 -45 -205 -135v-583z" />
    <glyph glyph-name="i" unicode="i" horiz-adv-x="513" 
d="M115 1343c53.333 83.333 109.001 156.667 167.001 220l215 -169c-28.667 -35.333 -55.334 -70 -80.001 -104l-77 -109zM378.001 112.001c0 -57.333 1.33301 -94.667 4 -112h-254v1045h250v-933z" />
    <glyph glyph-name="j" unicode="j" horiz-adv-x="513" 
d="M95 1336c43.333 69.333 93 134.666 149 195.999l191 -151l-68 -88l-35 -49c-11.333 -15.333 -23.333 -32.666 -36 -51.999zM-16 -155c98.667 0 148 73.333 148 220v980h243v-908c0 -280 -79.667 -445.667 -239 -497c-52 -16.667 -111 -25 -177 -25l-104 263l2 5
c38 -25.333 80.333 -38 127 -38z" />
    <glyph glyph-name="k" unicode="k" 
d="M407 132c0 -57.333 2.33203 -101.333 6.99902 -132h-252v1430h245v-876l457 491h297l-394 -415l225 -307c48.667 -77.333 85.334 -134 110.001 -170l66 -93c20 -26 36.667 -46 50 -60h-158c-58.667 0 -109 -5 -151 -15l-312 456l-190 -202v-107z" />
    <glyph glyph-name="l" unicode="l" horiz-adv-x="513" 
d="M379 112c0 -57.333 1.33301 -94.667 4 -112h-254v1490h250v-1378z" />
    <glyph glyph-name="m" unicode="m" horiz-adv-x="1710" 
d="M417 289c0 -150 2.66895 -246.335 8.00195 -289.002h-261v1045h253v-90c91.333 73.333 185 110 281 110c113.333 0 195.666 -49 246.999 -147c51.333 52.667 94 87.334 128 104.001c56.667 28.667 113.5 43 170.5 43s105.5 -9.66699 145.5 -29s73 -46.666 99 -81.999
c52.667 -71.333 79 -169.333 79 -294v-398c0 -112.667 1.66699 -180.334 5 -203.001s7.83301 -37.334 13.5 -44.001s10.5 -12.667 14.5 -18l-2 -4c-53.333 4.66699 -92.666 7 -117.999 7h-75c-24.667 0 -55 -1 -91 -3v541c0 156 -24 248.667 -72 278
c-16 9.33301 -34.833 14 -56.5 14s-40.834 -2.5 -57.501 -7.5s-32.334 -13.167 -47.001 -24.5c-24.667 -18 -52.667 -53.333 -84 -106c0.666992 -5.33301 1 -10.666 1 -15.999v-264c0 -170.667 4 -308 12 -412h-144.5c-39.667 0 -77.5 -1 -113.5 -3v542
c0 108.667 -6.5 179.334 -19.5 212.001s-26.833 54 -41.5 64s-32.667 15 -54 15c-88 0 -161.333 -42.333 -220 -127v-414z" />
    <glyph glyph-name="n" unicode="n" horiz-adv-x="1197" 
d="M410 128c0 -58.667 2.66797 -101.332 8.00098 -127.999h-251v1045h243v-89c88 72.667 182 109 282 109c109.333 0 196.666 -37.167 261.999 -111.5s98 -172.166 98 -293.499v-398c0 -112.667 1.66699 -180.334 5 -203.001s7.83301 -37.334 13.5 -44.001
s10.5 -12.667 14.5 -18l-2 -4c-54 4.66699 -93.333 7 -118 7h-70c-21.333 0 -50 -1 -86 -3v545c0 195.333 -59.333 293 -178 293c-88 0 -161.667 -45.333 -221 -136v-571z" />
    <glyph glyph-name="o" unicode="o" horiz-adv-x="1197" 
d="M71 517c0 73.333 12.5 143.499 37.5 210.499s60.833 125.5 107.5 175.5c102 108 234.333 162 397 162c162 0 290.667 -51 386 -153c91.333 -97.333 137 -223.666 137 -378.999s-47 -284 -141 -386c-99.333 -108 -231 -162 -395 -162c-169.333 0 -302 53 -398 159
c-87.333 96.667 -131 221 -131 373zM314 522.999c0 -42 6.99902 -82.666 20.999 -121.999s34 -73 60 -101c55.333 -60.667 128 -91 218 -91c83.333 0 149 29.667 197 89c46.667 57.333 70 132 70 224c0 93.333 -24 168.666 -72 225.999
c-51.333 61.333 -121.666 92 -210.999 92c-90.667 0 -161.667 -32.667 -213 -98c-46.667 -60 -70 -133 -70 -219z" />
    <glyph glyph-name="p" unicode="p" 
d="M407 21l0.000976562 -294.001c0 -57.333 1.33301 -94.666 4 -111.999h-249v1430h245v-65c80.667 56.667 158 85 232 85s139.667 -10.333 197 -31s107.666 -52.667 150.999 -96c95.333 -94 143 -228 143 -402c0 -115.333 -27 -218.333 -81 -309
c-46 -76.667 -109.667 -138 -191 -184c-72 -40.667 -150 -61 -234 -61s-156.333 13 -217 39zM407.001 272.999c50.667 -42.667 116.334 -64.002 197.001 -64.002c132 0 217.333 63.667 256 191c13.333 43.333 20 89.833 20 139.5s-4.66699 89.334 -14 119.001
s-21.5 55.334 -36.5 77.001s-31.833 39.667 -50.5 54s-37.667 25.833 -57 34.5c-34 15.333 -69 23 -105 23s-73.333 -8.33301 -112 -25s-71.334 -39 -98.001 -67v-482z" />
    <glyph glyph-name="q" unicode="q" 
d="M844 -385c2.66699 17.333 4.00195 54.668 4.00195 112.001v365c-82.667 -71.333 -174.334 -107 -275.001 -107c-138 0 -250 44.333 -336 133c-90 92 -135 214.667 -135 368c0 173.333 48 312.666 144 417.999c93.333 100.667 211.666 151 354.999 151
c109.333 0 195.333 -17.333 258 -52l234 42v-1430h-249zM848.002 769.002c-48 46 -124.666 69 -229.999 69c-82.667 0 -148.667 -31.333 -198 -94c-48.667 -62 -73 -139.667 -73 -233c0 -138.667 49.333 -231 148 -277c33.333 -16 72.666 -24 117.999 -24
c94 0 172.333 43.333 235 130v429z" />
    <glyph glyph-name="r" unicode="r" horiz-adv-x="684" 
d="M383 112c0 -57.333 1.33203 -94.667 3.99902 -112h-249v1045h245v-77c56.667 64.667 116.167 97 178.5 97s111.5 -7.66699 147.5 -23l-18 -269l-4 -3c-23.333 41.333 -71.666 62 -144.999 62c-28 0 -56.5 -9.5 -85.5 -28.5s-53.5 -44.167 -73.5 -75.5v-616z" />
    <glyph glyph-name="s" unicode="s" horiz-adv-x="1026" 
d="M499 -15c-188 0 -329.667 34.334 -425 103.001c1.33301 20 3.33301 42.667 6 68l9 72l10 88.5c1.33301 11.667 2.33301 18 3 19s6 -4.33301 16 -16s29 -25.834 57 -42.501s60.333 -31.334 97 -44.001c79.333 -27.333 162 -41 248 -41c115.333 0 173 38.333 173 115
c0 24.667 -11 43 -33 55c-39.333 20 -97.166 35.167 -173.499 45.5s-138.833 25.5 -187.5 45.5s-88.334 44 -119.001 72c-56.667 52.667 -85 121.667 -85 207c0 104 40 185.667 120 245c79.333 58.667 189 88 329 88c138.667 0 257 -39.333 355 -118
c-4.66699 -17.333 -9.66699 -34 -15 -50c-15.333 -44 -26.666 -75.667 -33.999 -95l-23 -59c-1.33301 -5.33301 -2.33301 -8 -3 -8c-1.33301 0 -6.66602 7 -15.999 21c-42 48.667 -107.333 80.667 -196 96c-27.333 5.33301 -55.333 8 -84 8
c-121.333 0 -182 -36.667 -182 -110c0 -25.333 12.667 -44.666 38 -57.999c47.333 -25.333 112.166 -44 194.499 -56s144.833 -28.167 187.5 -48.5s77 -44.833 103 -73.5c48 -52 72 -121 72 -207c0 -94 -37.667 -170.333 -113 -229c-78.667 -62 -188.334 -93 -329.001 -93z
" />
    <glyph glyph-name="t" unicode="t" horiz-adv-x="855" 
d="M611 220c86 0 145.001 22.335 177.001 67.002h8l3 -232c-32.667 -32.667 -93.334 -54.334 -182.001 -65.001c-24 -3.33301 -53.833 -5 -89.5 -5s-74.334 6.66699 -116.001 20s-77.167 35 -106.5 65c-60.667 62 -91 159 -91 291v454h-151c-0.666992 19.333 -1 39 -1 59
v154c0 11.333 0.333008 17 1 17h151v285h245v-285h275v-230h-275v-408c0 -104.667 29 -164.334 87 -179.001c18.667 -5.33301 40.334 -8 65.001 -8z" />
    <glyph glyph-name="u" unicode="u" 
d="M773 91c-85.333 -70.667 -178.333 -105.999 -279 -105.999c-108 0 -192.667 36.333 -254 109c-58.667 70.667 -88 167.667 -88 291v397c0 133.333 -2.83301 209.833 -8.5 229.5s-9.83398 32.167 -12.501 37.5c30.667 -2.66699 62.667 -4 96 -4h83c22 0 51 1 87 3v-579
c0 -137.333 37.333 -217 112 -239c22.667 -6.66699 47.334 -10 74.001 -10c78.667 0 142 28.667 190 86v739h248v-917c0 -58.667 2.66699 -101.334 8 -128.001h-256v91z" />
    <glyph glyph-name="v" unicode="v" horiz-adv-x="1031" 
d="M-4 1045h283l244 -688l236 688h277l-413 -1045h-206z" />
    <glyph glyph-name="w" unicode="w" horiz-adv-x="1535" 
d="M7 1045h269l186 -751l200 751h230l207 -767l186 767h242l-308 -1045h-259l-198 685l-184 -685h-257z" />
    <glyph glyph-name="x" unicode="x" horiz-adv-x="1031" 
d="M374 533l-354 512h313l185 -319l200 319h291c-0.666992 0 -8 -9.66699 -22 -29l-326 -465l370 -551h-310l-200 339l-198 -339h-313z" />
    <glyph glyph-name="y" unicode="y" horiz-adv-x="1025" 
d="M51 -348l66.001 53c99.333 80.667 181.666 199.667 246.999 357l46 111l-383 872h280l240 -604l223 604h288c-34.667 -48 -77 -137.333 -127 -268l-150 -371c-200.667 -472 -358 -753.333 -472 -844z" />
    <glyph glyph-name="z" unicode="z" horiz-adv-x="1024" 
d="M145 998l-2.00293 47h845l-510 -845h393c58.667 0 98.334 8.33301 119.001 25l-66 -240c-29.333 2 -64.666 3.66699 -105.999 5l-124 6c-76.667 2.66699 -149 4 -217 4c-150.667 0 -291 -5 -421 -15l523 864h-248c-77.333 0 -140.666 -8.66699 -189.999 -26
c2.66699 52 4 92.333 4 121v54z" />
    <glyph glyph-name="braceleft" unicode="{" horiz-adv-x="1026" 
d="M767 -93c-46 -8 -95.9961 -11.999 -149.996 -11.999s-104 7 -150 21s-83.667 33 -113 57c-58 46.667 -87 109 -87 187c0 76 28.667 143.667 86 203c18 40.667 31.833 73.5 41.5 98.5s14.5 49.167 14.5 72.5c0 54 -62.333 92 -187 114v55c90.667 16 148 35.667 172 59
c10 9.33301 15 20 15 32s-0.833008 23.167 -2.5 33.5s-4.5 21.5 -8.5 33.5c-8 21.333 -22.667 53.333 -44 96c-58 55.333 -87 125 -87 209c0 72 28 134 84 186c66.667 62 160 93 280 93c39.333 0 84.666 -4 135.999 -12l-10 -203l-4 -2
c-18.667 4.66699 -34.834 7.5 -48.501 8.5s-28.834 2.33301 -45.501 4s-33.667 0.333984 -51 -3.99902s-32.333 -10.5 -45 -18.5c-26.667 -18 -40 -39.667 -40 -65c0 -52.667 33.333 -111 100 -175c38.667 -81.333 58 -143 58 -185c0 -52 -53 -94.667 -159 -128
c106 -34 159 -73.667 159 -119c0 -40 -16.667 -97 -50 -171l-49 -57c-39.333 -46 -59 -84.333 -59 -115s14.333 -56.334 43 -77.001c30 -22.667 66 -31.334 108 -26.001c13.333 1.33301 26.166 2.5 38.499 3.5s25.833 3.83301 40.5 8.5l4 -2z" />
    <glyph glyph-name="bar" unicode="|" horiz-adv-x="929" 
d="M333 -170c2.66699 42.667 4 82.3311 4 118.998v1459c0 14.667 -1.66699 55.334 -5 122.001h265c-3.33301 -66.667 -5 -127.667 -5 -183v-1405c0 -57.333 1.33301 -94.666 4 -111.999h-263z" />
    <glyph glyph-name="braceright" unicode="}" horiz-adv-x="1026" 
d="M221 -93c46 -8 95.9961 -11.999 149.996 -11.999s104 7 150 21s83.667 33 113 57c58 46.667 87 109 87 187c0 76 -28.667 143.667 -86 203c-18 40.667 -31.833 73.5 -41.5 98.5s-14.5 49.167 -14.5 72.5c0 54 62.333 92 187 114v55c-90.667 16 -148 35.667 -172 59
c-10 9.33301 -15 20 -15 32s0.833008 23.167 2.5 33.5s4.5 21.5 8.5 33.5c8 21.333 22.667 53.333 44 96c58 55.333 87 125 87 209c0 72 -28 134 -84 186c-66.667 62 -160 93 -280 93c-39.333 0 -84.666 -4 -135.999 -12l10 -203l4 -2c18.667 4.66699 34.834 7.5 48.501 8.5
s28.834 2.33301 45.501 4s33.667 0.333984 51 -3.99902s32.333 -10.5 45 -18.5c26.667 -18 40 -39.667 40 -65c0 -52.667 -33.333 -111 -100 -175c-38.667 -81.333 -58 -143 -58 -185c0 -52 53 -94.667 159 -128c-106 -34 -159 -73.667 -159 -119c0 -40 16.667 -97 50 -171
l49 -57c39.333 -46 59 -84.333 59 -115s-14.333 -56.334 -43 -77.001c-30 -22.667 -66 -31.334 -108 -26.001c-13.333 1.33301 -26.166 2.5 -38.499 3.5s-25.833 3.83301 -40.5 8.5l-4 -2z" />
    <glyph glyph-name="asciitilde" unicode="~" horiz-adv-x="1535" 
d="M1093 543c141.333 0 235.667 68.332 283 204.999l6 -3l19 -273c-58 -106 -170.667 -159 -338 -159c-90.667 0 -197 44.333 -319 133c-75.333 54.667 -134 90.334 -176 107.001s-80 25 -114 25s-65 -3 -93 -9s-54.333 -16.333 -79 -31c-49.333 -28.667 -94 -77 -134 -145
l-6 3l-8 276c81.333 94.667 197 142 347 142c80.667 0 187 -45.167 319 -135.5s229.667 -135.5 293 -135.5z" />
    <glyph glyph-name="nonbreakingspace" unicode="&#xa0;" horiz-adv-x="440" 
 />
    <glyph glyph-name="exclamdown" unicode="&#xa1;" horiz-adv-x="684" 
d="M214 988c34 -4 92.332 -6 174.999 -6h80l2 -978l-91 4h-22c-77.333 0 -126.666 -2.66699 -147.999 -8zM207.999 1122c2.66699 33.333 4 75.832 4 127.499s-1.33301 89.167 -4 112.5h265c-5.33301 -41.333 -8 -82.166 -8 -122.499s2 -79.5 6 -117.5h-263z" />
    <glyph glyph-name="cent" unicode="&#xa2;" horiz-adv-x="1364" 
d="M650 -195c6 22.667 8.99902 67.6699 8.99902 135.003v37c-150 12 -272.333 66.667 -367 164c-94 96.667 -141 215 -141 355c0 143.333 46.333 266.333 139 369c90.667 100 211.334 163 362.001 189v67c0 67.333 -3 112.333 -9 135h269c-2.66699 -38.667 -4 -80 -4 -124
v-72c111.333 -8.66699 199.333 -25.667 264 -51l-28 -272l-9 -9c-53.333 45.333 -140.333 75.333 -261 90c-35.333 4.66699 -76 7 -122 7s-91.667 -7.83301 -137 -23.5s-83 -36.834 -113 -63.501c-59.333 -52.667 -89 -121.334 -89 -206.001c0 -92 33.333 -166.667 100 -224
c71.333 -62 164 -93 278 -93c136 0 246 37.667 330 113c26 23.333 45.667 49.666 59 78.999l7 -6l-14 -295c-56.667 -52.667 -142.667 -89.667 -258 -111v-66c2.66699 -80.667 4 -122 4 -124h-269z" />
    <glyph glyph-name="sterling" unicode="&#xa3;" horiz-adv-x="1359" 
d="M656 576c2.66699 -26.667 4.00195 -68.498 4.00195 -125.498s-12 -120.167 -36 -189.5c39.333 -7.33301 68 -12.333 86 -15s34.5 -5.66699 49.5 -9s31.167 -6.66602 48.5 -9.99902c41.333 -8 81.5 -12 120.5 -12s70.667 1 95 3s45.833 5.33301 64.5 10
c38 9.33301 67.667 22.666 89 39.999l6 1l-8 -260c-56 -22.667 -123.333 -34 -202 -34c-28.667 0 -69.667 4.33301 -123 13l-117 20c-36 6 -64.667 11 -86 15l-55 10c-26.667 4.66699 -50.334 7 -71.001 7c-30 0 -55.667 -2.33301 -77 -7
c-56 -28.667 -126.667 -48.334 -212 -59.001l-50 254c32.667 18.667 89.667 33 171 43c34.667 78 52 141.333 52 190s-1.33301 87 -4 115h-175l-13 240h145c-8 51.333 -12 104.666 -12 159.999s10.667 107 32 155s51.333 88.333 90 121c81.333 68.667 189.333 103 324 103
c125.333 0 228.666 -14.333 309.999 -43l-36 -250l-2 -5c-50.667 22 -105.167 37.167 -163.5 45.5s-96.833 12.5 -115.5 12.5c-122.667 0 -184 -54.333 -184 -163c0 -56 2.66699 -101.333 8 -136h256c72.667 0 116.667 2 132 6l3 -251c-32 3.33301 -73.333 5 -124 5h-220z
" />
    <glyph glyph-name="currency" unicode="&#xa4;" horiz-adv-x="1535" 
d="M1167 865c40 -65.333 60.0029 -136.67 60.0029 -214.003s-22.667 -149 -68 -215l77 -76c30.667 -31.333 61 -59.666 91 -84.999l-191 -190c-14.667 24 -44.334 57.667 -89.001 101l-90 90c-60.667 -24.667 -125 -37 -193 -37s-130.333 11.333 -187 34l-88 -88
c-48 -48 -77.667 -82 -89 -102l-190 191l45.999 40l122 122c-39.333 61.333 -59 129.833 -59 205.5s19 145.5 57 209.5l-75 75c-43.333 44.667 -77 74.334 -101 89.001l190 191c25.333 -30 53.666 -60.333 84.999 -91l92 -93c66 28.667 135.667 43 209 43
s138 -11.667 194 -35c91.333 90.667 149 150.334 173 179.001l191 -190c-20 -11.333 -54 -41 -102 -89zM569.003 651.996c0 -25.333 5.66699 -48.998 17 -70.998s26.666 -41 45.999 -57c40 -32.667 89 -49 147 -49c56.667 0 104.334 16 143.001 48
c40.667 33.333 61 77.666 61 132.999c0 47.333 -19 88.333 -57 123c-41.333 37.333 -92.333 56 -153 56c-60 0 -109.667 -18.333 -149 -55c-36.667 -34.667 -55 -77.334 -55 -128.001z" />
    <glyph glyph-name="yen" unicode="&#xa5;" horiz-adv-x="1535" 
d="M662 0c8.66699 26 12.999 86.668 12.999 182.001v188h-351v196h351v94h-351v196h217l-168 238c-77.333 111.333 -145.666 190 -204.999 236h355c4.66699 -20.667 22 -54 52 -100l221 -368l218 368c30 54 44 87.333 42 100h310c-14.667 -8 -66.667 -84.667 -156 -230
l-159 -244h83c73.333 0 117.333 2 132 6v-207c-32 3.33301 -72.667 5 -122 5h-214v-94h202c73.333 0 117.333 2 132 6v-207c-32 3.33301 -75.333 5 -130 5h-204v-212c0 -66.667 4 -119.334 12 -158.001h-280z" />
    <glyph glyph-name="brokenbar" unicode="&#xa6;" horiz-adv-x="929" 
d="M592 963c0 -57.333 1.33301 -94.6689 4 -112.002h-263c2.66699 42.667 4 68.334 4 77.001v480c0 14.667 -1.66699 55.334 -5 122.001h265c-3.33301 -66.667 -5 -127.667 -5 -183v-384zM592 -58.0029c0 -57.333 1.33301 -94.668 4 -112.001h-263l2 33
c1.33301 22.667 2 47 2 73v449c0 14.667 -1.66699 55.334 -5 122.001h265c-3.33301 -66.667 -5 -127.667 -5 -183v-382z" />
    <glyph glyph-name="section" unicode="&#xa7;" horiz-adv-x="1364" 
d="M1020 175c90 -70.667 135 -153 135 -247c0 -124 -54.333 -220.667 -163 -290c-96.667 -62.667 -212 -94 -346 -94c-108.667 0 -214.667 23.333 -318 70c-30 14 -55 29 -75 45l-11 306l3 2c31.333 -52.667 89.666 -98.334 174.999 -137.001c84 -38 169 -57 255 -57
c63.333 0 111.666 8.16699 144.999 24.5s56.333 31.5 69 45.5s19 29.667 19 47c0 70 -102.667 123.667 -308 161c-210.667 38 -350 114.333 -418 229c-22.667 37.333 -34 77.333 -34 120c0 140 68 248.333 204 325c-96.667 77.333 -145 163.333 -145 258
c0 106.667 46.333 194.334 139 263.001c97.333 72.667 229.666 109 396.999 109c114.667 0 216.334 -20.667 305.001 -62c25.333 -12 46.333 -24.333 63 -37l-38 -288l-5 -3c-54 72 -138 120.333 -252 145c-38.667 8 -78.167 12 -118.5 12s-74.666 -3.16699 -102.999 -9.5
s-52.5 -14.833 -72.5 -25.5c-41.333 -22 -62 -49.333 -62 -82c0 -54.667 55.333 -100 166 -136c34.667 -11.333 83.334 -22.166 146.001 -32.499s123.667 -27.5 183 -51.5s108.333 -51.333 147 -82c75.333 -60.667 113 -130 113 -208c0 -138.667 -65 -245.334 -195 -320.001
zM407 513c-10 -15.333 -15 -32.1719 -15 -50.5049s9 -35.666 27 -51.999s41.167 -31.166 69.5 -44.499s59.833 -25 94.5 -35s68.334 -18.667 101.001 -26c51.333 -11.333 102.666 -20.666 153.999 -27.999l56 39c34.667 24 56.5 44.833 65.5 62.5s13.5 35.834 13.5 54.501
s-12.333 37.334 -37 56.001s-56.667 35.667 -96 51c-69.333 27.333 -160.333 51.333 -273 72c-76 -19.333 -129.333 -52.333 -160 -99z" />
    <glyph glyph-name="dieresis" unicode="&#xa8;" horiz-adv-x="869" 
d="M787 1430c-2.66699 -33.333 -4 -75.832 -4 -127.499s1.33301 -89.167 4 -112.5h-265c5.33301 41.333 8 82.166 8 122.499s-2 79.5 -6 117.5h263zM357 1430c-2.66699 -33.333 -4 -75.832 -4 -127.499s1.33301 -89.167 4 -112.5h-265c5.33301 41.333 8 82.166 8 122.499
s-2 79.5 -6 117.5h263z" />
    <glyph glyph-name="copyright" unicode="&#xa9;" horiz-adv-x="1877" 
d="M230.5 519c-38.333 84.667 -57.499 172.664 -57.499 263.997s10.333 168.833 31 232.5s49 120.5 85 170.5s78.5 93.333 127.5 130s102.167 66.667 159.5 90c176.667 73.333 362.667 89 558 47c128 -27.333 239.333 -77.666 334 -150.999c98 -76 166.667 -173 206 -291
c19.333 -59.333 29 -123.166 29 -191.499s-9.16699 -132.833 -27.5 -193.5s-44.333 -117 -78 -169s-73.834 -99.167 -120.501 -141.5s-98.334 -78.166 -155.001 -107.499c-118 -62 -239.167 -93 -363.5 -93s-233.166 16.167 -326.499 48.5s-174 78.5 -242 138.5
s-121.167 132.333 -159.5 217zM408.001 798.997c0 -65.333 12.667 -125.667 38 -181s61 -104 107 -146c100 -91.333 226.667 -137 380 -137c165.333 0 297 43.667 395 131c93.333 84.667 140 193 140 325c0 142.667 -48 259 -144 349c-98.667 90.667 -228 136 -388 136
c-164 0 -294 -46 -390 -138c-92 -88 -138 -201 -138 -339zM1198 544.996c-50.667 -42.667 -129.667 -64 -237 -64c-114 0 -206.333 31 -277 93c-68 60 -102 135.333 -102 226c0 94 36.667 172.667 110 236c76 66 173.333 99 292 99c78.667 0 146.667 -13.333 204 -40v-227
h-1c-29.333 27.333 -78.333 46 -147 56c-19.333 3.33301 -37.333 5 -54 5c-60 0 -105.167 -11.333 -135.5 -34s-45.5 -52 -45.5 -88s17.5 -65 52.5 -87s81.833 -33 140.5 -33c56.667 0 110.667 13 162 39c15.333 8 27.333 16.333 36 25l2 -1v-205z" />
    <glyph glyph-name="ordfeminine" unicode="&#xaa;" 
d="M773 671c-67.333 -62.667 -143.832 -94 -229.499 -94s-154.334 10.667 -206.001 32s-93.5 49.666 -125.5 84.999c-61.333 66.667 -92 154.334 -92 263.001c0 114 37.333 208.333 112 283c76.667 76.667 178 115 304 115c71.333 0 138 -19.333 200 -58v64h255v-463
c0 -112.667 27 -180.667 81 -204l-2 -5l-198 -129c-34.667 11.333 -67.667 48.333 -99 111zM736.001 1093c-60 28 -118.168 42 -174.501 42s-101.5 -15 -135.5 -45s-51 -70.333 -51 -121s19.333 -92 58 -124c40 -32.667 87.833 -49 143.5 -49s108.834 14 159.501 42v255z
" />
    <glyph glyph-name="guillemotleft" unicode="&#xab;" horiz-adv-x="1364" 
d="M229 449c-18.667 32.667 -28 55.333 -28 68c0 22.667 7.66699 48.667 23 78l201 320h255l-227 -388l233 -387h-255zM706 448.999c-18.667 32.667 -28 55.333 -28 68c0 22.667 7.66699 48.667 23 78l201 320h255l-227 -388l233 -387h-255z" />
    <glyph glyph-name="logicalnot" unicode="&#xac;" horiz-adv-x="1535" 
d="M386 500c-50.667 0 -92 -1.66699 -124 -5l3 247c15.333 -4 59.333 -6 132 -6h739c73.333 0 117.333 2 132 6v-404c0 -50.667 1.66699 -92 5 -124l-247 3c4 15.333 6 59.333 6 132v151h-646z" />
    <glyph glyph-name="uni00AD" unicode="&#xad;" horiz-adv-x="1229" 
 />
    <glyph glyph-name="registered" unicode="&#xae;" horiz-adv-x="1872" 
d="M228.5 519c-38.333 84.667 -57.499 172.664 -57.499 263.997s10.333 168.833 31 232.5s49 120.5 85 170.5s78.5 93.333 127.5 130s102.167 66.667 159.5 90c176.667 73.333 362.667 89 558 47c128 -27.333 239.333 -77.666 334 -150.999c98 -76 166.667 -173 206 -291
c19.333 -59.333 29 -123.166 29 -191.499s-9.16699 -132.833 -27.5 -193.5s-44.333 -117 -78 -169s-73.834 -99.167 -120.501 -141.5s-98.334 -78.166 -155.001 -107.499c-118 -62 -239.167 -93 -363.5 -93s-233.166 16.167 -326.499 48.5s-174 78.5 -242 138.5
s-121.167 132.333 -159.5 217zM406.001 798.997c0 -65.333 12.667 -125.667 38 -181s61 -104 107 -146c100 -91.333 226.667 -137 380 -137c165.333 0 297 43.667 395 131c93.333 84.667 140 193 140 325c0 142.667 -48 259 -144 349c-98.667 90.667 -228 136 -388 136
c-164 0 -294 -46 -390 -138c-92 -88 -138 -201 -138 -339zM986.001 638.996c-21.333 -2.66699 -39.001 -4 -53.001 -4h-30c-6 0 -11.667 0.666992 -17 2v-142h-225v610c66.667 18 138.334 27 215.001 27s138 -6.66699 184 -20s84 -31.333 114 -54
c58 -44.667 87 -101 87 -169s-27.333 -125 -82 -171l54 -104l19 -34c32 -53.333 50.667 -82 56 -86l-2 -2c-15.333 2 -28.333 3 -39 3h-43c-72 0 -126.667 -1.33301 -164 -4zM932 803.996c75.333 0 112.999 29.667 112.999 89c0 22 -11.833 39.667 -35.5 53
s-47.5 20 -71.5 20h-42c-3.33301 0 -6.66602 -0.333008 -9.99902 -1v-159c8.66699 -1.33301 16.667 -2 24 -2h22z" />
    <glyph glyph-name="macron" unicode="&#xaf;" horiz-adv-x="929" 
d="M802 1523c-2.66699 -33.333 -4 -58.667 -4 -76v-34c0 -5.33301 1.33301 -25.333 4 -60h-675l3 26c3.33301 22 5 42 5 60s-2 46 -6 84h673z" />
    <glyph glyph-name="degree" unicode="&#xb0;" horiz-adv-x="1026" 
d="M505 732c-52.667 0 -100.332 8.66699 -142.999 26s-79.334 41.333 -110.001 72c-66 64 -99 145 -99 243c0 97.333 32 179.333 96 246c68.667 71.333 159.667 107 273 107c100.667 0 185 -36 253 -108c64.667 -68 97 -147.333 97 -238c0 -100 -34.333 -182.667 -103 -248
c-70.667 -66.667 -158.667 -100 -264 -100zM451.502 936.5c20.333 -7.66699 42.332 -11.5 65.999 -11.5s44.834 3.83301 63.501 11.5s35 18.5 49 32.5c28.667 30 43 68 43 114c0 70 -30.333 117.667 -91 143c-20 8.66699 -42.5 13 -67.5 13s-47.167 -4.33301 -66.5 -13
s-36 -20 -50 -34c-28 -30 -42 -61.667 -42 -95s3.83301 -59.5 11.5 -78.5s18.5 -35.5 32.5 -49.5s31.167 -24.833 51.5 -32.5z" />
    <glyph glyph-name="plusminus" unicode="&#xb1;" horiz-adv-x="1364" 
d="M800 578c0 -50.667 1.66699 -92 5 -124l-247 3c4 15.333 6 59.333 6 132v211h-213c-50.667 0 -92 -1.66699 -124 -5l3 247c14.667 -4 58.667 -6 132 -6h202v192c0 73.333 -2 117.333 -6 132l247 3c-3.33301 -32 -5 -73.333 -5 -124v-203h201c72.667 0 116.667 2 132 6
l3 -247c-32 3.33301 -73.333 5 -124 5h-212v-222zM351 100c-50.667 0 -92 -1.66699 -124 -5l3 227c14.667 -4 58.667 -6 132 -6h639c72.667 0 116.667 2 132 6l3 -227c-32 3.33301 -73.333 5 -124 5h-661z" />
    <glyph glyph-name="twosuperior" unicode="&#xb2;" horiz-adv-x="855" 
d="M657 603c-92.667 6 -176.669 9.00195 -252.002 9.00195c-125.333 0 -227.333 -2.66699 -306 -8l91 145c122.667 196 184 319 184 369c0 19.333 -5.66699 36.666 -17 51.999s-23.666 23 -36.999 23s-27.166 -1.16699 -41.499 -3.5s-28.5 -6.16602 -42.5 -11.499
c-32 -10.667 -57.667 -24.334 -77 -41.001l-7 -1l5 229c38.667 26.667 108 40 208 40c78 0 143.667 -19 197 -57c54.667 -38.667 82 -91.334 82 -158.001c0 -92.667 -46.667 -218.667 -140 -378h156c46 0 76.333 5.66699 91 17l5 -2z" />
    <glyph glyph-name="threesuperior" unicode="&#xb3;" horiz-adv-x="855" 
d="M593 1054c40.667 -21.333 73.333 -50.167 98 -86.5s37 -74.833 37 -115.5s-7.83301 -76.5 -23.5 -107.5s-38.167 -57.167 -67.5 -78.5c-60.667 -45.333 -143 -68 -247 -68c-119.333 0 -211.333 24.333 -276 73l-2 199l5 6c33.333 -33.333 96 -57.333 188 -72
c26.667 -4.66699 52.667 -7 78 -7c76 0 114 21 114 63c0 16.667 -6.66699 30 -20 40c-24.667 19.333 -48.5 29 -71.5 29s-39.833 -0.666992 -50.5 -2s-20.334 -2.66602 -29.001 -3.99902c-18.667 -2.66699 -29 -5 -31 -7l-3 5l5 155c20 10 50.333 15 91 15h1
c34.667 13.333 52 31.666 52 54.999c0 44 -31.167 66 -93.5 66s-117.166 -14 -164.499 -42l-2 3l-7 190c52 34.667 130 52 234 52c82 0 148.667 -17 200 -51c50.667 -34.667 76 -84 76 -148s-30.333 -118 -91 -162z" />
    <glyph glyph-name="acute" unicode="&#xb4;" horiz-adv-x="855" 
d="M412 1503c100 0 206.667 5.66699 320 17l-1 -7l-262 -323h-226z" />
    <glyph glyph-name="mu" unicode="&#xb5;" horiz-adv-x="1364" 
d="M356 -407c-75.333 56 -113.001 176.667 -113.001 362v865c0 94.667 -4.33301 171 -13 229c30.667 -2.66699 61.334 -4 92.001 -4h79c22 0 51 1 87 3v-746c44 -54.667 109.667 -82 197 -82c57.333 0 107 20.333 149 61v764h245v-671c0 -102.667 35.333 -154 106 -154
c35.333 0 62.333 10.667 81 32h8l-57 -248c-22 -12.667 -57.333 -19 -106 -19c-91.333 0 -163 33.333 -215 100c-83.333 -66.667 -171 -100 -263 -100c-57.333 0 -113.333 13.667 -168 41c4 -158.667 34.667 -257.667 92 -297v-5z" />
    <glyph glyph-name="mu" unicode="&#x3bc;" horiz-adv-x="1364" 
d="M356 -407c-75.333 56 -113.001 176.667 -113.001 362v865c0 94.667 -4.33301 171 -13 229c30.667 -2.66699 61.334 -4 92.001 -4h79c22 0 51 1 87 3v-746c44 -54.667 109.667 -82 197 -82c57.333 0 107 20.333 149 61v764h245v-671c0 -102.667 35.333 -154 106 -154
c35.333 0 62.333 10.667 81 32h8l-57 -248c-22 -12.667 -57.333 -19 -106 -19c-91.333 0 -163 33.333 -215 100c-83.333 -66.667 -171 -100 -263 -100c-57.333 0 -113.333 13.667 -168 41c4 -158.667 34.667 -257.667 92 -297v-5z" />
    <glyph glyph-name="paragraph" unicode="&#xb6;" horiz-adv-x="1364" 
d="M538 22c-39.333 -14.667 -86.3311 -22 -140.998 -22s-103.334 9.33301 -146.001 28v239l7 2c36 -20 68.5 -30 97.5 -30s49.167 2 60.5 6s20.666 11 27.999 21c15.333 19.333 23 53.666 23 102.999v194c-112 4 -200.333 45.333 -265 124c-57.333 69.333 -86 155 -86 257
c0 186 95.333 306 286 360c62.667 17.333 135.667 26 219 26h569c-5.33301 -54.667 -8 -134.334 -8 -239.001v-979c0 -57.333 1.33301 -94.666 4 -111.999h-249v1092c-32 2 -59.667 3 -83 3h-67c-21.333 0 -43 -0.333008 -65 -1v-627
c0 -249.333 -61.333 -397.666 -184 -444.999z" />
    <glyph glyph-name="periodcentered" unicode="&#xb7;" horiz-adv-x="510" 
d="M109 600c6 40.667 9.00098 76.667 9.00098 108s-0.166992 52.833 -0.5 64.5s-0.833008 23.167 -1.5 34.5s-1.33398 22 -2.00098 32l-3 25h290c-2 -25.333 -3 -46 -3 -62l-2 -42v-71.5c0 -35 1.66699 -64.5 5 -88.5h-292z" />
    <glyph glyph-name="cedilla" unicode="&#xb8;" horiz-adv-x="673" 
d="M449 40l7 -51.001c6 -37.333 9 -84 9 -140s-7.5 -102.333 -22.5 -139s-32.167 -60.667 -51.5 -72c-39.333 -25.333 -111 -48.666 -215 -69.999l-6 6c46.667 66 70 208 70 426z" />
    <glyph glyph-name="onesuperior" unicode="&#xb9;" horiz-adv-x="684" 
d="M219 1390h245v-790h-245v790z" />
    <glyph glyph-name="ordmasculine" unicode="&#xba;" 
d="M584 577c-68 0 -129.167 11.334 -183.5 34.001s-99.166 52 -134.499 88c-70.667 70.667 -106 156.667 -106 258c0 112.667 41.667 207 125 283c84 76.667 189.333 115 316 115c123.333 0 225.666 -35.667 306.999 -107c82.667 -72.667 124 -164.667 124 -276
c0 -108.667 -42.333 -201.334 -127 -278.001c-85.333 -78 -192.333 -117 -321 -117zM522.5 806.001c25 -8.66699 51.333 -12.999 79 -12.999s52.667 4.33301 75 13s41.5 20.667 57.5 36c36 32.667 54 71.667 54 117c0 50 -19.333 91.667 -58 125c-37.333 34 -78 51 -122 51
s-77.833 -5.33301 -101.5 -16s-43.5 -24.334 -59.5 -41.001c-31.333 -32.667 -47 -66 -47 -100s5.16699 -61.333 15.5 -82s24.5 -38.667 42.5 -54s39.5 -27.333 64.5 -36z" />
    <glyph glyph-name="guillemotright" unicode="&#xbb;" horiz-adv-x="1364" 
d="M657 449c18.667 32.667 28 55.333 28 68c0 22.667 -7.66699 48.667 -23 78l-201 320h-255l227 -388l-233 -387h255zM1134 448.999c18.667 32.667 28 55.333 28 68c0 22.667 -7.66699 48.667 -23 78l-201 320h-255l227 -388l-233 -387h255z" />
    <glyph glyph-name="onequarter" unicode="&#xbc;" horiz-adv-x="2038" 
d="M250 1390h245v-790h-245v790zM1102 1330h245l-750 -1330h-245zM1636 363c62.667 0 112 4.66699 148 14l3 -3l-62 -231h-110v-143h-245v143h-386l-20 44l311 583l340 -1v-406h21zM1370 363v237l-96 -237h96z" />
    <glyph glyph-name="onehalf" unicode="&#xbd;" horiz-adv-x="2043" 
d="M277 1390h245v-790h-245v790zM1105 1330h245l-750 -1330h-245zM1666 -8c-195.333 12.667 -381.336 13.001 -558.003 1.00098l91 145c122.667 196 184 319 184 369c0 19.333 -5.66699 36.666 -17 51.999s-23.666 23 -36.999 23s-27.166 -1.16699 -41.499 -3.5
s-28.833 -5.83301 -43.5 -10.5c-31.333 -11.333 -56.666 -25.333 -75.999 -42l-7 -1l5 229c38.667 26.667 108 40 208 40c78 0 143.333 -18.667 196 -56c55.333 -39.333 83 -92.333 83 -159c0 -92.667 -46.667 -218.667 -140 -378h156c46 0 76.333 5.66699 91 17l5 -2z" />
    <glyph glyph-name="threequarters" unicode="&#xbe;" horiz-adv-x="2214" 
d="M1314 1330h245l-750 -1330h-245zM1846 363c62.667 0 112 4.66699 148 14l3 -3l-62 -231h-110v-143h-245v143h-386l-20 44l311 583l340 -1v-406h21zM1580 363v237l-96 -237h96zM697 1054c40.667 -21.333 73.333 -50.167 98 -86.5s37 -74.833 37 -115.5
s-7.83301 -76.5 -23.5 -107.5s-38.167 -57.167 -67.5 -78.5c-60.667 -45.333 -143 -68 -247 -68c-119.333 0 -211.333 24.333 -276 73l-2 199l5 6c33.333 -33.333 96 -57.333 188 -72c26.667 -4.66699 52.667 -7 78 -7c76 0 114 21 114 63c0 16.667 -6.66699 30 -20 40
c-24.667 19.333 -48.5 29 -71.5 29s-39.833 -0.666992 -50.5 -2s-20.334 -2.66602 -29.001 -3.99902c-18.667 -2.66699 -29 -5 -31 -7l-3 5l5 155c20 10 50.333 15 91 15h1c34.667 13.333 52 31.666 52 54.999c0 44 -31.167 66 -93.5 66s-117.166 -14 -164.499 -42l-2 3
l-7 190c52 34.667 130 52 234 52c82 0 148.667 -17 200 -51c50.667 -34.667 76 -84 76 -148s-30.333 -118 -91 -162z" />
    <glyph glyph-name="questiondown" unicode="&#xbf;" horiz-adv-x="1026" 
d="M359 877c58 43.333 120.666 80.998 187.999 112.998c83.333 -32 125 -91.333 125 -178c0 -37.333 -9.66699 -71.666 -29 -102.999c-38.667 -60 -95 -121 -169 -183c-54 -45.333 -88.333 -78.666 -103 -99.999c-22 -32 -33 -61.667 -33 -89s5.66699 -50.5 17 -69.5
s27 -35.167 47 -48.5c40.667 -27.333 92 -41 154 -41c81.333 0 154.333 27.667 219 83c22 18.667 40 41.334 54 68.001l7 2c-2 -29.333 1 -59 9 -89l42 -150c-94.667 -89.333 -217 -134 -367 -134c-127.333 0 -233.666 36.333 -318.999 109
c-80 69.333 -120 152.333 -120 249c0 48 10 89.333 30 124c32.667 57.333 75.334 109.166 128.001 155.499s89 79.833 109 100.5s35 38 45 52c15.333 21.333 23 41.666 23 60.999s-5.83301 34.833 -17.5 46.5s-24.834 18.834 -39.501 21.501zM380.999 1093
c2.66699 33.333 4 75.832 4 127.499s-1.33301 89.167 -4 112.5h265c-5.33301 -41.333 -8 -82.166 -8 -122.499s2 -79.5 6 -117.5h-263z" />
    <glyph glyph-name="Agrave" unicode="&#xc0;" horiz-adv-x="1197" 
d="M269 -8c-57.333 5.33301 -124.333 8.00195 -201 8.00195h-79l435 1219c19.333 54.667 29 86.5 29 95.5s-0.333008 14.5 -1 16.5l1 2c43.333 -2 89.333 -3 138 -3c40 0 88 0.666992 144 2l1 -2c-1.33301 -2.66699 -2 -6.33398 -2 -11.001
c0 -12.667 10 -46.334 30 -101.001l444 -1221c-13.333 0.666992 -29 1 -47 1l-52 2h-45h-155l-94 288h-452zM737 528.002l-151 465l-147 -465h298zM354 1805c113.333 -11.333 220 -17 320 -17l169 -313h-226l-262 323z" />
    <glyph glyph-name="Aacute" unicode="&#xc1;" horiz-adv-x="1197" 
d="M269 -8c-57.333 5.33301 -124.333 8.00195 -201 8.00195h-79l435 1219c19.333 54.667 29 86.5 29 95.5s-0.333008 14.5 -1 16.5l1 2c43.333 -2 89.333 -3 138 -3c40 0 88 0.666992 144 2l1 -2c-1.33301 -2.66699 -2 -6.33398 -2 -11.001
c0 -12.667 10 -46.334 30 -101.001l444 -1221c-13.333 0.666992 -29 1 -47 1l-52 2h-45h-155l-94 288h-452zM737 528.002l-151 465l-147 -465h298zM523 1788c100 0 206.667 5.66699 320 17l-1 -7l-262 -323h-226z" />
    <glyph glyph-name="Acircumflex" unicode="&#xc2;" horiz-adv-x="1197" 
d="M269 -8c-57.333 5.33301 -124.333 8.00195 -201 8.00195h-79l435 1219c19.333 54.667 29 86.5 29 95.5s-0.333008 14.5 -1 16.5l1 2c43.333 -2 89.333 -3 138 -3c40 0 88 0.666992 144 2l1 -2c-1.33301 -2.66699 -2 -6.33398 -2 -11.001
c0 -12.667 10 -46.334 30 -101.001l444 -1221c-13.333 0.666992 -29 1 -47 1l-52 2h-45h-155l-94 288h-452zM737 528.002l-151 465l-147 -465h298zM497 1473c-143.333 0 -231 -1 -263 -3l-3 3l242 331c16 -2 38 -3 66 -3h51l121 3l255 -331l-4 -3l-255 3l-113 177z" />
    <glyph glyph-name="Atilde" unicode="&#xc3;" horiz-adv-x="1197" 
d="M269 -8c-57.333 5.33301 -124.333 8.00195 -201 8.00195h-79l435 1219c19.333 54.667 29 86.5 29 95.5s-0.333008 14.5 -1 16.5l1 2c43.333 -2 89.333 -3 138 -3c40 0 88 0.666992 144 2l1 -2c-1.33301 -2.66699 -2 -6.33398 -2 -11.001
c0 -12.667 10 -46.334 30 -101.001l444 -1221c-13.333 0.666992 -29 1 -47 1l-52 2h-45h-155l-94 288h-452zM737 528.002l-151 465l-147 -465h298zM435 1565c-62.667 0 -118.334 -25 -167.001 -75l-4 1l-4 199c45.333 53.333 107 80 185 80
c61.333 0 118.333 -18.167 171 -54.5s107 -54.5 163 -54.5c79.333 0 131.333 28 156 84l2 -2l-10 -216c-11.333 -20 -31.666 -36.5 -60.999 -49.5s-60 -19.5 -92 -19.5s-57.833 2.66699 -77.5 8s-37.834 12 -54.501 20s-32.167 16.5 -46.5 25.5s-29.5 17.5 -45.5 25.5
c-37.333 18.667 -75.666 28 -114.999 28z" />
    <glyph glyph-name="Adieresis" unicode="&#xc4;" horiz-adv-x="1197" 
d="M269 -8c-57.333 5.33301 -124.333 8.00195 -201 8.00195h-79l435 1219c19.333 54.667 29 86.5 29 95.5s-0.333008 14.5 -1 16.5l1 2c43.333 -2 89.333 -3 138 -3c40 0 88 0.666992 144 2l1 -2c-1.33301 -2.66699 -2 -6.33398 -2 -11.001
c0 -12.667 10 -46.334 30 -101.001l444 -1221c-13.333 0.666992 -29 1 -47 1l-52 2h-45h-155l-94 288h-452zM737 528.002l-151 465l-147 -465h298zM946 1715c-2.66699 -33.333 -4 -75.832 -4 -127.499s1.33301 -89.167 4 -112.5h-265c5.33301 41.333 8 82.166 8 122.499
s-2 79.5 -6 117.5h263zM516 1715c-2.66699 -33.333 -4 -75.832 -4 -127.499s1.33301 -89.167 4 -112.5h-265c5.33301 41.333 8 82.166 8 122.499s-2 79.5 -6 117.5h263z" />
    <glyph glyph-name="Aring" unicode="&#xc5;" horiz-adv-x="1197" 
d="M269 -8c-57.333 5.33301 -124.333 8.00195 -201 8.00195h-79l435 1219c19.333 54.667 29 86.5 29 95.5s-0.333008 14.5 -1 16.5l1 2c43.333 -2 89.333 -3 138 -3c40 0 88 0.666992 144 2l1 -2c-1.33301 -2.66699 -2 -6.33398 -2 -11.001
c0 -12.667 10 -46.334 30 -101.001l444 -1221c-13.333 0.666992 -29 1 -47 1l-52 2h-45h-155l-94 288h-452zM737 528.002l-151 465l-147 -465h298zM592 1367c-40.667 0 -77.668 5.33203 -111.001 15.999s-62 26 -86 46c-50.667 42 -76 99.333 -76 172
c0 71.333 25 129 75 173c50.667 46 121.334 69 212.001 69c80 0 145.333 -23 196 -69c50 -44.667 75 -100.667 75 -168c0 -73.333 -26.667 -131.666 -80 -174.999c-52 -42.667 -120.333 -64 -205 -64zM545.999 1516c15.333 -5.33301 31.833 -8.00098 49.5 -8.00098
s33.5 2.5 47.5 7.5s26.333 11.833 37 20.5c23.333 20 35 39.833 35 59.5s-2.5 35.334 -7.5 47.001s-12.5 22.167 -22.5 31.5c-22.667 22 -48.5 33 -77.5 33s-50.833 -3 -65.5 -9s-26.667 -14 -36 -24c-18.667 -18 -28 -37 -28 -57s2.5 -36 7.5 -48s12.5 -22.5 22.5 -31.5
s22.667 -16.167 38 -21.5z" />
    <glyph glyph-name="AE" unicode="&#xc6;" horiz-adv-x="1706" 
d="M279 -8c-72 5.33301 -143.668 8.00098 -215.001 8.00098h-79l702 1219l33 55c11.333 17.333 17 30.166 17 38.499s-0.666992 14.5 -2 18.5l1 2c42.667 -2 88.667 -3 138 -3h209h119l119 2c87.333 0.666992 176.333 2.66699 267 6c-7.33301 -58.667 -11 -137 -11 -235
c0 -10.667 0.666992 -18.667 2 -24l-2 -3c-35.333 10 -84.666 15 -147.999 15h-331v-255h262c73.333 0 117.333 2 132 6l3 -247c-32 3.33301 -73.333 5 -124 5h-273v-360h424c41.333 0 70 4 86 12l4 -1l-10 -251h-759l2 288h-407zM846.999 528.001l4 529l-284 -529h280z" />
    <glyph glyph-name="Ccedilla" unicode="&#xc7;" horiz-adv-x="1188" 
d="M790 -20c4.66699 -37.333 6.99805 -82.5 6.99805 -135.5s-7.5 -97.833 -22.5 -134.5s-32.167 -60.667 -51.5 -72c-39.333 -25.333 -111 -48.666 -215 -69.999l-6 6c32.667 46.667 54.667 146 66 298c2.66699 40.667 4 78 4 112
c-164.667 24.667 -293.667 99.334 -387 224.001c-88.667 119.333 -133 269.666 -133 450.999c0 215.333 60.667 385 182 509c122.667 124.667 294.334 187 515.001 187c137.333 0 250 -21.667 338 -65v-306l-2 -2c-37.333 57.333 -116 95.333 -236 114
c-35.333 6 -80 9 -134 9s-107 -10.167 -159 -30.5s-94.667 -49.166 -128 -86.499c-64.667 -72.667 -97 -176.334 -97 -311.001c0 -156.667 41 -273.334 123 -350.001c68 -64 158 -96 270 -96c126.667 0 229.334 27 308.001 81c28.667 19.333 53 43.333 73 72l3 -2v-280
c-81.333 -68 -187.333 -108.667 -318 -122z" />
    <glyph glyph-name="Egrave" unicode="&#xc8;" horiz-adv-x="1026" 
d="M841 240c41.333 0 69.999 4 85.999 12l4 -1l-10 -251h-749v1337c18 -1.33301 38 -2.33301 60 -3l70 -2c46.667 -1.33301 97.334 -2 152.001 -2c152.667 0 303.667 2.66699 453 8c-7.33301 -58.667 -11 -137 -11 -235c0 -10.667 0.666992 -18.667 2 -24l-2 -3
c-34.667 10 -84 15 -148 15h-315v-255h237c73.333 0 117.333 2 132 6l3 -247c-32 3.33301 -73.333 5 -124 5h-248v-360h408zM291.999 1805c113.333 -11.333 220 -17 320 -17l169 -313h-226l-262 323z" />
    <glyph glyph-name="Eacute" unicode="&#xc9;" horiz-adv-x="1026" 
d="M841 240c41.333 0 69.999 4 85.999 12l4 -1l-10 -251h-749v1337c18 -1.33301 38 -2.33301 60 -3l70 -2c46.667 -1.33301 97.334 -2 152.001 -2c152.667 0 303.667 2.66699 453 8c-7.33301 -58.667 -11 -137 -11 -235c0 -10.667 0.666992 -18.667 2 -24l-2 -3
c-34.667 10 -84 15 -148 15h-315v-255h237c73.333 0 117.333 2 132 6l3 -247c-32 3.33301 -73.333 5 -124 5h-248v-360h408zM460.999 1788c100 0 206.667 5.66699 320 17l-1 -7l-262 -323h-226z" />
    <glyph glyph-name="Ecircumflex" unicode="&#xca;" horiz-adv-x="1026" 
d="M841 240c41.333 0 69.999 4 85.999 12l4 -1l-10 -251h-749v1337c18 -1.33301 38 -2.33301 60 -3l70 -2c46.667 -1.33301 97.334 -2 152.001 -2c152.667 0 303.667 2.66699 453 8c-7.33301 -58.667 -11 -137 -11 -235c0 -10.667 0.666992 -18.667 2 -24l-2 -3
c-34.667 10 -84 15 -148 15h-315v-255h237c73.333 0 117.333 2 132 6l3 -247c-32 3.33301 -73.333 5 -124 5h-248v-360h408zM434.999 1473c-143.333 0 -231 -1 -263 -3l-3 3l242 331c16 -2 38 -3 66 -3h51l121 3l255 -331l-4 -3l-255 3l-113 177z" />
    <glyph glyph-name="Edieresis" unicode="&#xcb;" horiz-adv-x="1026" 
d="M841 240c41.333 0 69.999 4 85.999 12l4 -1l-10 -251h-749v1337c18 -1.33301 38 -2.33301 60 -3l70 -2c46.667 -1.33301 97.334 -2 152.001 -2c152.667 0 303.667 2.66699 453 8c-7.33301 -58.667 -11 -137 -11 -235c0 -10.667 0.666992 -18.667 2 -24l-2 -3
c-34.667 10 -84 15 -148 15h-315v-255h237c73.333 0 117.333 2 132 6l3 -247c-32 3.33301 -73.333 5 -124 5h-248v-360h408zM883.999 1715c-2.66699 -33.333 -4 -75.832 -4 -127.499s1.33301 -89.167 4 -112.5h-265c5.33301 41.333 8 82.166 8 122.499s-2 79.5 -6 117.5h263
zM453.999 1715c-2.66699 -33.333 -4 -75.832 -4 -127.499s1.33301 -89.167 4 -112.5h-265c5.33301 41.333 8 82.166 8 122.499s-2 79.5 -6 117.5h263z" />
    <glyph glyph-name="Igrave" unicode="&#xcc;" horiz-adv-x="684" 
d="M203 1334c66.667 -2.66699 107.001 -4 121.001 -4h72c35.333 0 63.666 2.66699 84.999 8l-1 -1338h-277v1334zM86.001 1805c113.333 -11.333 220 -17 320 -17l169 -313h-226l-262 323z" />
    <glyph glyph-name="Iacute" unicode="&#xcd;" horiz-adv-x="684" 
d="M203 1334c66.667 -2.66699 107.001 -4 121.001 -4h72c35.333 0 63.666 2.66699 84.999 8l-1 -1338h-277v1334zM255.001 1788c100 0 206.667 5.66699 320 17l-1 -7l-262 -323h-226z" />
    <glyph glyph-name="Icircumflex" unicode="&#xce;" horiz-adv-x="684" 
d="M203 1334c66.667 -2.66699 107.001 -4 121.001 -4h72c35.333 0 63.666 2.66699 84.999 8l-1 -1338h-277v1334zM229.001 1473c-143.333 0 -231 -1 -263 -3l-3 3l242 331c16 -2 38 -3 66 -3h51l121 3l255 -331l-4 -3l-255 3l-113 177z" />
    <glyph glyph-name="Idieresis" unicode="&#xcf;" horiz-adv-x="684" 
d="M203 1334c66.667 -2.66699 107.001 -4 121.001 -4h72c35.333 0 63.666 2.66699 84.999 8l-1 -1338h-277v1334zM678.001 1715c-2.66699 -33.333 -4 -75.832 -4 -127.499s1.33301 -89.167 4 -112.5h-265c5.33301 41.333 8 82.166 8 122.499s-2 79.5 -6 117.5h263z
M248.001 1715c-2.66699 -33.333 -4 -75.832 -4 -127.499s1.33301 -89.167 4 -112.5h-265c5.33301 41.333 8 82.166 8 122.499s-2 79.5 -6 117.5h263z" />
    <glyph glyph-name="Eth" unicode="&#xd0;" horiz-adv-x="1364" 
d="M496 -25c-108 0 -209.665 8.66797 -304.998 26.001v547h-99v236h99v555c88 10.667 190.167 16 306.5 16s221.666 -15.833 315.999 -47.5s173.166 -76.834 236.499 -135.501c128 -117.333 192 -281.666 192 -492.999c0 -236.667 -71.333 -416.334 -214 -539.001
c-128 -110 -305.333 -165 -532 -165zM451.002 219.001c43.333 -8 86.666 -12.001 129.999 -12.001s90 8.5 140 25.5s93.333 43.5 130 79.5c78.667 76 118 186.667 118 332c0 238.667 -87 385.334 -261 440.001c-57.333 18 -123.666 27 -198.999 27h-27
c-10 0 -20.333 -0.333008 -31 -1v-326h300v-236h-300v-329z" />
    <glyph glyph-name="Ntilde" unicode="&#xd1;" horiz-adv-x="1359" 
d="M181 0c4 22.667 6 47.332 6 73.999v1256h200l530 -834v766c0 36.667 -3.33301 59.334 -10 68.001h270c-3.33301 -26.667 -5 -56 -5 -88v-1242h-208l-522 801v-801h-261zM516 1565c-62.667 0 -118.334 -25 -167.001 -75l-4 1l-4 199c45.333 53.333 107 80 185 80
c61.333 0 118.333 -18.167 171 -54.5s107 -54.5 163 -54.5c79.333 0 131.333 28 156 84l2 -2l-10 -216c-11.333 -20 -31.666 -36.5 -60.999 -49.5s-60 -19.5 -92 -19.5s-57.833 2.66699 -77.5 8s-37.834 12 -54.501 20s-32.167 16.5 -46.5 25.5s-29.5 17.5 -45.5 25.5
c-37.333 18.667 -75.666 28 -114.999 28z" />
    <glyph glyph-name="Ograve" unicode="&#xd2;" horiz-adv-x="1535" 
d="M137.5 367c-35 81.333 -52.499 170.499 -52.499 267.499s16.333 188.833 49 275.5s79.334 163 140.001 229s134 118.5 220 157.5s182.333 58.5 289 58.5c184 0 339 -58 465 -174c134.667 -124 202 -291.333 202 -502c0 -204 -69.333 -373.667 -208 -509
c-85.333 -83.333 -187 -140.666 -305 -171.999c-58 -15.333 -125.833 -23 -203.5 -23s-157.334 16 -239.001 48s-152.834 77 -213.501 135s-108.5 127.667 -143.5 209zM363.001 647.999c0 -62 10.3311 -119.001 30.998 -171.001s49.334 -96.667 86.001 -134
c78 -78.667 178.333 -118 301 -118c116.667 0 210.334 37.667 281.001 113c72 78 108 184.333 108 319c0 126.667 -34.333 232.334 -103 317.001c-74 90.667 -175.333 136 -304 136c-124.667 0 -223.667 -46 -297 -138c-68.667 -86 -103 -194 -103 -324zM522.999 1805
c113.333 -11.333 220 -17 320 -17l169 -313h-226l-262 323z" />
    <glyph glyph-name="Oacute" unicode="&#xd3;" horiz-adv-x="1535" 
d="M137.5 367c-35 81.333 -52.499 170.499 -52.499 267.499s16.333 188.833 49 275.5s79.334 163 140.001 229s134 118.5 220 157.5s182.333 58.5 289 58.5c184 0 339 -58 465 -174c134.667 -124 202 -291.333 202 -502c0 -204 -69.333 -373.667 -208 -509
c-85.333 -83.333 -187 -140.666 -305 -171.999c-58 -15.333 -125.833 -23 -203.5 -23s-157.334 16 -239.001 48s-152.834 77 -213.501 135s-108.5 127.667 -143.5 209zM363.001 647.999c0 -62 10.3311 -119.001 30.998 -171.001s49.334 -96.667 86.001 -134
c78 -78.667 178.333 -118 301 -118c116.667 0 210.334 37.667 281.001 113c72 78 108 184.333 108 319c0 126.667 -34.333 232.334 -103 317.001c-74 90.667 -175.333 136 -304 136c-124.667 0 -223.667 -46 -297 -138c-68.667 -86 -103 -194 -103 -324zM691.999 1788
c100 0 206.667 5.66699 320 17l-1 -7l-262 -323h-226z" />
    <glyph glyph-name="Ocircumflex" unicode="&#xd4;" horiz-adv-x="1535" 
d="M137.5 367c-35 81.333 -52.499 170.499 -52.499 267.499s16.333 188.833 49 275.5s79.334 163 140.001 229s134 118.5 220 157.5s182.333 58.5 289 58.5c184 0 339 -58 465 -174c134.667 -124 202 -291.333 202 -502c0 -204 -69.333 -373.667 -208 -509
c-85.333 -83.333 -187 -140.666 -305 -171.999c-58 -15.333 -125.833 -23 -203.5 -23s-157.334 16 -239.001 48s-152.834 77 -213.501 135s-108.5 127.667 -143.5 209zM363.001 647.999c0 -62 10.3311 -119.001 30.998 -171.001s49.334 -96.667 86.001 -134
c78 -78.667 178.333 -118 301 -118c116.667 0 210.334 37.667 281.001 113c72 78 108 184.333 108 319c0 126.667 -34.333 232.334 -103 317.001c-74 90.667 -175.333 136 -304 136c-124.667 0 -223.667 -46 -297 -138c-68.667 -86 -103 -194 -103 -324zM665.999 1473
c-143.333 0 -231 -1 -263 -3l-3 3l242 331c16 -2 38 -3 66 -3h51l121 3l255 -331l-4 -3l-255 3l-113 177z" />
    <glyph glyph-name="Otilde" unicode="&#xd5;" horiz-adv-x="1535" 
d="M137.5 367c-35 81.333 -52.499 170.499 -52.499 267.499s16.333 188.833 49 275.5s79.334 163 140.001 229s134 118.5 220 157.5s182.333 58.5 289 58.5c184 0 339 -58 465 -174c134.667 -124 202 -291.333 202 -502c0 -204 -69.333 -373.667 -208 -509
c-85.333 -83.333 -187 -140.666 -305 -171.999c-58 -15.333 -125.833 -23 -203.5 -23s-157.334 16 -239.001 48s-152.834 77 -213.501 135s-108.5 127.667 -143.5 209zM363.001 647.999c0 -62 10.3311 -119.001 30.998 -171.001s49.334 -96.667 86.001 -134
c78 -78.667 178.333 -118 301 -118c116.667 0 210.334 37.667 281.001 113c72 78 108 184.333 108 319c0 126.667 -34.333 232.334 -103 317.001c-74 90.667 -175.333 136 -304 136c-124.667 0 -223.667 -46 -297 -138c-68.667 -86 -103 -194 -103 -324zM603.999 1565
c-62.667 0 -118.334 -25 -167.001 -75l-4 1l-4 199c45.333 53.333 107 80 185 80c61.333 0 118.333 -18.167 171 -54.5s107 -54.5 163 -54.5c79.333 0 131.333 28 156 84l2 -2l-10 -216c-11.333 -20 -31.666 -36.5 -60.999 -49.5s-60 -19.5 -92 -19.5
s-57.833 2.66699 -77.5 8s-37.834 12 -54.501 20s-32.167 16.5 -46.5 25.5s-29.5 17.5 -45.5 25.5c-37.333 18.667 -75.666 28 -114.999 28z" />
    <glyph glyph-name="Odieresis" unicode="&#xd6;" horiz-adv-x="1535" 
d="M137.5 367c-35 81.333 -52.499 170.499 -52.499 267.499s16.333 188.833 49 275.5s79.334 163 140.001 229s134 118.5 220 157.5s182.333 58.5 289 58.5c184 0 339 -58 465 -174c134.667 -124 202 -291.333 202 -502c0 -204 -69.333 -373.667 -208 -509
c-85.333 -83.333 -187 -140.666 -305 -171.999c-58 -15.333 -125.833 -23 -203.5 -23s-157.334 16 -239.001 48s-152.834 77 -213.501 135s-108.5 127.667 -143.5 209zM363.001 647.999c0 -62 10.3311 -119.001 30.998 -171.001s49.334 -96.667 86.001 -134
c78 -78.667 178.333 -118 301 -118c116.667 0 210.334 37.667 281.001 113c72 78 108 184.333 108 319c0 126.667 -34.333 232.334 -103 317.001c-74 90.667 -175.333 136 -304 136c-124.667 0 -223.667 -46 -297 -138c-68.667 -86 -103 -194 -103 -324zM1115 1715
c-2.66699 -33.333 -4 -75.832 -4 -127.499s1.33301 -89.167 4 -112.5h-265c5.33301 41.333 8 82.166 8 122.499s-2 79.5 -6 117.5h263zM684.999 1715c-2.66699 -33.333 -4 -75.832 -4 -127.499s1.33301 -89.167 4 -112.5h-265c5.33301 41.333 8 82.166 8 122.499
s-2 79.5 -6 117.5h263z" />
    <glyph glyph-name="multiply" unicode="&#xd7;" horiz-adv-x="1364" 
d="M271 384c15.333 8.66699 47.666 38.332 96.999 88.999l142 142l-135 136c-49.333 50.667 -81.666 80.334 -96.999 89.001l172 177c25.333 -30 53.666 -60.333 84.999 -91l143 -143l142 142c50.667 49.333 80.334 81.666 89.001 96.999l177 -172
c-30 -25.333 -60.333 -53.666 -91 -84.999l-150 -150l157 -156c30.667 -31.333 61 -59.666 91 -84.999l-177 -172c-8.66699 15.333 -38.334 47.666 -89.001 96.999l-149 149l-150 -150c-31.333 -30.667 -59.666 -61 -84.999 -91z" />
    <glyph glyph-name="Oslash" unicode="&#xd8;" horiz-adv-x="1535" 
d="M730 -25c-80 0 -162.667 17.6641 -248 52.9971l-116 -198h-196l165 282c-76.667 58.667 -137.5 132.334 -182.5 221.001s-67.5 185.334 -67.5 290.001s16.333 200.334 49 287.001s79.334 163 140.001 229s134 118.5 220 157.5s178 58.5 276 58.5s186.667 -15 266 -45
l128 220h196l-175 -299c176.667 -126 265 -310 265 -552c0 -204 -69.333 -373.667 -208 -509c-132.667 -130 -303.334 -195 -512.001 -195zM905 1087c-44 15.333 -95 23 -153 23s-111.833 -12.5 -161.5 -37.5s-91.167 -58.5 -124.5 -100.5c-68.667 -86 -103 -194 -103 -324
c0 -120.667 37 -220 111 -298zM615 254.997c54 -20 109.499 -30 166.499 -30s109.333 9.66699 157 29s88.834 47.333 123.501 84c72 78 108 184.333 108 319c0 139.333 -41 252 -123 338z" />
    <glyph glyph-name="Ugrave" unicode="&#xd9;" horiz-adv-x="1368" 
d="M930 1335c41.333 -3.33301 75.667 -5.00098 103 -5.00098h83c28 0 57.333 2.66699 88 8v-827c0 -164 -49.667 -295.667 -149 -395c-94 -94 -212 -141 -354 -141c-155.333 0 -281 40.333 -377 121c-107.333 90.667 -161 221.334 -161 392.001v847
c55.333 -3.33301 107.5 -5 156.5 -5s89.5 2.66699 121.5 8v-863c0 -84 25.667 -149.333 77 -196c48 -42.667 108 -64 180 -64c106.667 0 177.667 54.667 213 164c12.667 39.333 19 88 19 146v810zM439.001 1805c113.333 -11.333 220 -17 320 -17l169 -313h-226l-262 323z
" />
    <glyph glyph-name="Uacute" unicode="&#xda;" horiz-adv-x="1368" 
d="M930 1335c41.333 -3.33301 75.667 -5.00098 103 -5.00098h83c28 0 57.333 2.66699 88 8v-827c0 -164 -49.667 -295.667 -149 -395c-94 -94 -212 -141 -354 -141c-155.333 0 -281 40.333 -377 121c-107.333 90.667 -161 221.334 -161 392.001v847
c55.333 -3.33301 107.5 -5 156.5 -5s89.5 2.66699 121.5 8v-863c0 -84 25.667 -149.333 77 -196c48 -42.667 108 -64 180 -64c106.667 0 177.667 54.667 213 164c12.667 39.333 19 88 19 146v810zM608.001 1788c100 0 206.667 5.66699 320 17l-1 -7l-262 -323h-226z" />
    <glyph glyph-name="Ucircumflex" unicode="&#xdb;" horiz-adv-x="1368" 
d="M930 1335c41.333 -3.33301 75.667 -5.00098 103 -5.00098h83c28 0 57.333 2.66699 88 8v-827c0 -164 -49.667 -295.667 -149 -395c-94 -94 -212 -141 -354 -141c-155.333 0 -281 40.333 -377 121c-107.333 90.667 -161 221.334 -161 392.001v847
c55.333 -3.33301 107.5 -5 156.5 -5s89.5 2.66699 121.5 8v-863c0 -84 25.667 -149.333 77 -196c48 -42.667 108 -64 180 -64c106.667 0 177.667 54.667 213 164c12.667 39.333 19 88 19 146v810zM582.001 1473c-143.333 0 -231 -1 -263 -3l-3 3l242 331c16 -2 38 -3 66 -3
h51l121 3l255 -331l-4 -3l-255 3l-113 177z" />
    <glyph glyph-name="Udieresis" unicode="&#xdc;" horiz-adv-x="1368" 
d="M930 1335c41.333 -3.33301 75.667 -5.00098 103 -5.00098h83c28 0 57.333 2.66699 88 8v-827c0 -164 -49.667 -295.667 -149 -395c-94 -94 -212 -141 -354 -141c-155.333 0 -281 40.333 -377 121c-107.333 90.667 -161 221.334 -161 392.001v847
c55.333 -3.33301 107.5 -5 156.5 -5s89.5 2.66699 121.5 8v-863c0 -84 25.667 -149.333 77 -196c48 -42.667 108 -64 180 -64c106.667 0 177.667 54.667 213 164c12.667 39.333 19 88 19 146v810zM1031 1715c-2.66699 -33.333 -4 -75.832 -4 -127.499
s1.33301 -89.167 4 -112.5h-265c5.33301 41.333 8 82.166 8 122.499s-2 79.5 -6 117.5h263zM601.001 1715c-2.66699 -33.333 -4 -75.832 -4 -127.499s1.33301 -89.167 4 -112.5h-265c5.33301 41.333 8 82.166 8 122.499s-2 79.5 -6 117.5h263z" />
    <glyph glyph-name="Yacute" unicode="&#xdd;" 
d="M451 0c8.66699 26 12.999 86.668 12.999 182.001v278c-115.333 254 -189 412.5 -221 475.5s-59 112.833 -81 149.5c-69.333 117.333 -111.166 184.666 -125.499 201.999s-28.833 31.666 -43.5 42.999h345c7.33301 -13.333 17.333 -33 30 -59l242 -511
c11.333 28 24.666 59.333 39.999 94c145.333 312.667 219 471.334 221 476.001h330c-34 -27.333 -75.667 -84.666 -125 -171.999c-15.333 -26 -30.666 -55.667 -45.999 -89l-226 -471c-25.333 -56.667 -47 -107.667 -65 -153v-287c0 -66.667 4 -119.334 12 -158.001h-300z
M520.999 1788c100 0 206.667 5.66699 320 17l-1 -7l-262 -323h-226z" />
    <glyph glyph-name="Thorn" unicode="&#xde;" 
d="M738.5 223c-71.667 -20.667 -137.332 -31.001 -196.999 -31.001s-97.834 1 -114.501 3v-195h-255v1330h255v-196c206 0 366.333 -44 481 -132c109.333 -84 164 -197 164 -339c0 -151.333 -50.667 -267.666 -152 -348.999c-49.333 -40 -109.833 -70.333 -181.5 -91z
M628.502 883.499c-38.333 13.667 -75.832 20.5 -112.499 20.5s-66.334 -1.33301 -89.001 -4v-476c26 -2 49.667 -3 71 -3c97.333 0 173 19 227 57s81 92.667 81 164c0 76.667 -26.667 138.667 -80 186c-26.667 23.333 -59.167 41.833 -97.5 55.5z" />
    <glyph glyph-name="germandbls" unicode="&#xdf;" 
d="M774 213c107.333 0 160.995 48.665 160.995 145.998c0 61.333 -63.333 123.666 -190 186.999c-76.667 45.333 -126.667 82.333 -150 111c-38.667 46.667 -58 91.334 -58 134.001s7 79.334 21 110.001s33 59.167 57 85.5s40.833 46.833 50.5 61.5s17.167 28 22.5 40
c10 21.333 15 40 15 56s-2.83301 29 -8.5 39s-13.834 19 -24.501 27c-24 17.333 -53.167 26 -87.5 26s-64 -5.83301 -89 -17.5s-46.5 -32.5 -64.5 -62.5c-38 -62 -57 -164.333 -57 -307v-894c0 -101.333 -7.33301 -173.666 -22 -216.999
c-23.333 -69.333 -53.666 -117.666 -90.999 -144.999l-201 131v5c30.667 20.667 50 69.334 58 146.001c7.33301 66.667 11 198.667 11 396v539c0 423.333 158.333 635 475 635c98.667 0 181.334 -27 248.001 -81s100 -121.333 100 -202c0 -54.667 -18.667 -106.667 -56 -156
c-14.667 -19.333 -30.667 -37.833 -48 -55.5s-29.666 -30.834 -36.999 -39.501s-13 -16.334 -17 -23.001c-7.33301 -13.333 -11 -25 -11 -35s2.83301 -19.5 8.5 -28.5s15.834 -19.833 30.501 -32.5c32.667 -28 76.334 -58.833 131.001 -92.5s95.834 -64.167 123.501 -91.5
s49.5 -56 65.5 -86c28 -52.667 42 -109.5 42 -170.5s-8 -111.5 -24 -151.5s-40 -76 -72 -108c-71.333 -71.333 -168.333 -107 -291 -107c-110 0 -192.667 18.333 -248 55l-10 250l4 5c33.333 -32.667 69 -54.5 107 -65.5s80 -16.5 126 -16.5z" />
    <glyph glyph-name="agrave" unicode="&#xe0;" 
d="M837 62c-94.667 -51.333 -180.332 -77 -256.999 -77s-142.334 7.16699 -197.001 21.5s-101 35.5 -139 63.5c-77.333 56.667 -116 138.667 -116 246c0 96 47.333 176 142 240c102.667 69.333 242 104 418 104l40 -1c8 -0.666992 17 -1.16699 27 -1.5
s19 -1.16602 27 -2.49902c-5.33301 106.667 -51.333 169 -138 187c-28.667 6 -59.167 9 -91.5 9s-64 -2.83301 -95 -8.5s-61.167 -13.167 -90.5 -22.5c-64.667 -20.667 -111 -44.334 -139 -71.001l-3 2l-30 221c118 62 247 93 387 93c217.333 0 356.333 -78.333 417 -235
c19.333 -50 29 -106.333 29 -169v-362c0 -77.333 27.333 -130 82 -158l-181 -166c-38 20 -68.667 49 -92 87zM783.002 475c-18 3.33301 -36.666 4.99805 -55.999 4.99805h-40c-147.333 0 -241 -32.667 -281 -98c-12 -19.333 -18 -39.666 -18 -60.999
s3.83301 -40.166 11.5 -56.499s20.5 -29.833 38.5 -40.5c34.667 -20 86.167 -30 154.5 -30s132.166 16.333 191.499 49c-0.666992 7.33301 -1 15 -1 23v209zM280.003 1520c113.333 -11.333 220 -17 320 -17l169 -313h-226l-262 323z" />
    <glyph glyph-name="aacute" unicode="&#xe1;" 
d="M837 62c-94.667 -51.333 -180.332 -77 -256.999 -77s-142.334 7.16699 -197.001 21.5s-101 35.5 -139 63.5c-77.333 56.667 -116 138.667 -116 246c0 96 47.333 176 142 240c102.667 69.333 242 104 418 104l40 -1c8 -0.666992 17 -1.16699 27 -1.5
s19 -1.16602 27 -2.49902c-5.33301 106.667 -51.333 169 -138 187c-28.667 6 -59.167 9 -91.5 9s-64 -2.83301 -95 -8.5s-61.167 -13.167 -90.5 -22.5c-64.667 -20.667 -111 -44.334 -139 -71.001l-3 2l-30 221c118 62 247 93 387 93c217.333 0 356.333 -78.333 417 -235
c19.333 -50 29 -106.333 29 -169v-362c0 -77.333 27.333 -130 82 -158l-181 -166c-38 20 -68.667 49 -92 87zM783.002 475c-18 3.33301 -36.666 4.99805 -55.999 4.99805h-40c-147.333 0 -241 -32.667 -281 -98c-12 -19.333 -18 -39.666 -18 -60.999
s3.83301 -40.166 11.5 -56.499s20.5 -29.833 38.5 -40.5c34.667 -20 86.167 -30 154.5 -30s132.166 16.333 191.499 49c-0.666992 7.33301 -1 15 -1 23v209zM569.003 1503c100 0 206.667 5.66699 320 17l-1 -7l-262 -323h-226z" />
    <glyph glyph-name="acircumflex" unicode="&#xe2;" 
d="M837 62c-94.667 -51.333 -180.332 -77 -256.999 -77s-142.334 7.16699 -197.001 21.5s-101 35.5 -139 63.5c-77.333 56.667 -116 138.667 -116 246c0 96 47.333 176 142 240c102.667 69.333 242 104 418 104l40 -1c8 -0.666992 17 -1.16699 27 -1.5
s19 -1.16602 27 -2.49902c-5.33301 106.667 -51.333 169 -138 187c-28.667 6 -59.167 9 -91.5 9s-64 -2.83301 -95 -8.5s-61.167 -13.167 -90.5 -22.5c-64.667 -20.667 -111 -44.334 -139 -71.001l-3 2l-30 221c118 62 247 93 387 93c217.333 0 356.333 -78.333 417 -235
c19.333 -50 29 -106.333 29 -169v-362c0 -77.333 27.333 -130 82 -158l-181 -166c-38 20 -68.667 49 -92 87zM783.002 475c-18 3.33301 -36.666 4.99805 -55.999 4.99805h-40c-147.333 0 -241 -32.667 -281 -98c-12 -19.333 -18 -39.666 -18 -60.999
s3.83301 -40.166 11.5 -56.499s20.5 -29.833 38.5 -40.5c34.667 -20 86.167 -30 154.5 -30s132.166 16.333 191.499 49c-0.666992 7.33301 -1 15 -1 23v209zM483.003 1188c-143.333 0 -231 -1 -263 -3l-3 3l242 331c16 -2 38 -3 66 -3h51l121 3l255 -331l-4 -3l-255 3
l-113 177z" />
    <glyph glyph-name="atilde" unicode="&#xe3;" 
d="M837 62c-94.667 -51.333 -180.332 -77 -256.999 -77s-142.334 7.16699 -197.001 21.5s-101 35.5 -139 63.5c-77.333 56.667 -116 138.667 -116 246c0 96 47.333 176 142 240c102.667 69.333 242 104 418 104l40 -1c8 -0.666992 17 -1.16699 27 -1.5
s19 -1.16602 27 -2.49902c-5.33301 106.667 -51.333 169 -138 187c-28.667 6 -59.167 9 -91.5 9s-64 -2.83301 -95 -8.5s-61.167 -13.167 -90.5 -22.5c-64.667 -20.667 -111 -44.334 -139 -71.001l-3 2l-30 221c118 62 247 93 387 93c217.333 0 356.333 -78.333 417 -235
c19.333 -50 29 -106.333 29 -169v-362c0 -77.333 27.333 -130 82 -158l-181 -166c-38 20 -68.667 49 -92 87zM783.002 475c-18 3.33301 -36.666 4.99805 -55.999 4.99805h-40c-147.333 0 -241 -32.667 -281 -98c-12 -19.333 -18 -39.666 -18 -60.999
s3.83301 -40.166 11.5 -56.499s20.5 -29.833 38.5 -40.5c34.667 -20 86.167 -30 154.5 -30s132.166 16.333 191.499 49c-0.666992 7.33301 -1 15 -1 23v209zM421.003 1280c-62.667 0 -118.334 -25 -167.001 -75l-4 1l-4 199c45.333 53.333 107 80 185 80
c61.333 0 118.333 -18.167 171 -54.5s107 -54.5 163 -54.5c79.333 0 131.333 28 156 84l2 -2l-10 -216c-11.333 -20 -31.666 -36.5 -60.999 -49.5s-60 -19.5 -92 -19.5s-57.833 2.66699 -77.5 8s-37.834 12 -54.501 20s-32.167 16.5 -46.5 25.5s-29.5 17.5 -45.5 25.5
c-37.333 18.667 -75.666 28 -114.999 28z" />
    <glyph glyph-name="adieresis" unicode="&#xe4;" 
d="M837 62c-94.667 -51.333 -180.332 -77 -256.999 -77s-142.334 7.16699 -197.001 21.5s-101 35.5 -139 63.5c-77.333 56.667 -116 138.667 -116 246c0 96 47.333 176 142 240c102.667 69.333 242 104 418 104l40 -1c8 -0.666992 17 -1.16699 27 -1.5
s19 -1.16602 27 -2.49902c-5.33301 106.667 -51.333 169 -138 187c-28.667 6 -59.167 9 -91.5 9s-64 -2.83301 -95 -8.5s-61.167 -13.167 -90.5 -22.5c-64.667 -20.667 -111 -44.334 -139 -71.001l-3 2l-30 221c118 62 247 93 387 93c217.333 0 356.333 -78.333 417 -235
c19.333 -50 29 -106.333 29 -169v-362c0 -77.333 27.333 -130 82 -158l-181 -166c-38 20 -68.667 49 -92 87zM783.002 475c-18 3.33301 -36.666 4.99805 -55.999 4.99805h-40c-147.333 0 -241 -32.667 -281 -98c-12 -19.333 -18 -39.666 -18 -60.999
s3.83301 -40.166 11.5 -56.499s20.5 -29.833 38.5 -40.5c34.667 -20 86.167 -30 154.5 -30s132.166 16.333 191.499 49c-0.666992 7.33301 -1 15 -1 23v209zM932.003 1430c-2.66699 -33.333 -4 -75.832 -4 -127.499s1.33301 -89.167 4 -112.5h-265
c5.33301 41.333 8 82.166 8 122.499s-2 79.5 -6 117.5h263zM502.003 1430c-2.66699 -33.333 -4 -75.832 -4 -127.499s1.33301 -89.167 4 -112.5h-265c5.33301 41.333 8 82.166 8 122.499s-2 79.5 -6 117.5h263z" />
    <glyph glyph-name="aring" unicode="&#xe5;" 
d="M837 62c-94.667 -51.333 -180.332 -77 -256.999 -77s-142.334 7.16699 -197.001 21.5s-101 35.5 -139 63.5c-77.333 56.667 -116 138.667 -116 246c0 96 47.333 176 142 240c102.667 69.333 242 104 418 104l40 -1c8 -0.666992 17 -1.16699 27 -1.5
s19 -1.16602 27 -2.49902c-5.33301 106.667 -51.333 169 -138 187c-28.667 6 -59.167 9 -91.5 9s-64 -2.83301 -95 -8.5s-61.167 -13.167 -90.5 -22.5c-64.667 -20.667 -111 -44.334 -139 -71.001l-3 2l-30 221c118 62 247 93 387 93c217.333 0 356.333 -78.333 417 -235
c19.333 -50 29 -106.333 29 -169v-362c0 -77.333 27.333 -130 82 -158l-181 -166c-38 20 -68.667 49 -92 87zM783.002 475c-18 3.33301 -36.666 4.99805 -55.999 4.99805h-40c-147.333 0 -241 -32.667 -281 -98c-12 -19.333 -18 -39.666 -18 -60.999
s3.83301 -40.166 11.5 -56.499s20.5 -29.833 38.5 -40.5c34.667 -20 86.167 -30 154.5 -30s132.166 16.333 191.499 49c-0.666992 7.33301 -1 15 -1 23v209zM578.003 1180c-40.667 0 -77.668 5.33203 -111.001 15.999s-62 26 -86 46c-50.667 42 -76 99.333 -76 172
c0 71.333 25 129.333 75 174c50.667 45.333 121.334 68 212.001 68c80 0 145.333 -23 196 -69c50 -44.667 75 -100.667 75 -168c0 -73.333 -26.667 -131.666 -80 -174.999c-52 -42.667 -120.333 -64 -205 -64zM532.002 1329c15.333 -5.33301 31.833 -8.00098 49.5 -8.00098
s33.5 2.5 47.5 7.5s26.333 12.167 37 21.5c23.333 19.333 35 38.833 35 58.5s-2.5 35.334 -7.5 47.001s-12.5 22.5 -22.5 32.5c-22.667 21.333 -48.5 32 -77.5 32s-50.833 -3 -65.5 -9s-26.667 -13.667 -36 -23c-18.667 -18.667 -28 -38 -28 -58s2.5 -36 7.5 -48
s12.5 -22.5 22.5 -31.5s22.667 -16.167 38 -21.5z" />
    <glyph glyph-name="ae" unicode="&#xe6;" horiz-adv-x="1877" 
d="M892 104c-102.667 -79.333 -225.67 -119.001 -369.003 -119.001c-122 0 -219.333 33 -292 99c-70.667 64.667 -106 147.334 -106 248.001c0 110 49.667 202 149 276c101.333 75.333 228 113 380 113c20 0 35.667 -1 47 -3c-24.667 94 -95 141 -211 141
c-78 0 -150 -27.667 -216 -83c-20.667 -17.333 -38.667 -36.333 -54 -57l-3 2l-30 231c95.333 75.333 213.5 113 354.5 113s250.833 -49.667 329.5 -149c102 99.333 237.667 149 407 149c134.667 0 248 -45 340 -135c92.667 -90 139 -206 139 -348
c0 -38.667 -4 -74 -12 -106c-74 -20 -213 -30 -417 -30h-166.5c-48.333 0 -88.666 0.166992 -120.999 0.5s-59.5 0.5 -81.5 0.5c17.333 -72 58.333 -127.833 123 -167.5s155.667 -59.5 273 -59.5s219.333 35.333 306 106c-3.33301 -74 -8.33301 -161.667 -15 -263
c-53.333 -34.667 -134.666 -58.667 -243.999 -72c-33.333 -4 -66 -6 -98 -6c-171.333 0 -308.666 39.667 -411.999 119zM977.997 665.999c18 -0.666992 39.334 -1.33398 64.001 -2.00098h73c24.667 -0.666992 48.334 -1 71.001 -1h54c37.333 0 74.666 0.333008 111.999 1
l92 3c24 0.666992 45.333 1.66699 64 3c-22.667 76 -79.334 127 -170.001 153c-28.667 8 -58.5 12 -89.5 12s-60 -4 -87 -12s-52.167 -19 -75.5 -33c-47.333 -29.333 -83.333 -70.666 -108 -123.999zM764.998 270.999c-38.667 65.333 -57.999 145.665 -57.999 240.998
c-13.333 2 -36 3 -68 3s-65.833 -4 -101.5 -12s-66.167 -19 -91.5 -33c-50.667 -29.333 -76 -67.666 -76 -114.999s16.167 -85.166 48.5 -113.499s73.166 -42.5 122.499 -42.5c92 0 166.667 24 224 72z" />
    <glyph glyph-name="ccedilla" unicode="&#xe7;" horiz-adv-x="1026" 
d="M632 -15c5.33301 -36 8 -81.668 8 -137.001s-7.5 -101.333 -22.5 -138s-32.167 -60.667 -51.5 -72c-39.333 -25.333 -111 -48.666 -215 -69.999l-6 6c46.667 66 70 208 70 426l33 6c-110 29.333 -198 88 -264 176c-66 88.667 -99 196.667 -99 324
c0 160.667 49 292.667 147 396c104 108.667 243 163 417 163c123.333 0 226.666 -27 309.999 -81l-40 -256l-7 1c-32 38.667 -65.667 64 -101 76c-57.333 20 -114.666 30 -171.999 30s-102.333 -7.33301 -135 -22s-60.667 -35 -84 -61c-46.667 -53.333 -70 -124 -70 -212
c0 -156 54 -258 162 -306c37.333 -16 76.833 -24 118.5 -24s78 3.66699 109 11s59.167 17.333 84.5 30c54 26.667 90.667 57.667 110 93l7 -3l23 -244c-72 -72 -182.667 -109.333 -332 -112z" />
    <glyph glyph-name="egrave" unicode="&#xe8;" horiz-adv-x="1197" 
d="M97 514c0 78 13.335 150.333 40.002 217s64.334 125 113.001 175c104 106 240 159 408 159c142 0 256 -47 342 -141c84.667 -90.667 127 -204.667 127 -342c0 -52.667 -4 -88.667 -12 -108c-66.667 -18.667 -202.334 -28 -407.001 -28h-352
c17.333 -71.333 57.666 -126.833 120.999 -166.5s145.666 -59.5 246.999 -59.5c106 0 197 19 273 57c20 10 35 19.333 45 28c-1.33301 -28 -3 -56.667 -5 -86l-11 -156c-50.667 -34.667 -132.667 -58.667 -246 -72c-33.333 -4 -65.333 -6 -96 -6
c-169.333 0 -309.333 49.333 -420 148c-111.333 99.333 -167 226.333 -167 381zM861.002 640c-27.333 143.333 -105.334 215.001 -234.001 215.001c-101.333 0 -178.333 -43.667 -231 -131c-16 -26.667 -28.333 -56 -37 -88c16 -0.666992 35.667 -1.33398 59 -2.00098h74
c24.667 -0.666992 48.334 -1 71.001 -1h57c34 0 67.333 0.333008 100 1l82 3c22 0.666992 41.667 1.66699 59 3zM308.001 1520c113.333 -11.333 220 -17 320 -17l169 -313h-226l-262 323z" />
    <glyph glyph-name="eacute" unicode="&#xe9;" horiz-adv-x="1197" 
d="M97 514c0 78 13.335 150.333 40.002 217s64.334 125 113.001 175c104 106 240 159 408 159c142 0 256 -47 342 -141c84.667 -90.667 127 -204.667 127 -342c0 -52.667 -4 -88.667 -12 -108c-66.667 -18.667 -202.334 -28 -407.001 -28h-352
c17.333 -71.333 57.666 -126.833 120.999 -166.5s145.666 -59.5 246.999 -59.5c106 0 197 19 273 57c20 10 35 19.333 45 28c-1.33301 -28 -3 -56.667 -5 -86l-11 -156c-50.667 -34.667 -132.667 -58.667 -246 -72c-33.333 -4 -65.333 -6 -96 -6
c-169.333 0 -309.333 49.333 -420 148c-111.333 99.333 -167 226.333 -167 381zM861.002 640c-27.333 143.333 -105.334 215.001 -234.001 215.001c-101.333 0 -178.333 -43.667 -231 -131c-16 -26.667 -28.333 -56 -37 -88c16 -0.666992 35.667 -1.33398 59 -2.00098h74
c24.667 -0.666992 48.334 -1 71.001 -1h57c34 0 67.333 0.333008 100 1l82 3c22 0.666992 41.667 1.66699 59 3zM597.001 1503c100 0 206.667 5.66699 320 17l-1 -7l-262 -323h-226z" />
    <glyph glyph-name="ecircumflex" unicode="&#xea;" horiz-adv-x="1197" 
d="M97 514c0 78 13.335 150.333 40.002 217s64.334 125 113.001 175c104 106 240 159 408 159c142 0 256 -47 342 -141c84.667 -90.667 127 -204.667 127 -342c0 -52.667 -4 -88.667 -12 -108c-66.667 -18.667 -202.334 -28 -407.001 -28h-352
c17.333 -71.333 57.666 -126.833 120.999 -166.5s145.666 -59.5 246.999 -59.5c106 0 197 19 273 57c20 10 35 19.333 45 28c-1.33301 -28 -3 -56.667 -5 -86l-11 -156c-50.667 -34.667 -132.667 -58.667 -246 -72c-33.333 -4 -65.333 -6 -96 -6
c-169.333 0 -309.333 49.333 -420 148c-111.333 99.333 -167 226.333 -167 381zM861.002 640c-27.333 143.333 -105.334 215.001 -234.001 215.001c-101.333 0 -178.333 -43.667 -231 -131c-16 -26.667 -28.333 -56 -37 -88c16 -0.666992 35.667 -1.33398 59 -2.00098h74
c24.667 -0.666992 48.334 -1 71.001 -1h57c34 0 67.333 0.333008 100 1l82 3c22 0.666992 41.667 1.66699 59 3zM511.001 1188c-143.333 0 -231 -1 -263 -3l-3 3l242 331c16 -2 38 -3 66 -3h51l121 3l255 -331l-4 -3l-255 3l-113 177z" />
    <glyph glyph-name="edieresis" unicode="&#xeb;" horiz-adv-x="1197" 
d="M97 514c0 78 13.335 150.333 40.002 217s64.334 125 113.001 175c104 106 240 159 408 159c142 0 256 -47 342 -141c84.667 -90.667 127 -204.667 127 -342c0 -52.667 -4 -88.667 -12 -108c-66.667 -18.667 -202.334 -28 -407.001 -28h-352
c17.333 -71.333 57.666 -126.833 120.999 -166.5s145.666 -59.5 246.999 -59.5c106 0 197 19 273 57c20 10 35 19.333 45 28c-1.33301 -28 -3 -56.667 -5 -86l-11 -156c-50.667 -34.667 -132.667 -58.667 -246 -72c-33.333 -4 -65.333 -6 -96 -6
c-169.333 0 -309.333 49.333 -420 148c-111.333 99.333 -167 226.333 -167 381zM861.002 640c-27.333 143.333 -105.334 215.001 -234.001 215.001c-101.333 0 -178.333 -43.667 -231 -131c-16 -26.667 -28.333 -56 -37 -88c16 -0.666992 35.667 -1.33398 59 -2.00098h74
c24.667 -0.666992 48.334 -1 71.001 -1h57c34 0 67.333 0.333008 100 1l82 3c22 0.666992 41.667 1.66699 59 3zM960.001 1430c-2.66699 -33.333 -4 -75.832 -4 -127.499s1.33301 -89.167 4 -112.5h-265c5.33301 41.333 8 82.166 8 122.499s-2 79.5 -6 117.5h263z
M530.001 1430c-2.66699 -33.333 -4 -75.832 -4 -127.499s1.33301 -89.167 4 -112.5h-265c5.33301 41.333 8 82.166 8 122.499s-2 79.5 -6 117.5h263z" />
    <glyph glyph-name="igrave" unicode="&#xec;" horiz-adv-x="513" 
d="M378 112c0 -57.333 1.33301 -94.667 4 -112h-254v1045h250v-933zM-61 1520c113.333 -11.333 220 -17 320 -17l169 -313h-226l-262 323z" />
    <glyph glyph-name="iacute" unicode="&#xed;" horiz-adv-x="513" 
d="M378 112c0 -57.333 1.33301 -94.667 4 -112h-254v1045h250v-933zM228 1503c100 0 206.667 5.66699 320 17l-1 -7l-262 -323h-226z" />
    <glyph glyph-name="icircumflex" unicode="&#xee;" horiz-adv-x="513" 
d="M378 112c0 -57.333 1.33301 -94.667 4 -112h-254v1045h250v-933zM142 1188c-143.333 0 -231 -1 -263 -3l-3 3l242 331c16 -2 38 -3 66 -3h51l121 3l255 -331l-4 -3l-255 3l-113 177z" />
    <glyph glyph-name="idieresis" unicode="&#xef;" horiz-adv-x="513" 
d="M378 112c0 -57.333 1.33301 -94.667 4 -112h-254v1045h250v-933zM591 1430c-2.66699 -33.333 -4 -75.832 -4 -127.499s1.33301 -89.167 4 -112.5h-265c5.33301 41.333 8 82.166 8 122.499s-2 79.5 -6 117.5h263zM161 1430c-2.66699 -33.333 -4 -75.832 -4 -127.499
s1.33301 -89.167 4 -112.5h-265c5.33301 41.333 8 82.166 8 122.499s-2 79.5 -6 117.5h263z" />
    <glyph glyph-name="eth" unicode="&#xf0;" 
d="M799 1162c183.333 -215.333 274.999 -434.667 274.999 -658c0 -150 -50 -275.333 -150 -376c-96 -95.333 -212.333 -143 -349 -143c-138 0 -253.667 45.333 -347 136c-91.333 89.333 -137 196.666 -137 321.999c0 148.667 49.667 263.667 149 345
c86.667 71.333 196.334 107 329.001 107c48 0 100 -10 156 -30c-40 70 -90.667 140.667 -152 212l-307 -116l-57 182l222 80c-36.667 34 -75.667 68.333 -117 103l-133 104h320c56 -39.333 108.333 -80.666 157 -123.999l239 87l56 -173zM829.999 495.999l-1 15.999
c-28 56.667 -62.333 96.334 -103 119.001s-83 34 -127 34s-79.667 -4.16699 -107 -12.5s-51.333 -20.5 -72 -36.5c-47.333 -36.667 -71 -87 -71 -151c0 -66 23.333 -123 70 -171c48 -49.333 107.667 -74 179 -74c62 0 114.333 21.333 157 64c50 51.333 75 122 75 212z" />
    <glyph glyph-name="ntilde" unicode="&#xf1;" horiz-adv-x="1197" 
d="M410 128c0 -58.667 2.66797 -101.332 8.00098 -127.999h-251v1045h243v-89c88 72.667 182 109 282 109c109.333 0 196.666 -37.167 261.999 -111.5s98 -172.166 98 -293.499v-398c0 -112.667 1.66699 -180.334 5 -203.001s7.83301 -37.334 13.5 -44.001
s10.5 -12.667 14.5 -18l-2 -4c-54 4.66699 -93.333 7 -118 7h-70c-21.333 0 -50 -1 -86 -3v545c0 195.333 -59.333 293 -178 293c-88 0 -161.667 -45.333 -221 -136v-571zM483.001 1280c-62.667 0 -118.334 -25 -167.001 -75l-4 1l-4 199c45.333 53.333 107 80 185 80
c61.333 0 118.333 -18.167 171 -54.5s107 -54.5 163 -54.5c79.333 0 131.333 28 156 84l2 -2l-10 -216c-11.333 -20 -31.666 -36.5 -60.999 -49.5s-60 -19.5 -92 -19.5s-57.833 2.66699 -77.5 8s-37.834 12 -54.501 20s-32.167 16.5 -46.5 25.5s-29.5 17.5 -45.5 25.5
c-37.333 18.667 -75.666 28 -114.999 28z" />
    <glyph glyph-name="ograve" unicode="&#xf2;" horiz-adv-x="1197" 
d="M71 517c0 73.333 12.5 143.499 37.5 210.499s60.833 125.5 107.5 175.5c102 108 234.333 162 397 162c162 0 290.667 -51 386 -153c91.333 -97.333 137 -223.666 137 -378.999s-47 -284 -141 -386c-99.333 -108 -231 -162 -395 -162c-169.333 0 -302 53 -398 159
c-87.333 96.667 -131 221 -131 373zM314 522.999c0 -42 6.99902 -82.666 20.999 -121.999s34 -73 60 -101c55.333 -60.667 128 -91 218 -91c83.333 0 149 29.667 197 89c46.667 57.333 70 132 70 224c0 93.333 -24 168.666 -72 225.999
c-51.333 61.333 -121.666 92 -210.999 92c-90.667 0 -161.667 -32.667 -213 -98c-46.667 -60 -70 -133 -70 -219zM293.999 1520c113.333 -11.333 220 -17 320 -17l169 -313h-226l-262 323z" />
    <glyph glyph-name="oacute" unicode="&#xf3;" horiz-adv-x="1197" 
d="M71 517c0 73.333 12.5 143.499 37.5 210.499s60.833 125.5 107.5 175.5c102 108 234.333 162 397 162c162 0 290.667 -51 386 -153c91.333 -97.333 137 -223.666 137 -378.999s-47 -284 -141 -386c-99.333 -108 -231 -162 -395 -162c-169.333 0 -302 53 -398 159
c-87.333 96.667 -131 221 -131 373zM314 522.999c0 -42 6.99902 -82.666 20.999 -121.999s34 -73 60 -101c55.333 -60.667 128 -91 218 -91c83.333 0 149 29.667 197 89c46.667 57.333 70 132 70 224c0 93.333 -24 168.666 -72 225.999
c-51.333 61.333 -121.666 92 -210.999 92c-90.667 0 -161.667 -32.667 -213 -98c-46.667 -60 -70 -133 -70 -219zM582.999 1503c100 0 206.667 5.66699 320 17l-1 -7l-262 -323h-226z" />
    <glyph glyph-name="ocircumflex" unicode="&#xf4;" horiz-adv-x="1197" 
d="M71 517c0 73.333 12.5 143.499 37.5 210.499s60.833 125.5 107.5 175.5c102 108 234.333 162 397 162c162 0 290.667 -51 386 -153c91.333 -97.333 137 -223.666 137 -378.999s-47 -284 -141 -386c-99.333 -108 -231 -162 -395 -162c-169.333 0 -302 53 -398 159
c-87.333 96.667 -131 221 -131 373zM314 522.999c0 -42 6.99902 -82.666 20.999 -121.999s34 -73 60 -101c55.333 -60.667 128 -91 218 -91c83.333 0 149 29.667 197 89c46.667 57.333 70 132 70 224c0 93.333 -24 168.666 -72 225.999
c-51.333 61.333 -121.666 92 -210.999 92c-90.667 0 -161.667 -32.667 -213 -98c-46.667 -60 -70 -133 -70 -219zM496.999 1188c-143.333 0 -231 -1 -263 -3l-3 3l242 331c16 -2 38 -3 66 -3h51l121 3l255 -331l-4 -3l-255 3l-113 177z" />
    <glyph glyph-name="otilde" unicode="&#xf5;" horiz-adv-x="1197" 
d="M71 517c0 73.333 12.5 143.499 37.5 210.499s60.833 125.5 107.5 175.5c102 108 234.333 162 397 162c162 0 290.667 -51 386 -153c91.333 -97.333 137 -223.666 137 -378.999s-47 -284 -141 -386c-99.333 -108 -231 -162 -395 -162c-169.333 0 -302 53 -398 159
c-87.333 96.667 -131 221 -131 373zM314 522.999c0 -42 6.99902 -82.666 20.999 -121.999s34 -73 60 -101c55.333 -60.667 128 -91 218 -91c83.333 0 149 29.667 197 89c46.667 57.333 70 132 70 224c0 93.333 -24 168.666 -72 225.999
c-51.333 61.333 -121.666 92 -210.999 92c-90.667 0 -161.667 -32.667 -213 -98c-46.667 -60 -70 -133 -70 -219zM434.999 1280c-62.667 0 -118.334 -25 -167.001 -75l-4 1l-4 199c45.333 53.333 107 80 185 80c61.333 0 118.333 -18.167 171 -54.5s107 -54.5 163 -54.5
c79.333 0 131.333 28 156 84l2 -2l-10 -216c-11.333 -20 -31.666 -36.5 -60.999 -49.5s-60 -19.5 -92 -19.5s-57.833 2.66699 -77.5 8s-37.834 12 -54.501 20s-32.167 16.5 -46.5 25.5s-29.5 17.5 -45.5 25.5c-37.333 18.667 -75.666 28 -114.999 28z" />
    <glyph glyph-name="odieresis" unicode="&#xf6;" horiz-adv-x="1197" 
d="M71 517c0 73.333 12.5 143.499 37.5 210.499s60.833 125.5 107.5 175.5c102 108 234.333 162 397 162c162 0 290.667 -51 386 -153c91.333 -97.333 137 -223.666 137 -378.999s-47 -284 -141 -386c-99.333 -108 -231 -162 -395 -162c-169.333 0 -302 53 -398 159
c-87.333 96.667 -131 221 -131 373zM314 522.999c0 -42 6.99902 -82.666 20.999 -121.999s34 -73 60 -101c55.333 -60.667 128 -91 218 -91c83.333 0 149 29.667 197 89c46.667 57.333 70 132 70 224c0 93.333 -24 168.666 -72 225.999
c-51.333 61.333 -121.666 92 -210.999 92c-90.667 0 -161.667 -32.667 -213 -98c-46.667 -60 -70 -133 -70 -219zM945.999 1430c-2.66699 -33.333 -4 -75.832 -4 -127.499s1.33301 -89.167 4 -112.5h-265c5.33301 41.333 8 82.166 8 122.499s-2 79.5 -6 117.5h263z
M515.999 1430c-2.66699 -33.333 -4 -75.832 -4 -127.499s1.33301 -89.167 4 -112.5h-265c5.33301 41.333 8 82.166 8 122.499s-2 79.5 -6 117.5h263z" />
    <glyph glyph-name="divide" unicode="&#xf7;" horiz-adv-x="1364" 
d="M826 1044c-0.666992 -12 -1 -35.5 -1 -70.5s1.66699 -64.5 5 -88.5h-292c6 40.667 9 76.667 9 108s-0.166992 52.833 -0.5 64.5s-0.833008 23.167 -1.5 34.5s-1.66699 22 -3 32l-2 25h290c-2 -25.333 -3 -46 -3 -62zM351 500c-50.667 0 -92 -1.66699 -124 -5l3 247
c14.667 -4 58.667 -6 132 -6h639c72.667 0 116.667 2 132 6l3 -247c-32 3.33301 -73.333 5 -124 5h-661zM826 256c-0.666992 -12 -1 -35.5 -1 -70.5s1.66699 -64.5 5 -88.5h-292c6 40.667 9 76.667 9 108s-0.166992 52.833 -0.5 64.5s-0.833008 23.167 -1.5 34.5
s-1.66699 22 -3 32l-2 25h290c-2 -25.333 -3 -46 -3 -62z" />
    <glyph glyph-name="oslash" unicode="&#xf8;" horiz-adv-x="1197" 
d="M826.5 28.5c-66.333 -29 -138.166 -43.5 -215.499 -43.5s-147.333 10 -210 30l-102 -185h-176l141 257c-128.667 99.333 -193 241 -193 425c0 157.333 48.333 287.666 145 390.999c102 108 234.333 162 397 162c61.333 0 119.666 -8.33301 174.999 -25l83 150h176
l-119 -217c67.333 -47.333 118.833 -109 154.5 -185s53.5 -156.167 53.5 -240.5s-12 -159.666 -36 -225.999s-59 -124.5 -105 -174.5s-102.167 -89.5 -168.5 -118.5zM673 831c-23.333 6 -53.667 9 -91 9s-73.833 -9 -109.5 -27s-65.167 -41.667 -88.5 -71
c-46.667 -60 -70 -131 -70 -213c0 -88 24.333 -161.333 73 -220zM514.999 223c31.333 -9.33301 66 -14 104 -14s73.667 7.83301 107 23.5s61.333 37.5 84 65.5c46.667 57.333 70 132 70 224c0 94.667 -25 171 -75 229z" />
    <glyph glyph-name="ugrave" unicode="&#xf9;" 
d="M773 91c-85.333 -70.667 -178.333 -105.999 -279 -105.999c-108 0 -192.667 36.333 -254 109c-58.667 70.667 -88 167.667 -88 291v397c0 133.333 -2.83301 209.833 -8.5 229.5s-9.83398 32.167 -12.501 37.5c30.667 -2.66699 62.667 -4 96 -4h83c22 0 51 1 87 3v-579
c0 -137.333 37.333 -217 112 -239c22.667 -6.66699 47.334 -10 74.001 -10c78.667 0 142 28.667 190 86v739h248v-917c0 -58.667 2.66699 -101.334 8 -128.001h-256v91zM266 1520c113.333 -11.333 220 -17 320 -17l169 -313h-226l-262 323z" />
    <glyph glyph-name="uacute" unicode="&#xfa;" 
d="M773 91c-85.333 -70.667 -178.333 -105.999 -279 -105.999c-108 0 -192.667 36.333 -254 109c-58.667 70.667 -88 167.667 -88 291v397c0 133.333 -2.83301 209.833 -8.5 229.5s-9.83398 32.167 -12.501 37.5c30.667 -2.66699 62.667 -4 96 -4h83c22 0 51 1 87 3v-579
c0 -137.333 37.333 -217 112 -239c22.667 -6.66699 47.334 -10 74.001 -10c78.667 0 142 28.667 190 86v739h248v-917c0 -58.667 2.66699 -101.334 8 -128.001h-256v91zM555 1503c100 0 206.667 5.66699 320 17l-1 -7l-262 -323h-226z" />
    <glyph glyph-name="ucircumflex" unicode="&#xfb;" 
d="M773 91c-85.333 -70.667 -178.333 -105.999 -279 -105.999c-108 0 -192.667 36.333 -254 109c-58.667 70.667 -88 167.667 -88 291v397c0 133.333 -2.83301 209.833 -8.5 229.5s-9.83398 32.167 -12.501 37.5c30.667 -2.66699 62.667 -4 96 -4h83c22 0 51 1 87 3v-579
c0 -137.333 37.333 -217 112 -239c22.667 -6.66699 47.334 -10 74.001 -10c78.667 0 142 28.667 190 86v739h248v-917c0 -58.667 2.66699 -101.334 8 -128.001h-256v91zM469 1188c-143.333 0 -231 -1 -263 -3l-3 3l242 331c16 -2 38 -3 66 -3h51l121 3l255 -331l-4 -3
l-255 3l-113 177z" />
    <glyph glyph-name="udieresis" unicode="&#xfc;" 
d="M773 91c-85.333 -70.667 -178.333 -105.999 -279 -105.999c-108 0 -192.667 36.333 -254 109c-58.667 70.667 -88 167.667 -88 291v397c0 133.333 -2.83301 209.833 -8.5 229.5s-9.83398 32.167 -12.501 37.5c30.667 -2.66699 62.667 -4 96 -4h83c22 0 51 1 87 3v-579
c0 -137.333 37.333 -217 112 -239c22.667 -6.66699 47.334 -10 74.001 -10c78.667 0 142 28.667 190 86v739h248v-917c0 -58.667 2.66699 -101.334 8 -128.001h-256v91zM918 1430c-2.66699 -33.333 -4 -75.832 -4 -127.499s1.33301 -89.167 4 -112.5h-265
c5.33301 41.333 8 82.166 8 122.499s-2 79.5 -6 117.5h263zM488 1430c-2.66699 -33.333 -4 -75.832 -4 -127.499s1.33301 -89.167 4 -112.5h-265c5.33301 41.333 8 82.166 8 122.499s-2 79.5 -6 117.5h263z" />
    <glyph glyph-name="yacute" unicode="&#xfd;" horiz-adv-x="1025" 
d="M51 -348l66.001 53c99.333 80.667 181.666 199.667 246.999 357l46 111l-383 872h280l240 -604l223 604h288c-34.667 -48 -77 -137.333 -127 -268l-150 -371c-200.667 -472 -358 -753.333 -472 -844zM554.001 1503c100 0 206.667 5.66699 320 17l-1 -7l-262 -323h-226z
" />
    <glyph glyph-name="thorn" unicode="&#xfe;" 
d="M726 -2c-38.667 -10.667 -87.6709 -16.0029 -147.004 -16.0029s-116.666 12.333 -171.999 37v-292c0 -57.333 1.33301 -94.666 4 -111.999h-249v1815h249c-2.66699 -17.333 -4 -54.666 -4 -111.999v-313c74.667 40 148.834 60 222.501 60s139.334 -10.667 197.001 -32
s108.834 -53.666 153.501 -96.999c96.667 -96 145 -229.333 145 -400c0 -168.667 -58.333 -306 -175 -412c-67.333 -61.333 -142 -103.333 -224 -126zM406.996 292.997c54 -48.667 116.334 -72.999 187.001 -72.999c84 0 152 29.333 204 88c54.667 60.667 82 142 82 244
c0 131.333 -52.667 218.666 -158 261.999c-34 14 -69 21 -105 21s-73.333 -7.83301 -112 -23.5s-71.334 -37.5 -98.001 -65.5v-453z" />
    <glyph glyph-name="ydieresis" unicode="&#xff;" horiz-adv-x="1025" 
d="M51 -348l66.001 53c99.333 80.667 181.666 199.667 246.999 357l46 111l-383 872h280l240 -604l223 604h288c-34.667 -48 -77 -137.333 -127 -268l-150 -371c-200.667 -472 -358 -753.333 -472 -844zM917.001 1430c-2.66699 -33.333 -4 -75.832 -4 -127.499
s1.33301 -89.167 4 -112.5h-265c5.33301 41.333 8 82.166 8 122.499s-2 79.5 -6 117.5h263zM487.001 1430c-2.66699 -33.333 -4 -75.832 -4 -127.499s1.33301 -89.167 4 -112.5h-265c5.33301 41.333 8 82.166 8 122.499s-2 79.5 -6 117.5h263z" />
    <glyph glyph-name="Amacron" unicode="&#x100;" horiz-adv-x="1197" 
d="M269 -8c-57.333 5.33301 -124.333 8.00195 -201 8.00195h-79l435 1219c19.333 54.667 29 86.5 29 95.5s-0.333008 14.5 -1 16.5l1 2c43.333 -2 89.333 -3 138 -3c40 0 88 0.666992 144 2l1 -2c-1.33301 -2.66699 -2 -6.33398 -2 -11.001
c0 -12.667 10 -46.334 30 -101.001l444 -1221c-13.333 0.666992 -29 1 -47 1l-52 2h-45h-155l-94 288h-452zM737 528.002l-151 465l-147 -465h298zM942 1700c-2.66699 -33.333 -4 -58.667 -4 -76v-34c0 -5.33301 1.33301 -25.333 4 -60h-675l3 26c3.33301 22 5 42 5 60
s-2 46 -6 84h673z" />
    <glyph glyph-name="amacron" unicode="&#x101;" 
d="M837 62c-94.667 -51.333 -180.332 -77 -256.999 -77s-142.334 7.16699 -197.001 21.5s-101 35.5 -139 63.5c-77.333 56.667 -116 138.667 -116 246c0 96 47.333 176 142 240c102.667 69.333 242 104 418 104l40 -1c8 -0.666992 17 -1.16699 27 -1.5
s19 -1.16602 27 -2.49902c-5.33301 106.667 -51.333 169 -138 187c-28.667 6 -59.167 9 -91.5 9s-64 -2.83301 -95 -8.5s-61.167 -13.167 -90.5 -22.5c-64.667 -20.667 -111 -44.334 -139 -71.001l-3 2l-30 221c118 62 247 93 387 93c217.333 0 356.333 -78.333 417 -235
c19.333 -50 29 -106.333 29 -169v-362c0 -77.333 27.333 -130 82 -158l-181 -166c-38 20 -68.667 49 -92 87zM783.002 475c-18 3.33301 -36.666 4.99805 -55.999 4.99805h-40c-147.333 0 -241 -32.667 -281 -98c-12 -19.333 -18 -39.666 -18 -60.999
s3.83301 -40.166 11.5 -56.499s20.5 -29.833 38.5 -40.5c34.667 -20 86.167 -30 154.5 -30s132.166 16.333 191.499 49c-0.666992 7.33301 -1 15 -1 23v209zM922.003 1523c-2.66699 -33.333 -4 -58.667 -4 -76v-34c0 -5.33301 1.33301 -25.333 4 -60h-675l3 26
c3.33301 22 5 42 5 60s-2 46 -6 84h673z" />
    <glyph glyph-name="Abreve" unicode="&#x102;" horiz-adv-x="1197" 
d="M269 -8c-57.333 5.33301 -124.333 8.00195 -201 8.00195h-79l435 1219c19.333 54.667 29 86.5 29 95.5s-0.333008 14.5 -1 16.5l1 2c43.333 -2 89.333 -3 138 -3c40 0 88 0.666992 144 2l1 -2c-1.33301 -2.66699 -2 -6.33398 -2 -11.001
c0 -12.667 10 -46.334 30 -101.001l444 -1221c-13.333 0.666992 -29 1 -47 1l-52 2h-45h-155l-94 288h-452zM737 528.002l-151 465l-147 -465h298zM943 1806c6.66699 -6.66699 10.001 -29.333 10.001 -68s-6.83301 -76.834 -20.5 -114.501s-34.834 -71.5 -63.501 -101.5
c-64.667 -67.333 -155 -101 -271 -101s-206.333 33.667 -271 101c-56 58.667 -84 130.334 -84 215.001c0 39.333 3.33301 62.333 10 69l133 -3c6.66699 -52.667 19 -91.667 37 -117c39.333 -56 97.666 -84 174.999 -84s134.333 26 171 78
c20.667 29.333 34.334 70.333 41.001 123z" />
    <glyph glyph-name="abreve" unicode="&#x103;" 
d="M837 62c-94.667 -51.333 -180.332 -77 -256.999 -77s-142.334 7.16699 -197.001 21.5s-101 35.5 -139 63.5c-77.333 56.667 -116 138.667 -116 246c0 96 47.333 176 142 240c102.667 69.333 242 104 418 104l40 -1c8 -0.666992 17 -1.16699 27 -1.5
s19 -1.16602 27 -2.49902c-5.33301 106.667 -51.333 169 -138 187c-28.667 6 -59.167 9 -91.5 9s-64 -2.83301 -95 -8.5s-61.167 -13.167 -90.5 -22.5c-64.667 -20.667 -111 -44.334 -139 -71.001l-3 2l-30 221c118 62 247 93 387 93c217.333 0 356.333 -78.333 417 -235
c19.333 -50 29 -106.333 29 -169v-362c0 -77.333 27.333 -130 82 -158l-181 -166c-38 20 -68.667 49 -92 87zM783.002 475c-18 3.33301 -36.666 4.99805 -55.999 4.99805h-40c-147.333 0 -241 -32.667 -281 -98c-12 -19.333 -18 -39.666 -18 -60.999
s3.83301 -40.166 11.5 -56.499s20.5 -29.833 38.5 -40.5c34.667 -20 86.167 -30 154.5 -30s132.166 16.333 191.499 49c-0.666992 7.33301 -1 15 -1 23v209zM929.003 1610c6.66699 -6.66699 10.001 -29.333 10.001 -68s-6.83301 -76.834 -20.5 -114.501
s-34.834 -71.5 -63.501 -101.5c-64.667 -67.333 -155 -101 -271 -101s-206.333 33.667 -271 101c-56 58.667 -84 130.334 -84 215.001c0 39.333 3.33301 62.333 10 69l133 -3c6.66699 -52.667 19 -91.667 37 -117c39.333 -56 97.666 -84 174.999 -84s134.333 26 171 78
c20.667 29.333 34.334 70.333 41.001 123z" />
    <glyph glyph-name="Aogonek" unicode="&#x104;" horiz-adv-x="1197" 
d="M269 -8c-57.333 5.33301 -124.334 8.00195 -201.001 8.00195h-79l435 1219c19.333 54.667 29 86.5 29 95.5s-0.333008 14.5 -1 16.5l1 2c43.333 -2 89.333 -3 138 -3c40 0 88 0.666992 144 2l1 -2c-1.33301 -2.66699 -2 -6.33398 -2 -11.001
c0 -12.667 10 -46.334 30 -101.001l444 -1221c-72 0 -134 -23 -186 -69c-48.667 -43.333 -73 -92 -73 -146c0 -70 63.667 -105 191 -105c24.667 0 44.334 5.33301 59.001 16l2 -5l-104 -243c-177.333 0 -297 54 -359 162c-22.667 39.333 -34 88.333 -34 147
c0 68.667 30.667 137.667 92 207c25.333 28 58.333 55 99 81l-80 246h-452zM736.999 528.002l-151 465l-147 -465h298z" />
    <glyph glyph-name="aogonek" unicode="&#x105;" 
d="M705 7c-51.333 -14.667 -104.168 -22 -158.501 -22s-108.833 7.16699 -163.5 21.5s-101 35.5 -139 63.5c-77.333 56.667 -116 138.667 -116 246c0 96 47.333 176 142 240c102.667 69.333 242 104 418 104l40 -1c8 -0.666992 17 -1.16699 27 -1.5s19 -1.16602 27 -2.49902
c-5.33301 106.667 -51.333 169 -138 187c-28.667 6 -59.167 9 -91.5 9s-64 -2.83301 -95 -8.5s-61.167 -13.167 -90.5 -22.5c-64.667 -20.667 -111 -44.334 -139 -71.001l-3 2l-30 221c118 62 247 93 387 93c217.333 0 356.333 -78.333 417 -235
c19.333 -50 29 -106.333 29 -169v-362c0 -77.333 27.333 -130 82 -158l-181 -166c-38 20 -68.667 49 -92 87c-42.667 -22.667 -86.667 -41 -132 -55c30 30 66.333 58.333 109 85l215 49h81l-142 -130c-68 -62.667 -110.167 -110.5 -126.5 -143.5s-24.5 -61.5 -24.5 -85.5
c0 -70 63.667 -105 191 -105c24.667 0 44.334 5.33301 59.001 16l2 -5l-104 -243c-177.333 0 -297 54 -359 162c-22.667 39.333 -34 88.333 -34 147c0 48.667 23.333 108 70 178c17.333 25.333 38.333 50.333 63 75zM782.998 475
c-18 3.33301 -36.666 4.99805 -55.999 4.99805h-40c-147.333 0 -241 -32.667 -281 -98c-12 -19.333 -18 -39.666 -18 -60.999s3.83301 -40.166 11.5 -56.499s20.5 -29.833 38.5 -40.5c34.667 -20 86.167 -30 154.5 -30s132.166 16.333 191.499 49
c-0.666992 7.33301 -1 15 -1 23v209z" />
    <glyph glyph-name="Cacute" unicode="&#x106;" horiz-adv-x="1188" 
d="M768 1355c124.667 0 230.998 -21.665 318.998 -64.998v-306l-2 -2c-37.333 57.333 -116 95.333 -236 114c-35.333 6 -80 9 -134 9s-107 -10.167 -159 -30.5s-94.667 -49.166 -128 -86.499c-64.667 -72.667 -97 -176.334 -97 -311.001
c0 -156.667 41 -273.334 123 -350.001c68 -64 158 -96 270 -96c126.667 0 229.334 27 308.001 81c28.667 19.333 53 43.333 73 72l3 -2v-280c-102 -84.667 -239.333 -127 -412 -127c-203.333 0 -362.666 64.667 -477.999 194c-110.667 123.333 -166 286.666 -166 489.999
c0 215.333 60.667 385 182 509c122.667 124.667 300.667 187 534 187zM593.998 1788c100 0 206.667 5.66699 320 17l-1 -7l-262 -323h-226z" />
    <glyph glyph-name="cacute" unicode="&#x107;" horiz-adv-x="1026" 
d="M964 97c-74.667 -74.667 -191.667 -112 -351 -112c-154.667 0 -281 47 -379 141c-99.333 95.333 -149 222 -149 380c0 160.667 49 292.667 147 396c104 108.667 243 163 417 163c123.333 0 226.666 -27 309.999 -81l-40 -256l-7 1c-32 38.667 -65.667 64 -101 76
c-57.333 20 -114.666 30 -171.999 30s-102.333 -7.33301 -135 -22s-60.667 -35 -84 -61c-46.667 -53.333 -70 -124 -70 -212c0 -156 54 -258 162 -306c37.333 -16 76.833 -24 118.5 -24s78 3.66699 109 11s59.167 17.333 84.5 30c54 26.667 90.667 57.667 110 93l7 -3z
M572 1503c100 0 206.667 5.66699 320 17l-1 -7l-262 -323h-226z" />
    <glyph glyph-name="Ccircumflex" unicode="&#x108;" horiz-adv-x="1188" 
d="M768 1355c124.667 0 230.998 -21.665 318.998 -64.998v-306l-2 -2c-37.333 57.333 -116 95.333 -236 114c-35.333 6 -80 9 -134 9s-107 -10.167 -159 -30.5s-94.667 -49.166 -128 -86.499c-64.667 -72.667 -97 -176.334 -97 -311.001
c0 -156.667 41 -273.334 123 -350.001c68 -64 158 -96 270 -96c126.667 0 229.334 27 308.001 81c28.667 19.333 53 43.333 73 72l3 -2v-280c-102 -84.667 -239.333 -127 -412 -127c-203.333 0 -362.666 64.667 -477.999 194c-110.667 123.333 -166 286.666 -166 489.999
c0 215.333 60.667 385 182 509c122.667 124.667 300.667 187 534 187zM567.998 1473c-143.333 0 -231 -1 -263 -3l-3 3l242 331c16 -2 38 -3 66 -3h51l121 3l255 -331l-4 -3l-255 3l-113 177z" />
    <glyph glyph-name="ccircumflex" unicode="&#x109;" horiz-adv-x="1026" 
d="M964 97c-74.667 -74.667 -191.667 -112 -351 -112c-154.667 0 -281 47 -379 141c-99.333 95.333 -149 222 -149 380c0 160.667 49 292.667 147 396c104 108.667 243 163 417 163c123.333 0 226.666 -27 309.999 -81l-40 -256l-7 1c-32 38.667 -65.667 64 -101 76
c-57.333 20 -114.666 30 -171.999 30s-102.333 -7.33301 -135 -22s-60.667 -35 -84 -61c-46.667 -53.333 -70 -124 -70 -212c0 -156 54 -258 162 -306c37.333 -16 76.833 -24 118.5 -24s78 3.66699 109 11s59.167 17.333 84.5 30c54 26.667 90.667 57.667 110 93l7 -3z
M486 1188c-143.333 0 -231 -1 -263 -3l-3 3l242 331c16 -2 38 -3 66 -3h51l121 3l255 -331l-4 -3l-255 3l-113 177z" />
    <glyph glyph-name="Cdotaccent" unicode="&#x10a;" horiz-adv-x="1188" 
d="M768 1355c124.667 0 230.998 -21.665 318.998 -64.998v-306l-2 -2c-37.333 57.333 -116 95.333 -236 114c-35.333 6 -80 9 -134 9s-107 -10.167 -159 -30.5s-94.667 -49.166 -128 -86.499c-64.667 -72.667 -97 -176.334 -97 -311.001
c0 -156.667 41 -273.334 123 -350.001c68 -64 158 -96 270 -96c126.667 0 229.334 27 308.001 81c28.667 19.333 53 43.333 73 72l3 -2v-280c-102 -84.667 -239.333 -127 -412 -127c-203.333 0 -362.666 64.667 -477.999 194c-110.667 123.333 -166 286.666 -166 489.999
c0 215.333 60.667 385 182 509c122.667 124.667 300.667 187 534 187zM498.998 1618c43.333 69.333 93 134.666 149 195.999l191 -151l-68 -88l-35 -49c-11.333 -15.333 -23.333 -32.666 -36 -51.999z" />
    <glyph glyph-name="cdotaccent" unicode="&#x10b;" horiz-adv-x="1026" 
d="M964 97c-74.667 -74.667 -191.667 -112 -351 -112c-154.667 0 -281 47 -379 141c-99.333 95.333 -149 222 -149 380c0 160.667 49 292.667 147 396c104 108.667 243 163 417 163c123.333 0 226.666 -27 309.999 -81l-40 -256l-7 1c-32 38.667 -65.667 64 -101 76
c-57.333 20 -114.666 30 -171.999 30s-102.333 -7.33301 -135 -22s-60.667 -35 -84 -61c-46.667 -53.333 -70 -124 -70 -212c0 -156 54 -258 162 -306c37.333 -16 76.833 -24 118.5 -24s78 3.66699 109 11s59.167 17.333 84.5 30c54 26.667 90.667 57.667 110 93l7 -3z
M417 1336c43.333 69.333 93 134.666 149 195.999l191 -151l-68 -88l-35 -49c-11.333 -15.333 -23.333 -32.666 -36 -51.999z" />
    <glyph glyph-name="Ccaron" unicode="&#x10c;" horiz-adv-x="1188" 
d="M768 1355c124.667 0 230.998 -21.665 318.998 -64.998v-306l-2 -2c-37.333 57.333 -116 95.333 -236 114c-35.333 6 -80 9 -134 9s-107 -10.167 -159 -30.5s-94.667 -49.166 -128 -86.499c-64.667 -72.667 -97 -176.334 -97 -311.001
c0 -156.667 41 -273.334 123 -350.001c68 -64 158 -96 270 -96c126.667 0 229.334 27 308.001 81c28.667 19.333 53 43.333 73 72l3 -2v-280c-102 -84.667 -239.333 -127 -412 -127c-203.333 0 -362.666 64.667 -477.999 194c-110.667 123.333 -166 286.666 -166 489.999
c0 215.333 60.667 385 182 509c122.667 124.667 300.667 187 534 187zM660.998 1369h-51c-28 0 -50 -1 -66 -3l-242 331l3 3c32 -2 119.667 -3 263 -3l97 -177l113 177l255 3l4 -3l-255 -331z" />
    <glyph glyph-name="ccaron" unicode="&#x10d;" horiz-adv-x="1026" 
d="M964 97c-74.667 -74.667 -191.667 -112 -351 -112c-154.667 0 -281 47 -379 141c-99.333 95.333 -149 222 -149 380c0 160.667 49 292.667 147 396c104 108.667 243 163 417 163c123.333 0 226.666 -27 309.999 -81l-40 -256l-7 1c-32 38.667 -65.667 64 -101 76
c-57.333 20 -114.666 30 -171.999 30s-102.333 -7.33301 -135 -22s-60.667 -35 -84 -61c-46.667 -53.333 -70 -124 -70 -212c0 -156 54 -258 162 -306c37.333 -16 76.833 -24 118.5 -24s78 3.66699 109 11s59.167 17.333 84.5 30c54 26.667 90.667 57.667 110 93l7 -3z
M579 1188h-51c-28 0 -50 -1 -66 -3l-242 331l3 3c32 -2 119.667 -3 263 -3l97 -177l113 177l255 3l4 -3l-255 -331z" />
    <glyph glyph-name="Dcaron" unicode="&#x10e;" horiz-adv-x="1364" 
d="M496 -25c-108 0 -209.665 8.66797 -304.998 26.001v1338c88 10.667 190.167 16 306.5 16s221.666 -15.833 315.999 -47.5s173.166 -76.834 236.499 -135.501c128 -117.333 192 -281.666 192 -492.999c0 -236.667 -71.333 -416.334 -214 -539.001
c-128 -110 -305.333 -165 -532 -165zM451.002 219.001c43.333 -8 86.666 -12.001 129.999 -12.001s90 8.5 140 25.5s93.333 43.5 130 79.5c78.667 76 118 186.667 118 332c0 238.667 -87 385.334 -261 440.001c-57.333 18 -123.666 27 -198.999 27h-27
c-10 0 -20.333 -0.333008 -31 -1v-891zM712.002 1369h-51c-28 0 -50 -1 -66 -3l-242 331l3 3c32 -2 119.667 -3 263 -3l97 -177l113 177l255 3l4 -3l-255 -331z" />
    <glyph glyph-name="dcaron" unicode="&#x10f;" horiz-adv-x="1427" 
d="M864 56c-84.667 -47.333 -169.33 -71.002 -253.997 -71.002s-158.667 13.333 -222 40s-117.333 63.334 -162 110.001c-92 96 -138 220.667 -138 374c0 158.667 53.333 290.667 160 396c107.333 106.667 244.666 160 411.999 160c51.333 0 101.666 -6.66699 150.999 -20
v445h245v-1069c0 -88.667 4.16699 -146.667 12.5 -174s17.666 -47.333 27.999 -60s23.5 -24.667 39.5 -36l-188 -166c-34.667 18.667 -62.667 42.334 -84 71.001zM657.004 214.998c56 0 107.335 10.667 154.002 32v554c-46.667 19.333 -97.334 29 -152.001 29
s-101.5 -7.33301 -140.5 -22s-72.5 -35 -100.5 -61c-58.667 -54.667 -88 -125.667 -88 -213c0 -95.333 26.667 -171.333 80 -228c57.333 -60.667 139.666 -91 246.999 -91zM1417.01 1445c7.33301 -70 11 -122.834 11 -158.501s-1.16699 -70.167 -3.5 -103.5
s-5.5 -63.333 -9.5 -90c-10 -57.333 -22 -90.666 -36 -99.999c-16.667 -10.667 -44.667 -19.667 -84 -27l-111 -23l-6 6c10.667 18.667 16 78.667 16 180v99c0 68 -2 127 -6 177z" />
    <glyph glyph-name="Dcroat" unicode="&#x110;" horiz-adv-x="1364" 
d="M496 -25c-108 0 -209.665 8.66797 -304.998 26.001v547h-99v236h99v555c88 10.667 190.167 16 306.5 16s221.666 -15.833 315.999 -47.5s173.166 -76.834 236.499 -135.501c128 -117.333 192 -281.666 192 -492.999c0 -236.667 -71.333 -416.334 -214 -539.001
c-128 -110 -305.333 -165 -532 -165zM451.002 219.001c43.333 -8 86.666 -12.001 129.999 -12.001s90 8.5 140 25.5s93.333 43.5 130 79.5c78.667 76 118 186.667 118 332c0 238.667 -87 385.334 -261 440.001c-57.333 18 -123.666 27 -198.999 27h-27
c-10 0 -20.333 -0.333008 -31 -1v-326h300v-236h-300v-329z" />
    <glyph glyph-name="dcroat" unicode="&#x111;" horiz-adv-x="1242" 
d="M864 56c-84.667 -47.333 -169.331 -71.002 -253.998 -71.002s-158.667 13.333 -222 40s-117.333 63.334 -162 110.001c-92 96 -138 220.667 -138 374c0 158.667 53.333 290.667 160 396c107.333 106.667 244.666 160 411.999 160c51.333 0 101.666 -6.66699 150.999 -20
v126h-72c-50.667 0 -92 -1.66699 -124 -5l3 187c14.667 -4 58.667 -6 132 -6h61v143h245v-143c62.667 0 101 2 115 6l3 -187c-31.333 3.33301 -70.666 5 -117.999 5v-750c0 -88.667 4.16699 -146.667 12.5 -174s17.666 -47.333 27.999 -60s23.5 -24.667 39.5 -36l-188 -166
c-34.667 18.667 -62.667 42.334 -84 71.001zM657.003 214.998c56 0 107.335 10.667 154.002 32v554c-46.667 19.333 -97.334 29 -152.001 29s-101.5 -7.33301 -140.5 -22s-72.5 -35 -100.5 -61c-58.667 -54.667 -88 -125.667 -88 -213c0 -95.333 26.667 -171.333 80 -228
c57.333 -60.667 139.666 -91 246.999 -91z" />
    <glyph glyph-name="Emacron" unicode="&#x112;" horiz-adv-x="1026" 
d="M841 240c41.333 0 69.999 4 85.999 12l4 -1l-10 -251h-749v1337c18 -1.33301 38 -2.33301 60 -3l70 -2c46.667 -1.33301 97.334 -2 152.001 -2c152.667 0 303.667 2.66699 453 8c-7.33301 -58.667 -11 -137 -11 -235c0 -10.667 0.666992 -18.667 2 -24l-2 -3
c-34.667 10 -84 15 -148 15h-315v-255h237c73.333 0 117.333 2 132 6l3 -247c-32 3.33301 -73.333 5 -124 5h-248v-360h408zM879.999 1700c-2.66699 -33.333 -4 -58.667 -4 -76v-34c0 -5.33301 1.33301 -25.333 4 -60h-675l3 26c3.33301 22 5 42 5 60s-2 46 -6 84h673z" />
    <glyph glyph-name="emacron" unicode="&#x113;" horiz-adv-x="1197" 
d="M97 514c0 78 13.335 150.333 40.002 217s64.334 125 113.001 175c104 106 240 159 408 159c142 0 256 -47 342 -141c84.667 -90.667 127 -204.667 127 -342c0 -52.667 -4 -88.667 -12 -108c-66.667 -18.667 -202.334 -28 -407.001 -28h-352
c17.333 -71.333 57.666 -126.833 120.999 -166.5s145.666 -59.5 246.999 -59.5c106 0 197 19 273 57c20 10 35 19.333 45 28c-1.33301 -28 -3 -56.667 -5 -86l-11 -156c-50.667 -34.667 -132.667 -58.667 -246 -72c-33.333 -4 -65.333 -6 -96 -6
c-169.333 0 -309.333 49.333 -420 148c-111.333 99.333 -167 226.333 -167 381zM861.002 640c-27.333 143.333 -105.334 215.001 -234.001 215.001c-101.333 0 -178.333 -43.667 -231 -131c-16 -26.667 -28.333 -56 -37 -88c16 -0.666992 35.667 -1.33398 59 -2.00098h74
c24.667 -0.666992 48.334 -1 71.001 -1h57c34 0 67.333 0.333008 100 1l82 3c22 0.666992 41.667 1.66699 59 3zM950.001 1523c-2.66699 -33.333 -4 -58.667 -4 -76v-34c0 -5.33301 1.33301 -25.333 4 -60h-675l3 26c3.33301 22 5 42 5 60s-2 46 -6 84h673z" />
    <glyph glyph-name="Ebreve" unicode="&#x114;" horiz-adv-x="1026" 
d="M841 240c41.333 0 69.999 4 85.999 12l4 -1l-10 -251h-749v1337c18 -1.33301 38 -2.33301 60 -3l70 -2c46.667 -1.33301 97.334 -2 152.001 -2c152.667 0 303.667 2.66699 453 8c-7.33301 -58.667 -11 -137 -11 -235c0 -10.667 0.666992 -18.667 2 -24l-2 -3
c-34.667 10 -84 15 -148 15h-315v-255h237c73.333 0 117.333 2 132 6l3 -247c-32 3.33301 -73.333 5 -124 5h-248v-360h408zM880.999 1806c6.66699 -6.66699 10.001 -29.333 10.001 -68s-6.83301 -76.834 -20.5 -114.501s-34.834 -71.5 -63.501 -101.5
c-64.667 -67.333 -155 -101 -271 -101s-206.333 33.667 -271 101c-56 58.667 -84 130.334 -84 215.001c0 39.333 3.33301 62.333 10 69l133 -3c6.66699 -52.667 19 -91.667 37 -117c39.333 -56 97.666 -84 174.999 -84s134.333 26 171 78
c20.667 29.333 34.334 70.333 41.001 123z" />
    <glyph glyph-name="ebreve" unicode="&#x115;" horiz-adv-x="1197" 
d="M97 514c0 78 13.335 150.333 40.002 217s64.334 125 113.001 175c104 106 240 159 408 159c142 0 256 -47 342 -141c84.667 -90.667 127 -204.667 127 -342c0 -52.667 -4 -88.667 -12 -108c-66.667 -18.667 -202.334 -28 -407.001 -28h-352
c17.333 -71.333 57.666 -126.833 120.999 -166.5s145.666 -59.5 246.999 -59.5c106 0 197 19 273 57c20 10 35 19.333 45 28c-1.33301 -28 -3 -56.667 -5 -86l-11 -156c-50.667 -34.667 -132.667 -58.667 -246 -72c-33.333 -4 -65.333 -6 -96 -6
c-169.333 0 -309.333 49.333 -420 148c-111.333 99.333 -167 226.333 -167 381zM861.002 640c-27.333 143.333 -105.334 215.001 -234.001 215.001c-101.333 0 -178.333 -43.667 -231 -131c-16 -26.667 -28.333 -56 -37 -88c16 -0.666992 35.667 -1.33398 59 -2.00098h74
c24.667 -0.666992 48.334 -1 71.001 -1h57c34 0 67.333 0.333008 100 1l82 3c22 0.666992 41.667 1.66699 59 3zM957.001 1610c6.66699 -6.66699 10.001 -29.333 10.001 -68s-6.83301 -76.834 -20.5 -114.501s-34.834 -71.5 -63.501 -101.5
c-64.667 -67.333 -155 -101 -271 -101s-206.333 33.667 -271 101c-56 58.667 -84 130.334 -84 215.001c0 39.333 3.33301 62.333 10 69l133 -3c6.66699 -52.667 19 -91.667 37 -117c39.333 -56 97.666 -84 174.999 -84s134.333 26 171 78
c20.667 29.333 34.334 70.333 41.001 123z" />
    <glyph glyph-name="Edotaccent" unicode="&#x116;" horiz-adv-x="1026" 
d="M841 240c41.333 0 69.999 4 85.999 12l4 -1l-10 -251h-749v1337c18 -1.33301 38 -2.33301 60 -3l70 -2c46.667 -1.33301 97.334 -2 152.001 -2c152.667 0 303.667 2.66699 453 8c-7.33301 -58.667 -11 -137 -11 -235c0 -10.667 0.666992 -18.667 2 -24l-2 -3
c-34.667 10 -84 15 -148 15h-315v-255h237c73.333 0 117.333 2 132 6l3 -247c-32 3.33301 -73.333 5 -124 5h-248v-360h408zM365.999 1618c43.333 69.333 93 134.666 149 195.999l191 -151l-68 -88l-35 -49c-11.333 -15.333 -23.333 -32.666 -36 -51.999z" />
    <glyph glyph-name="edotaccent" unicode="&#x117;" horiz-adv-x="1197" 
d="M97 514c0 78 13.335 150.333 40.002 217s64.334 125 113.001 175c104 106 240 159 408 159c142 0 256 -47 342 -141c84.667 -90.667 127 -204.667 127 -342c0 -52.667 -4 -88.667 -12 -108c-66.667 -18.667 -202.334 -28 -407.001 -28h-352
c17.333 -71.333 57.666 -126.833 120.999 -166.5s145.666 -59.5 246.999 -59.5c106 0 197 19 273 57c20 10 35 19.333 45 28c-1.33301 -28 -3 -56.667 -5 -86l-11 -156c-50.667 -34.667 -132.667 -58.667 -246 -72c-33.333 -4 -65.333 -6 -96 -6
c-169.333 0 -309.333 49.333 -420 148c-111.333 99.333 -167 226.333 -167 381zM861.002 640c-27.333 143.333 -105.334 215.001 -234.001 215.001c-101.333 0 -178.333 -43.667 -231 -131c-16 -26.667 -28.333 -56 -37 -88c16 -0.666992 35.667 -1.33398 59 -2.00098h74
c24.667 -0.666992 48.334 -1 71.001 -1h57c34 0 67.333 0.333008 100 1l82 3c22 0.666992 41.667 1.66699 59 3zM442.001 1336c43.333 69.333 93 134.666 149 195.999l191 -151l-68 -88l-35 -49c-11.333 -15.333 -23.333 -32.666 -36 -51.999z" />
    <glyph glyph-name="Eogonek" unicode="&#x118;" horiz-adv-x="1026" 
d="M863 -320c24.667 0 44.332 5.33301 58.999 16l2 -5l-104 -243c-177.333 0 -297 54 -359 162c-22.667 39.333 -34 88.333 -34 147c0 54.667 21 112 63 172c17.333 24 39.666 47.667 66.999 71h-385v1337c18 -1.33301 38 -2.33301 60 -3l70 -2
c46.667 -1.33301 97.334 -2 152.001 -2c152.667 0 303.667 2.66699 453 8c-7.33301 -58.667 -11 -137 -11 -235c0 -10.667 0.666992 -18.667 2 -24l-2 -3c-34.667 10 -84 15 -148 15h-315v-255h237c73.333 0 117.333 2 132 6l3 -247c-32 3.33301 -73.333 5 -124 5h-248v-360
h408c41.333 0 70 4 86 12l4 -1l-10 -237l10 -14h-11c-69.333 -2.66699 -128.666 -26.667 -177.999 -72c-46.667 -43.333 -70 -91 -70 -143c0 -70 63.667 -105 191 -105z" />
    <glyph glyph-name="eogonek" unicode="&#x119;" horiz-adv-x="1197" 
d="M542 -256c0 78.667 43.3369 159 130.004 241c-166 2.66699 -303 53 -411 151c-109.333 99.333 -164 226 -164 380c0 155.333 51 285.333 153 390c104 106 240 159 408 159c142 0 256 -47 342 -141c84.667 -90.667 127 -204.667 127 -342c0 -52.667 -4 -88.667 -12 -108
c-66.667 -18.667 -202.334 -28 -407.001 -28h-352c17.333 -71.333 57.666 -126.833 120.999 -166.5s145.666 -59.5 246.999 -59.5c106 0 197 19 273 57c20 10 35 19.333 45 28c-1.33301 -28 -3 -56.667 -5 -86l-11 -156l-18 -11c-82 -50 -144 -104.667 -186 -164
c-30 -42 -45 -74.667 -45 -98s5.5 -42 16.5 -56s25.167 -25.333 42.5 -34c31.333 -15.333 65.666 -23 102.999 -23s63.333 5.33301 78 16l2 -5l-104 -243c-248.667 0 -373 99.667 -373 299zM861.004 640c-27.333 143.333 -105.334 215.001 -234.001 215.001
c-101.333 0 -178.333 -43.667 -231 -131c-16 -26.667 -28.333 -56 -37 -88c16 -0.666992 35.667 -1.33398 59 -2.00098h74c24.667 -0.666992 48.334 -1 71.001 -1h57c34 0 67.333 0.333008 100 1l82 3c22 0.666992 41.667 1.66699 59 3z" />
    <glyph glyph-name="Ecaron" unicode="&#x11a;" horiz-adv-x="1026" 
d="M841 240c41.333 0 69.999 4 85.999 12l4 -1l-10 -251h-749v1337c18 -1.33301 38 -2.33301 60 -3l70 -2c46.667 -1.33301 97.334 -2 152.001 -2c152.667 0 303.667 2.66699 453 8c-7.33301 -58.667 -11 -137 -11 -235c0 -10.667 0.666992 -18.667 2 -24l-2 -3
c-34.667 10 -84 15 -148 15h-315v-255h237c73.333 0 117.333 2 132 6l3 -247c-32 3.33301 -73.333 5 -124 5h-248v-360h408zM527.999 1369h-51c-28 0 -50 -1 -66 -3l-242 331l3 3c32 -2 119.667 -3 263 -3l97 -177l113 177l255 3l4 -3l-255 -331z" />
    <glyph glyph-name="ecaron" unicode="&#x11b;" horiz-adv-x="1197" 
d="M97 514c0 78 13.335 150.333 40.002 217s64.334 125 113.001 175c104 106 240 159 408 159c142 0 256 -47 342 -141c84.667 -90.667 127 -204.667 127 -342c0 -52.667 -4 -88.667 -12 -108c-66.667 -18.667 -202.334 -28 -407.001 -28h-352
c17.333 -71.333 57.666 -126.833 120.999 -166.5s145.666 -59.5 246.999 -59.5c106 0 197 19 273 57c20 10 35 19.333 45 28c-1.33301 -28 -3 -56.667 -5 -86l-11 -156c-50.667 -34.667 -132.667 -58.667 -246 -72c-33.333 -4 -65.333 -6 -96 -6
c-169.333 0 -309.333 49.333 -420 148c-111.333 99.333 -167 226.333 -167 381zM861.002 640c-27.333 143.333 -105.334 215.001 -234.001 215.001c-101.333 0 -178.333 -43.667 -231 -131c-16 -26.667 -28.333 -56 -37 -88c16 -0.666992 35.667 -1.33398 59 -2.00098h74
c24.667 -0.666992 48.334 -1 71.001 -1h57c34 0 67.333 0.333008 100 1l82 3c22 0.666992 41.667 1.66699 59 3zM604.001 1188h-51c-28 0 -50 -1 -66 -3l-242 331l3 3c32 -2 119.667 -3 263 -3l97 -177l113 177l255 3l4 -3l-255 -331z" />
    <glyph glyph-name="Gcircumflex" unicode="&#x11c;" horiz-adv-x="1364" 
d="M1268 802c-12.667 -22.667 -18.999 -77 -18.999 -163v-310c0 -94 -48.667 -175.667 -146 -245c-100.667 -72.667 -224 -109 -370 -109c-202.667 0 -364.334 63.667 -485.001 191c-116.667 121.333 -175 276 -175 464c0 200 59.333 366.667 178 500
c132.667 150 315.334 225 548.001 225c155.333 0 278.333 -30 369 -90l-16 -295l-8 -2c-23.333 40.667 -69.333 74 -138 100c-65.333 24.667 -133.833 37 -205.5 37s-134.334 -11.333 -188.001 -34s-99.167 -55 -136.5 -97c-78.667 -86 -118 -199.667 -118 -341
c0 -123.333 34.667 -222.333 104 -297c69.333 -74 158.666 -111 267.999 -111c120.667 0 202 31.333 244 94c13.333 20 20 42.667 20 68v166h-129c-69.333 0 -107 -6 -113 -18l-3 1l-9 261c18.667 -5.33301 94.334 -8 227.001 -8h118c73.333 0 133.333 5 180 15z
M620.001 1473c-143.333 0 -231 -1 -263 -3l-3 3l242 331c16 -2 38 -3 66 -3h51l121 3l255 -331l-4 -3l-255 3l-113 177z" />
    <glyph glyph-name="gcircumflex" unicode="&#x11d;" 
d="M422 278c-24.667 -32.667 -37.0039 -58.499 -37.0039 -77.499s3 -33.667 9 -44s19 -20.166 39 -29.499c44 -20.667 116.333 -38.834 217 -54.501s179.5 -35.167 236.5 -58.5s103.167 -52 138.5 -86c66 -64.667 99 -156.334 99 -275.001s-41.667 -209.834 -125 -273.501
s-207 -95.5 -371 -95.5c-165.333 0 -298.666 36 -399.999 108s-153.333 167.667 -156 287c-4 138.667 50.333 239 163 301c-30.667 25.333 -51.167 55.166 -61.5 89.499s-15.5 73.5 -15.5 117.5c0 74 32.333 136.667 97 188c-75.333 71.333 -113 160 -113 266
c0 118.667 42.667 218 128 298c90 84 206.667 126 350 126c75.333 0 146 -14 212 -42c86.667 36.667 150.334 68.834 191.001 96.501s66.667 47.834 78 60.501l6 -1c6 -16 13 -38.667 21 -68l18 -72c16 -59.333 25.667 -100 29 -122c-29.333 -32 -81 -54.667 -155 -68
c28.667 -55.333 43 -114 43 -176s-10.667 -118.167 -32 -168.5s-51.666 -94.5 -90.999 -132.5c-87.333 -82 -198.666 -123 -333.999 -123c-66 0 -127.333 9.66699 -184 29zM395.996 728.001c-9.33301 -24 -14 -48.332 -14 -72.999s5.16699 -48.334 15.5 -71.001
s25.5 -43 45.5 -61c44.667 -40 103 -60 175 -60c54.667 0 102 18.333 142 55c42 40 63 88.167 63 144.5s-19 101.833 -57 136.5s-90.333 52 -157 52c-110 0 -181 -41 -213 -123zM640.996 -503.998c164 0 246.003 57.333 246.003 172c0 54.667 -26.667 98.667 -80 132
c-60 38 -163 67.667 -309 89l-52 9c-44 -23.333 -76.333 -53.333 -97 -90s-30.834 -71.5 -30.501 -104.5s8.16602 -61.5 23.499 -85.5s36.666 -45 63.999 -63c60.667 -39.333 139 -59 235 -59zM544.999 1188c-143.333 0 -231 -1 -263 -3l-3 3l242 331c16 -2 38 -3 66 -3h51
l121 3l255 -331l-4 -3l-255 3l-113 177z" />
    <glyph glyph-name="Gbreve" unicode="&#x11e;" horiz-adv-x="1364" 
d="M1268 802c-12.667 -22.667 -18.999 -77 -18.999 -163v-310c0 -94 -48.667 -175.667 -146 -245c-100.667 -72.667 -224 -109 -370 -109c-202.667 0 -364.334 63.667 -485.001 191c-116.667 121.333 -175 276 -175 464c0 200 59.333 366.667 178 500
c132.667 150 315.334 225 548.001 225c155.333 0 278.333 -30 369 -90l-16 -295l-8 -2c-23.333 40.667 -69.333 74 -138 100c-65.333 24.667 -133.833 37 -205.5 37s-134.334 -11.333 -188.001 -34s-99.167 -55 -136.5 -97c-78.667 -86 -118 -199.667 -118 -341
c0 -123.333 34.667 -222.333 104 -297c69.333 -74 158.666 -111 267.999 -111c120.667 0 202 31.333 244 94c13.333 20 20 42.667 20 68v166h-129c-69.333 0 -107 -6 -113 -18l-3 1l-9 261c18.667 -5.33301 94.334 -8 227.001 -8h118c73.333 0 133.333 5 180 15zM1066 1806
c6.66699 -6.66699 10.001 -29.333 10.001 -68s-6.83301 -76.834 -20.5 -114.501s-34.834 -71.5 -63.501 -101.5c-64.667 -67.333 -155 -101 -271 -101s-206.333 33.667 -271 101c-56 58.667 -84 130.334 -84 215.001c0 39.333 3.33301 62.333 10 69l133 -3
c6.66699 -52.667 19 -91.667 37 -117c39.333 -56 97.666 -84 174.999 -84s134.333 26 171 78c20.667 29.333 34.334 70.333 41.001 123z" />
    <glyph glyph-name="gbreve" unicode="&#x11f;" 
d="M422 278c-24.667 -32.667 -37.0039 -58.499 -37.0039 -77.499s3 -33.667 9 -44s19 -20.166 39 -29.499c44 -20.667 116.333 -38.834 217 -54.501s179.5 -35.167 236.5 -58.5s103.167 -52 138.5 -86c66 -64.667 99 -156.334 99 -275.001s-41.667 -209.834 -125 -273.501
s-207 -95.5 -371 -95.5c-165.333 0 -298.666 36 -399.999 108s-153.333 167.667 -156 287c-4 138.667 50.333 239 163 301c-30.667 25.333 -51.167 55.166 -61.5 89.499s-15.5 73.5 -15.5 117.5c0 74 32.333 136.667 97 188c-75.333 71.333 -113 160 -113 266
c0 118.667 42.667 218 128 298c90 84 206.667 126 350 126c75.333 0 146 -14 212 -42c86.667 36.667 150.334 68.834 191.001 96.501s66.667 47.834 78 60.501l6 -1c6 -16 13 -38.667 21 -68l18 -72c16 -59.333 25.667 -100 29 -122c-29.333 -32 -81 -54.667 -155 -68
c28.667 -55.333 43 -114 43 -176s-10.667 -118.167 -32 -168.5s-51.666 -94.5 -90.999 -132.5c-87.333 -82 -198.666 -123 -333.999 -123c-66 0 -127.333 9.66699 -184 29zM395.996 728.001c-9.33301 -24 -14 -48.332 -14 -72.999s5.16699 -48.334 15.5 -71.001
s25.5 -43 45.5 -61c44.667 -40 103 -60 175 -60c54.667 0 102 18.333 142 55c42 40 63 88.167 63 144.5s-19 101.833 -57 136.5s-90.333 52 -157 52c-110 0 -181 -41 -213 -123zM640.996 -503.998c164 0 246.003 57.333 246.003 172c0 54.667 -26.667 98.667 -80 132
c-60 38 -163 67.667 -309 89l-52 9c-44 -23.333 -76.333 -53.333 -97 -90s-30.834 -71.5 -30.501 -104.5s8.16602 -61.5 23.499 -85.5s36.666 -45 63.999 -63c60.667 -39.333 139 -59 235 -59zM990.999 1610c6.66699 -6.66699 10.001 -29.333 10.001 -68
s-6.83301 -76.834 -20.5 -114.501s-34.834 -71.5 -63.501 -101.5c-64.667 -67.333 -155 -101 -271 -101s-206.333 33.667 -271 101c-56 58.667 -84 130.334 -84 215.001c0 39.333 3.33301 62.333 10 69l133 -3c6.66699 -52.667 19 -91.667 37 -117
c39.333 -56 97.666 -84 174.999 -84s134.333 26 171 78c20.667 29.333 34.334 70.333 41.001 123z" />
    <glyph glyph-name="Gdotaccent" unicode="&#x120;" horiz-adv-x="1364" 
d="M1268 802c-12.667 -22.667 -18.999 -77 -18.999 -163v-310c0 -94 -48.667 -175.667 -146 -245c-100.667 -72.667 -224 -109 -370 -109c-202.667 0 -364.334 63.667 -485.001 191c-116.667 121.333 -175 276 -175 464c0 200 59.333 366.667 178 500
c132.667 150 315.334 225 548.001 225c155.333 0 278.333 -30 369 -90l-16 -295l-8 -2c-23.333 40.667 -69.333 74 -138 100c-65.333 24.667 -133.833 37 -205.5 37s-134.334 -11.333 -188.001 -34s-99.167 -55 -136.5 -97c-78.667 -86 -118 -199.667 -118 -341
c0 -123.333 34.667 -222.333 104 -297c69.333 -74 158.666 -111 267.999 -111c120.667 0 202 31.333 244 94c13.333 20 20 42.667 20 68v166h-129c-69.333 0 -107 -6 -113 -18l-3 1l-9 261c18.667 -5.33301 94.334 -8 227.001 -8h118c73.333 0 133.333 5 180 15z
M551.001 1618c43.333 69.333 93 134.666 149 195.999l191 -151l-68 -88l-35 -49c-11.333 -15.333 -23.333 -32.666 -36 -51.999z" />
    <glyph glyph-name="gdotaccent" unicode="&#x121;" 
d="M422 278c-24.667 -32.667 -37.0039 -58.499 -37.0039 -77.499s3 -33.667 9 -44s19 -20.166 39 -29.499c44 -20.667 116.333 -38.834 217 -54.501s179.5 -35.167 236.5 -58.5s103.167 -52 138.5 -86c66 -64.667 99 -156.334 99 -275.001s-41.667 -209.834 -125 -273.501
s-207 -95.5 -371 -95.5c-165.333 0 -298.666 36 -399.999 108s-153.333 167.667 -156 287c-4 138.667 50.333 239 163 301c-30.667 25.333 -51.167 55.166 -61.5 89.499s-15.5 73.5 -15.5 117.5c0 74 32.333 136.667 97 188c-75.333 71.333 -113 160 -113 266
c0 118.667 42.667 218 128 298c90 84 206.667 126 350 126c75.333 0 146 -14 212 -42c86.667 36.667 150.334 68.834 191.001 96.501s66.667 47.834 78 60.501l6 -1c6 -16 13 -38.667 21 -68l18 -72c16 -59.333 25.667 -100 29 -122c-29.333 -32 -81 -54.667 -155 -68
c28.667 -55.333 43 -114 43 -176s-10.667 -118.167 -32 -168.5s-51.666 -94.5 -90.999 -132.5c-87.333 -82 -198.666 -123 -333.999 -123c-66 0 -127.333 9.66699 -184 29zM395.996 728.001c-9.33301 -24 -14 -48.332 -14 -72.999s5.16699 -48.334 15.5 -71.001
s25.5 -43 45.5 -61c44.667 -40 103 -60 175 -60c54.667 0 102 18.333 142 55c42 40 63 88.167 63 144.5s-19 101.833 -57 136.5s-90.333 52 -157 52c-110 0 -181 -41 -213 -123zM640.996 -503.998c164 0 246.003 57.333 246.003 172c0 54.667 -26.667 98.667 -80 132
c-60 38 -163 67.667 -309 89l-52 9c-44 -23.333 -76.333 -53.333 -97 -90s-30.834 -71.5 -30.501 -104.5s8.16602 -61.5 23.499 -85.5s36.666 -45 63.999 -63c60.667 -39.333 139 -59 235 -59zM475.999 1336c43.333 69.333 93 134.666 149 195.999l191 -151l-68 -88l-35 -49
c-11.333 -15.333 -23.333 -32.666 -36 -51.999z" />
    <glyph glyph-name="Gcommaaccent" unicode="&#x122;" horiz-adv-x="1364" 
d="M1268 802c-12.667 -22.667 -18.999 -77 -18.999 -163v-310c0 -94 -48.667 -175.667 -146 -245c-100.667 -72.667 -224 -109 -370 -109c-202.667 0 -364.334 63.667 -485.001 191c-116.667 121.333 -175 276 -175 464c0 200 59.333 366.667 178 500
c132.667 150 315.334 225 548.001 225c155.333 0 278.333 -30 369 -90l-16 -295l-8 -2c-23.333 40.667 -69.333 74 -138 100c-65.333 24.667 -133.833 37 -205.5 37s-134.334 -11.333 -188.001 -34s-99.167 -55 -136.5 -97c-78.667 -86 -118 -199.667 -118 -341
c0 -123.333 34.667 -222.333 104 -297c69.333 -74 158.666 -111 267.999 -111c120.667 0 202 31.333 244 94c13.333 20 20 42.667 20 68v166h-129c-69.333 0 -107 -6 -113 -18l-3 1l-9 261c18.667 -5.33301 94.334 -8 227.001 -8h118c73.333 0 133.333 5 180 15z
M539.001 -607c40.667 72 61 145.998 61 221.998s-3.66699 140.667 -11 194l249 40l8 -51c5.33301 -37.333 8 -75.833 8 -115.5s-2 -71.667 -6 -96s-9.33301 -45.166 -16 -62.499c-16 -38.667 -43.333 -66 -82 -82c-42.667 -17.333 -111 -35.666 -205 -54.999z" />
    <glyph glyph-name="gcommaaccent" unicode="&#x123;" 
d="M422 278c-24.667 -32.667 -37.0039 -58.499 -37.0039 -77.499s3 -33.667 9 -44s19 -20.166 39 -29.499c44 -20.667 116.333 -38.834 217 -54.501s179.5 -35.167 236.5 -58.5s103.167 -52 138.5 -86c66 -64.667 99 -156.334 99 -275.001s-41.667 -209.834 -125 -273.501
s-207 -95.5 -371 -95.5c-165.333 0 -298.666 36 -399.999 108s-153.333 167.667 -156 287c-4 138.667 50.333 239 163 301c-30.667 25.333 -51.167 55.166 -61.5 89.499s-15.5 73.5 -15.5 117.5c0 74 32.333 136.667 97 188c-75.333 71.333 -113 160 -113 266
c0 118.667 42.667 218 128 298c90 84 206.667 126 350 126c75.333 0 146 -14 212 -42c86.667 36.667 150.334 68.834 191.001 96.501s66.667 47.834 78 60.501l6 -1c6 -16 13 -38.667 21 -68l18 -72c16 -59.333 25.667 -100 29 -122c-29.333 -32 -81 -54.667 -155 -68
c28.667 -55.333 43 -114 43 -176s-10.667 -118.167 -32 -168.5s-51.666 -94.5 -90.999 -132.5c-87.333 -82 -198.666 -123 -333.999 -123c-66 0 -127.333 9.66699 -184 29zM395.996 728.001c-9.33301 -24 -14 -48.332 -14 -72.999s5.16699 -48.334 15.5 -71.001
s25.5 -43 45.5 -61c44.667 -40 103 -60 175 -60c54.667 0 102 18.333 142 55c42 40 63 88.167 63 144.5s-19 101.833 -57 136.5s-90.333 52 -157 52c-110 0 -181 -41 -213 -123zM640.996 -503.998c164 0 246.003 57.333 246.003 172c0 54.667 -26.667 98.667 -80 132
c-60 38 -163 67.667 -309 89l-52 9c-44 -23.333 -76.333 -53.333 -97 -90s-30.834 -71.5 -30.501 -104.5s8.16602 -61.5 23.499 -85.5s36.666 -45 63.999 -63c60.667 -39.333 139 -59 235 -59zM744.999 1766c-40.667 -72 -61 -145.998 -61 -221.998
s3.66699 -140.667 11 -194l-249 -40l-8 51c-5.33301 37.333 -8 75.833 -8 115.5s2 71.667 6 96s9.33301 45.166 16 62.499c16 38.667 43.333 66 82 82c42.667 17.333 111 35.666 205 54.999z" />
    <glyph glyph-name="Hcircumflex" unicode="&#x124;" horiz-adv-x="1364" 
d="M442 -6c-64 4 -139.998 6 -227.998 6h-32v1335c41.333 -3.33301 70.666 -5 87.999 -5h41c52.667 0 96.334 2.66699 131.001 8v-533h470v530c55.333 -3.33301 109.166 -5 161.499 -5s85.166 2.66699 98.499 8v-1344c-32 4 -95.333 6 -190 6h-70v565h-470v-571z
M581.002 1473c-143.333 0 -231 -1 -263 -3l-3 3l242 331c16 -2 38 -3 66 -3h51l121 3l255 -331l-4 -3l-255 3l-113 177z" />
    <glyph glyph-name="hcircumflex" unicode="&#x125;" 
d="M418 112c0 -57.333 1.33398 -94.665 4.00098 -111.998h-249v1430h245v-463c86 65.333 174.667 98 266 98c112 0 202 -37 270 -111c66.667 -74 100 -172 100 -294v-398c0 -112.667 1.66699 -180.334 5 -203.001s7.83301 -37.334 13.5 -44.001s10.5 -12.667 14.5 -18l-2 -4
c-54 4.66699 -93.333 7 -118 7h-71c-22 0 -51 -1 -87 -3v579c0 92 -20.333 160 -61 204c-30.667 33.333 -72.334 50 -125.001 50c-78 0 -146.333 -45 -205 -135v-583zM563.001 1473c-143.333 0 -231 -1 -263 -3l-3 3l242 331c16 -2 38 -3 66 -3h51l121 3l255 -331l-4 -3
l-255 3l-113 177z" />
    <glyph glyph-name="Hbar" unicode="&#x126;" horiz-adv-x="1364" 
d="M442 -6c-64 4 -139.998 6 -227.998 6h-32v975h-124l10 39c2.66699 8 4 21 4 39s-3.33301 40.333 -10 67h120v215c41.333 -3.33301 70.666 -5 87.999 -5h41c52.667 0 96.334 2.66699 131.001 8v-218h470v215c55.333 -3.33301 109.166 -5 161.499 -5
s85.166 2.66699 98.499 8v-218h127c-4 -21.333 -6 -41 -6 -59v-37c0 -10.667 2 -27 6 -49h-127v-981c-32 4 -95.333 6 -190 6h-70v565h-470v-571zM912.002 805v170h-470v-170h470z" />
    <glyph glyph-name="hbar" unicode="&#x127;" 
d="M418 112c0 -57.333 1.33398 -94.666 4.00098 -111.999h-249v1140h-77l4 26c2.66699 22 4 42 4 60s-2 46 -6 84h75v120h245v-120h234c-2.66699 -33.333 -4 -58.666 -4 -75.999v-36c0 -4 1.33301 -23.333 4 -58h-234v-173c86 65.333 174.667 98 266 98
c112 0 202 -37 270 -111c66.667 -74 100 -172 100 -294v-398c0 -112.667 1.66699 -180.334 5 -203.001s7.83301 -37.334 13.5 -44.001s10.5 -12.667 14.5 -18l-2 -4c-54 4.66699 -93.333 7 -118 7h-71c-22 0 -51 -1 -87 -3v579c0 92 -20.333 160 -61 204
c-30.667 33.333 -72.334 50 -125.001 50c-78 0 -146.333 -45 -205 -135v-583z" />
    <glyph glyph-name="Itilde" unicode="&#x128;" horiz-adv-x="684" 
d="M203 1334c66.667 -2.66699 107.001 -4 121.001 -4h72c35.333 0 63.666 2.66699 84.999 8l-1 -1338h-277v1334zM167.001 1565c-62.667 0 -118.334 -25 -167.001 -75l-4 1l-4 199c45.333 53.333 107 80 185 80c61.333 0 118.333 -18.167 171 -54.5s107 -54.5 163 -54.5
c79.333 0 131.333 28 156 84l2 -2l-10 -216c-11.333 -20 -31.666 -36.5 -60.999 -49.5s-60 -19.5 -92 -19.5s-57.833 2.66699 -77.5 8s-37.834 12 -54.501 20s-32.167 16.5 -46.5 25.5s-29.5 17.5 -45.5 25.5c-37.333 18.667 -75.666 28 -114.999 28z" />
    <glyph glyph-name="itilde" unicode="&#x129;" horiz-adv-x="513" 
d="M378 112c0 -57.333 1.33301 -94.667 4 -112h-254v1045h250v-933zM80 1280c-62.667 0 -118.334 -25 -167.001 -75l-4 1l-4 199c45.333 53.333 107 80 185 80c61.333 0 118.333 -18.167 171 -54.5s107 -54.5 163 -54.5c79.333 0 131.333 28 156 84l2 -2l-10 -216
c-11.333 -20 -31.666 -36.5 -60.999 -49.5s-60 -19.5 -92 -19.5s-57.833 2.66699 -77.5 8s-37.834 12 -54.501 20s-32.167 16.5 -46.5 25.5s-29.5 17.5 -45.5 25.5c-37.333 18.667 -75.666 28 -114.999 28z" />
    <glyph glyph-name="Imacron" unicode="&#x12a;" horiz-adv-x="684" 
d="M203 1334c66.667 -2.66699 107.001 -4 121.001 -4h72c35.333 0 63.666 2.66699 84.999 8l-1 -1338h-277v1334zM674.001 1700c-2.66699 -33.333 -4 -58.667 -4 -76v-34c0 -5.33301 1.33301 -25.333 4 -60h-675l3 26c3.33301 22 5 42 5 60s-2 46 -6 84h673z" />
    <glyph glyph-name="imacron" unicode="&#x12b;" horiz-adv-x="684" 
d="M461 112c0 -57.333 1.33301 -94.667 4 -112h-254v1045h250v-933zM664 1523c-2.66699 -33.333 -4 -58.667 -4 -76v-34c0 -5.33301 1.33301 -25.333 4 -60h-675l3 26c3.33301 22 5 42 5 60s-2 46 -6 84h673z" />
    <glyph glyph-name="Ibreve" unicode="&#x12c;" horiz-adv-x="684" 
d="M203 1334c66.667 -2.66699 107.001 -4 121.001 -4h72c35.333 0 63.666 2.66699 84.999 8l-1 -1338h-277v1334zM676.001 1806c6.66699 -6.66699 10.001 -29.333 10.001 -68s-6.83301 -76.834 -20.5 -114.501s-34.834 -71.5 -63.501 -101.5
c-64.667 -67.333 -155 -101 -271 -101s-206.333 33.667 -271 101c-56 58.667 -84 130.334 -84 215.001c0 39.333 3.33301 62.333 10 69l133 -3c6.66699 -52.667 19 -91.667 37 -117c39.333 -56 97.666 -84 174.999 -84s134.333 26 171 78
c20.667 29.333 34.334 70.333 41.001 123z" />
    <glyph glyph-name="ibreve" unicode="&#x12d;" horiz-adv-x="684" 
d="M461 112c0 -57.333 1.33301 -94.667 4 -112h-254v1045h250v-933zM671 1610c6.66699 -6.66699 10.001 -29.333 10.001 -68s-6.83301 -76.834 -20.5 -114.501s-34.834 -71.5 -63.501 -101.5c-64.667 -67.333 -155 -101 -271 -101s-206.333 33.667 -271 101
c-56 58.667 -84 130.334 -84 215.001c0 39.333 3.33301 62.333 10 69l133 -3c6.66699 -52.667 19 -91.667 37 -117c39.333 -56 97.666 -84 174.999 -84s134.333 26 171 78c20.667 29.333 34.334 70.333 41.001 123z" />
    <glyph glyph-name="Iogonek" unicode="&#x12e;" horiz-adv-x="684" 
d="M439 -318c21.333 -3.33301 43.332 -5.00098 65.999 -5.00098s41.334 5.33301 56.001 16l2 -5l-104 -243c-118 0 -208 17 -270 51c-82 46 -123 122 -123 228c0 65.333 22.667 132 68 200c18 26.667 41 52 69 76v1334c66.667 -2.66699 107 -4 121 -4h41
c56 0 94.667 2.66699 116 8l-1 -1338h-22c-40 -24 -74.333 -62.667 -103 -116c-22.667 -41.333 -34 -73.166 -34 -95.499s5.5 -40.5 16.5 -54.5s25.333 -25.333 43 -34s37.167 -14.667 58.5 -18z" />
    <glyph glyph-name="iogonek" unicode="&#x12f;" horiz-adv-x="513" 
d="M115 1343c53.333 83.333 109.001 156.667 167.001 220l215 -169c-28.667 -35.333 -55.334 -70 -80.001 -104l-77 -109zM354.001 -317.999c21.333 -3.33301 43.332 -5.00195 65.999 -5.00195s41.334 5.33301 56.001 16l2 -5l-104 -243c-118 0 -208 17 -270 51
c-82 46 -123 122 -123 228c0 65.333 23 132 69 200c17.333 26.667 40 52 68 76l10 3v1042h250v-933c0 -57.333 1.33301 -94.666 4 -111.999h-9c-40 -24 -74.333 -62.667 -103 -116c-22.667 -41.333 -34 -73.166 -34 -95.499s5.5 -40.5 16.5 -54.5s25.333 -25.333 43 -34
s37.167 -14.667 58.5 -18z" />
    <glyph glyph-name="Idotaccent" unicode="&#x130;" horiz-adv-x="684" 
d="M203 1334c66.667 -2.66699 107.001 -4 121.001 -4h72c35.333 0 63.666 2.66699 84.999 8l-1 -1338h-277v1334zM161.001 1618c43.333 69.333 93 134.666 149 195.999l191 -151l-68 -88l-35 -49c-11.333 -15.333 -23.333 -32.666 -36 -51.999z" />
    <glyph glyph-name="dotlessi" unicode="&#x131;" horiz-adv-x="513" 
d="M378 112c0 -57.333 1.33301 -94.667 4 -112h-254v1045h250v-933z" />
    <glyph glyph-name="IJ" unicode="&#x132;" horiz-adv-x="1544" 
d="M203 1334c66.667 -2.66699 107.001 -4 121.001 -4h72c35.333 0 63.666 2.66699 84.999 8l-1 -1338h-277v1334zM1132 1335c41.333 -3.33301 71.334 -5 90.001 -5h78c32.667 0 65 2.66699 97 8v-896c0 -146.667 -39 -262 -117 -346c-74 -80.667 -174 -121 -300 -121
c-86.667 0 -159.334 17.333 -218.001 52c-22 12.667 -44 28 -66 46v289l7 2c28 -44 60.833 -80 98.5 -108s84.5 -42 140.5 -42c126.667 0 190 73.333 190 220v901z" />
    <glyph glyph-name="ij" unicode="&#x133;" horiz-adv-x="1026" 
d="M115 1343c53.333 83.333 109.001 156.667 167.001 220l215 -169c-28.667 -35.333 -55.334 -70 -80.001 -104l-77 -109zM378.001 112.001c0 -57.333 1.33301 -94.667 4 -112h-254v1045h250v-933zM608.001 1336c43.333 69.333 93 134.666 149 195.999l191 -151l-68 -88
l-35 -49c-11.333 -15.333 -23.333 -32.666 -36 -51.999zM497.001 -155c98.667 0 148 73.333 148 220v980h243v-908c0 -280 -79.667 -445.667 -239 -497c-52 -16.667 -111 -25 -177 -25l-104 263l2 5c38 -25.333 80.333 -38 127 -38z" />
    <glyph glyph-name="Jcircumflex" unicode="&#x134;" horiz-adv-x="860" 
d="M448 1335c41.333 -3.33301 71.334 -5 90.001 -5h78c32.667 0 65 2.66699 97 8v-896c0 -146.667 -39 -262 -117 -346c-74 -80.667 -174 -121 -300 -121c-86.667 0 -159.334 17.333 -218.001 52c-22 12.667 -44 28 -66 46v289l7 2c28 -44 60.833 -80 98.5 -108
s84.5 -42 140.5 -42c126.667 0 190 73.333 190 220v901zM481.001 1473c-143.333 0 -231 -1 -263 -3l-3 3l242 331c16 -2 38 -3 66 -3h51l121 3l255 -331l-4 -3l-255 3l-113 177z" />
    <glyph glyph-name="jcircumflex" unicode="&#x135;" horiz-adv-x="515" 
d="M-14 -155c97.333 0 146 73.333 146 220v980h245v-908c0 -280 -79.667 -445.667 -239 -497c-52 -16.667 -111 -25 -177 -25l-104 263l2 5c38 -25.333 80.333 -38 127 -38zM156 1188c-143.333 0 -231 -1 -263 -3l-3 3l242 331c16 -2 38 -3 66 -3h51l121 3l255 -331l-4 -3
l-255 3l-113 177z" />
    <glyph glyph-name="Kcommaaccent" unicode="&#x136;" 
d="M427 -6c-46 4 -104.666 6.00098 -175.999 6.00098h-79v1334l40 -2c28 -1.33301 49 -2 63 -2h29c58.667 0 99.667 2.66699 123 8v-565l405 561c42.667 -2.66699 78.667 -4 108 -4h55c68.667 0 117.667 2.66699 147 8l-386 -504l380 -754c16 -36.667 31 -63.334 45 -80.001
h-61c-140.667 -0 -228.334 -2.66699 -263.001 -8c-7.33301 44.667 -17.333 83.667 -30 117l-255 486l-145 -190v-411zM530.001 -606.999c40.667 72 61 145.998 61 221.998s-3.66699 140.667 -11 194l249 40l8 -51c5.33301 -37.333 8 -75.833 8 -115.5s-2 -71.667 -6 -96
s-9.33301 -45.166 -16 -62.499c-16 -38.667 -43.333 -66 -82 -82c-42.667 -17.333 -111 -35.666 -205 -54.999z" />
    <glyph glyph-name="kcommaaccent" unicode="&#x137;" 
d="M407 132c0 -57.333 2.33203 -101.333 6.99902 -132h-252v1430h245v-876l457 491h297l-394 -415l225 -307c48.667 -77.333 85.334 -134 110.001 -170l66 -93c20 -26 36.667 -46 50 -60h-158c-58.667 0 -109 -5 -151 -15l-312 456l-190 -202v-107zM483.999 -607
c40.667 72 61 145.998 61 221.998s-3.66699 140.667 -11 194l249 40l8 -51c5.33301 -37.333 8 -75.833 8 -115.5s-2 -71.667 -6 -96s-9.33301 -45.166 -16 -62.499c-16 -38.667 -43.333 -66 -82 -82c-42.667 -17.333 -111 -35.666 -205 -54.999z" />
    <glyph glyph-name="kgreenlandic" unicode="&#x138;" horiz-adv-x="1194" 
d="M407 132c0 -57.333 2.33203 -101.333 6.99902 -132h-252v1045h245v-491l457 491h297l-394 -415l225 -307c48.667 -77.333 85.334 -134 110.001 -170l66 -93c20 -26 36.667 -46 50 -60h-158c-58.667 0 -109 -5 -151 -15l-312 456l-190 -202v-107z" />
    <glyph glyph-name="Lacute" unicode="&#x139;" horiz-adv-x="855" 
d="M367 0c-98 0 -163 -2 -195 -6v1342c16 -4 49.167 -6 99.5 -6s108.833 1.33301 175.5 4v-1094h207c60 0 108 2 144 6c-4.66699 -156 -7 -237 -7 -243v-10c-65.333 4.66699 -175 7 -329 7h-95zM470 1788c100 0 206.667 5.66699 320 17l-1 -7l-262 -323h-226z" />
    <glyph glyph-name="lacute" unicode="&#x13a;" horiz-adv-x="513" 
d="M379 112c0 -57.333 1.33301 -94.667 4 -112h-254v1355h250v-1243zM207 1788c100 0 206.667 5.66699 320 17l-1 -7l-262 -323h-226z" />
    <glyph glyph-name="Lcommaaccent" unicode="&#x13b;" horiz-adv-x="855" 
d="M367 0c-98 0 -163 -2 -195 -6v1342c16 -4 49.167 -6 99.5 -6s108.833 1.33301 175.5 4v-1094h207c60 0 108 2 144 6c-4.66699 -156 -7 -237 -7 -243v-10c-65.333 4.66699 -175 7 -329 7h-95zM379 -607c40.667 72 61 145.998 61 221.998s-3.66699 140.667 -11 194l249 40
l8 -51c5.33301 -37.333 8 -75.833 8 -115.5s-2 -71.667 -6 -96s-9.33301 -45.166 -16 -62.499c-16 -38.667 -43.333 -66 -82 -82c-42.667 -17.333 -111 -35.666 -205 -54.999z" />
    <glyph glyph-name="lcommaaccent" unicode="&#x13c;" horiz-adv-x="513" 
d="M379 112c0 -57.333 1.33301 -94.667 4 -112h-254v1490h250v-1378zM91 -607.001c40.667 72 61 145.998 61 221.998s-3.66699 140.667 -11 194l249 40l8 -51c5.33301 -37.333 8 -75.833 8 -115.5s-2 -71.667 -6 -96s-9.33301 -45.166 -16 -62.499
c-16 -38.667 -43.333 -66 -82 -82c-42.667 -17.333 -111 -35.666 -205 -54.999z" />
    <glyph glyph-name="Lcaron" unicode="&#x13d;" horiz-adv-x="980" 
d="M367 0c-98 0 -163 -2 -195 -6v1342c16 -4 49.167 -6 99.5 -6s108.833 1.33301 175.5 4v-1094h207c60 0 108 2 144 6c-4.66699 -156 -7 -237 -7 -243v-10c-65.333 4.66699 -175 7 -329 7h-95zM861 1445c7.33301 -70 11 -122.834 11 -158.501s-1.16699 -70.167 -3.5 -103.5
s-5.5 -63.333 -9.5 -90c-10 -57.333 -22 -90.666 -36 -99.999c-16.667 -10.667 -44.667 -19.667 -84 -27l-111 -23l-6 6c10.667 18.667 16 78.667 16 180v99c0 68 -2 127 -6 177z" />
    <glyph glyph-name="lcaron" unicode="&#x13e;" horiz-adv-x="679" 
d="M379 112c0 -57.333 1.33301 -94.667 4 -112h-254v1490h250v-1378zM728 1445c7.33301 -70 11 -122.834 11 -158.501s-1.16699 -70.167 -3.5 -103.5s-5.5 -63.333 -9.5 -90c-10 -57.333 -22 -90.666 -36 -99.999c-16.667 -10.667 -44.667 -19.667 -84 -27l-111 -23l-6 6
c10.667 18.667 16 78.667 16 180v99c0 68 -2 127 -6 177z" />
    <glyph glyph-name="Ldot" unicode="&#x13f;" horiz-adv-x="1022" 
d="M367 0c-98 0 -163 -2 -195 -6v1342c16 -4 49.167 -6 99.5 -6s108.833 1.33301 175.5 4v-1094h207c60 0 108 2 144 6c-4.66699 -156 -7 -237 -7 -243v-10c-65.333 4.66699 -175 7 -329 7h-95zM690 687c6 40.667 9.00098 76.667 9.00098 108s-0.166992 52.833 -0.5 64.5
s-0.833008 23.167 -1.5 34.5s-1.33398 22 -2.00098 32l-3 25h290c-2 -25.333 -3 -46 -3 -62l-2 -42v-71.5c0 -35 1.66699 -64.5 5 -88.5h-292z" />
    <glyph glyph-name="ldot" unicode="&#x140;" horiz-adv-x="851" 
d="M562 605c5.33301 34 8 77.668 8 131.001s-2 92.666 -6 117.999h234c-3.33301 -43.333 -5 -89.833 -5 -139.5s1.66699 -86.167 5 -109.5h-236zM427 112.001c0 -57.333 1.33301 -94.667 4 -112h-254v1490h250v-1378z" />
    <glyph glyph-name="Lslash" unicode="&#x141;" horiz-adv-x="895" 
d="M367 0c-98 0 -162.999 -2 -194.999 -6v575l-143 -49c0.666992 12.667 1 26 1 40v74c-2.66699 63.333 -4.33398 100.333 -5.00098 111l147 51v540c16 -4 49.167 -6 99.5 -6s108.833 1.33301 175.5 4v-442l258 90l1 -112v-90c0 -10 0.333008 -19 1 -27l-260 -90v-423h207
c60 0 108 2 144 6c-4.66699 -156 -7 -237 -7 -243v-10c-65.333 4.66699 -175 7 -329 7h-95z" />
    <glyph glyph-name="lslash" unicode="&#x142;" horiz-adv-x="604" 
d="M427 112c0 -57.333 1.33301 -94.668 4 -112.001h-254v601l-147 -56c0.666992 12.667 1 25 1 37v67l-2 51c-0.666992 17.333 -1.66699 34 -3 50l151 56v624h250v-531l137 51c-1.33301 -17.333 -2 -35 -2 -53v-49c0 -31.333 1.33301 -63.666 4 -96.999l-139 -54v-585z" />
    <glyph glyph-name="Nacute" unicode="&#x143;" horiz-adv-x="1359" 
d="M181 0c4 22.667 6 47.332 6 73.999v1256h200l530 -834v766c0 36.667 -3.33301 59.334 -10 68.001h270c-3.33301 -26.667 -5 -56 -5 -88v-1242h-208l-522 801v-801h-261zM604 1788c100 0 206.667 5.66699 320 17l-1 -7l-262 -323h-226z" />
    <glyph glyph-name="nacute" unicode="&#x144;" horiz-adv-x="1197" 
d="M410 128c0 -58.667 2.66797 -101.332 8.00098 -127.999h-251v1045h243v-89c88 72.667 182 109 282 109c109.333 0 196.666 -37.167 261.999 -111.5s98 -172.166 98 -293.499v-398c0 -112.667 1.66699 -180.334 5 -203.001s7.83301 -37.334 13.5 -44.001
s10.5 -12.667 14.5 -18l-2 -4c-54 4.66699 -93.333 7 -118 7h-70c-21.333 0 -50 -1 -86 -3v545c0 195.333 -59.333 293 -178 293c-88 0 -161.667 -45.333 -221 -136v-571zM631.001 1503c100 0 206.667 5.66699 320 17l-1 -7l-262 -323h-226z" />
    <glyph glyph-name="Ncommaaccent" unicode="&#x145;" horiz-adv-x="1359" 
d="M181 0c4 22.667 6 47.332 6 73.999v1256h200l530 -834v766c0 36.667 -3.33301 59.334 -10 68.001h270c-3.33301 -26.667 -5 -56 -5 -88v-1242h-208l-522 801v-801h-261zM513 -607.002c40.667 72 61 145.998 61 221.998s-3.66699 140.667 -11 194l249 40l8 -51
c5.33301 -37.333 8 -75.833 8 -115.5s-2 -71.667 -6 -96s-9.33301 -45.166 -16 -62.499c-16 -38.667 -43.333 -66 -82 -82c-42.667 -17.333 -111 -35.666 -205 -54.999z" />
    <glyph glyph-name="ncommaaccent" unicode="&#x146;" horiz-adv-x="1197" 
d="M410 128c0 -58.667 2.66797 -101.332 8.00098 -127.999h-251v1045h243v-89c88 72.667 182 109 282 109c109.333 0 196.666 -37.167 261.999 -111.5s98 -172.166 98 -293.499v-398c0 -112.667 1.66699 -180.334 5 -203.001s7.83301 -37.334 13.5 -44.001
s10.5 -12.667 14.5 -18l-2 -4c-54 4.66699 -93.333 7 -118 7h-70c-21.333 0 -50 -1 -86 -3v545c0 195.333 -59.333 293 -178 293c-88 0 -161.667 -45.333 -221 -136v-571zM480.001 -606.998c40.667 72 61 145.998 61 221.998s-3.66699 140.667 -11 194l249 40l8 -51
c5.33301 -37.333 8 -75.833 8 -115.5s-2 -71.667 -6 -96s-9.33301 -45.166 -16 -62.499c-16 -38.667 -43.333 -66 -82 -82c-42.667 -17.333 -111 -35.666 -205 -54.999z" />
    <glyph glyph-name="Ncaron" unicode="&#x147;" horiz-adv-x="1359" 
d="M181 0c4 22.667 6 47.332 6 73.999v1256h200l530 -834v766c0 36.667 -3.33301 59.334 -10 68.001h270c-3.33301 -26.667 -5 -56 -5 -88v-1242h-208l-522 801v-801h-261zM671 1369h-51c-28 0 -50 -1 -66 -3l-242 331l3 3c32 -2 119.667 -3 263 -3l97 -177l113 177l255 3
l4 -3l-255 -331z" />
    <glyph glyph-name="ncaron" unicode="&#x148;" horiz-adv-x="1197" 
d="M410 128c0 -58.667 2.66797 -101.332 8.00098 -127.999h-251v1045h243v-89c88 72.667 182 109 282 109c109.333 0 196.666 -37.167 261.999 -111.5s98 -172.166 98 -293.499v-398c0 -112.667 1.66699 -180.334 5 -203.001s7.83301 -37.334 13.5 -44.001
s10.5 -12.667 14.5 -18l-2 -4c-54 4.66699 -93.333 7 -118 7h-70c-21.333 0 -50 -1 -86 -3v545c0 195.333 -59.333 293 -178 293c-88 0 -161.667 -45.333 -221 -136v-571zM638.001 1188h-51c-28 0 -50 -1 -66 -3l-242 331l3 3c32 -2 119.667 -3 263 -3l97 -177l113 177
l255 3l4 -3l-255 -331z" />
    <glyph glyph-name="Eng" unicode="&#x14a;" horiz-adv-x="1359" 
d="M181 0c4 22.667 6.00098 47.3311 6.00098 73.998v1256h220l509 -829v761c0 36.667 -3.33301 59.334 -10 68.001h270c-3.33301 -26.667 -5 -56 -5 -88l1 -1348c0 -144.667 -45.333 -260 -136 -346c-84.667 -80.667 -188.5 -121 -311.5 -121s-223.833 32.667 -302.5 98v249
l7 2c56 -58 116.667 -92.667 182 -104c23.333 -4 50.666 -6 81.999 -6s61 5.33301 89 16s52 26 72 46c42 40.667 63 93.334 63 158.001v172l-475 731v-789h-261z" />
    <glyph glyph-name="eng" unicode="&#x14b;" horiz-adv-x="1197" 
d="M410 128c0 -58.667 2.66797 -101.334 8.00098 -128.001h-251v1045h243v-89c88 72.667 182.333 109 283 109c109.333 0 196.666 -37.167 261.999 -111.5s98 -172.166 98 -293.499v-218c0 -314 -3 -506 -9 -576s-19.833 -129.5 -41.5 -178.5s-50.167 -88.167 -85.5 -117.5
c-66 -54.667 -159.667 -82 -281 -82l-104 263l2 5c38 -25.333 74.5 -38 109.5 -38s61.667 4 80 12s33.833 20.667 46.5 38c25.333 37.333 38 94 38 170l2 604c0 195.333 -59.333 293 -178 293c-88.667 0 -162.667 -45.333 -222 -136v-571z" />
    <glyph glyph-name="Omacron" unicode="&#x14c;" horiz-adv-x="1535" 
d="M137.5 367c-35 81.333 -52.499 170.499 -52.499 267.499s16.333 188.833 49 275.5s79.334 163 140.001 229s134 118.5 220 157.5s182.333 58.5 289 58.5c184 0 339 -58 465 -174c134.667 -124 202 -291.333 202 -502c0 -204 -69.333 -373.667 -208 -509
c-85.333 -83.333 -187 -140.666 -305 -171.999c-58 -15.333 -125.833 -23 -203.5 -23s-157.334 16 -239.001 48s-152.834 77 -213.501 135s-108.5 127.667 -143.5 209zM363.001 647.999c0 -62 10.3311 -119.001 30.998 -171.001s49.334 -96.667 86.001 -134
c78 -78.667 178.333 -118 301 -118c116.667 0 210.334 37.667 281.001 113c72 78 108 184.333 108 319c0 126.667 -34.333 232.334 -103 317.001c-74 90.667 -175.333 136 -304 136c-124.667 0 -223.667 -46 -297 -138c-68.667 -86 -103 -194 -103 -324zM1111 1700
c-2.66699 -33.333 -4 -58.667 -4 -76v-34c0 -5.33301 1.33301 -25.333 4 -60h-675l3 26c3.33301 22 5 42 5 60s-2 46 -6 84h673z" />
    <glyph glyph-name="omacron" unicode="&#x14d;" horiz-adv-x="1197" 
d="M71 517c0 73.333 12.5 143.499 37.5 210.499s60.833 125.5 107.5 175.5c102 108 234.333 162 397 162c162 0 290.667 -51 386 -153c91.333 -97.333 137 -223.666 137 -378.999s-47 -284 -141 -386c-99.333 -108 -231 -162 -395 -162c-169.333 0 -302 53 -398 159
c-87.333 96.667 -131 221 -131 373zM314 522.999c0 -42 6.99902 -82.666 20.999 -121.999s34 -73 60 -101c55.333 -60.667 128 -91 218 -91c83.333 0 149 29.667 197 89c46.667 57.333 70 132 70 224c0 93.333 -24 168.666 -72 225.999
c-51.333 61.333 -121.666 92 -210.999 92c-90.667 0 -161.667 -32.667 -213 -98c-46.667 -60 -70 -133 -70 -219zM935.999 1523c-2.66699 -33.333 -4 -58.667 -4 -76v-34c0 -5.33301 1.33301 -25.333 4 -60h-675l3 26c3.33301 22 5 42 5 60s-2 46 -6 84h673z" />
    <glyph glyph-name="Obreve" unicode="&#x14e;" horiz-adv-x="1535" 
d="M137.5 367c-35 81.333 -52.499 170.499 -52.499 267.499s16.333 188.833 49 275.5s79.334 163 140.001 229s134 118.5 220 157.5s182.333 58.5 289 58.5c184 0 339 -58 465 -174c134.667 -124 202 -291.333 202 -502c0 -204 -69.333 -373.667 -208 -509
c-85.333 -83.333 -187 -140.666 -305 -171.999c-58 -15.333 -125.833 -23 -203.5 -23s-157.334 16 -239.001 48s-152.834 77 -213.501 135s-108.5 127.667 -143.5 209zM363.001 647.999c0 -62 10.3311 -119.001 30.998 -171.001s49.334 -96.667 86.001 -134
c78 -78.667 178.333 -118 301 -118c116.667 0 210.334 37.667 281.001 113c72 78 108 184.333 108 319c0 126.667 -34.333 232.334 -103 317.001c-74 90.667 -175.333 136 -304 136c-124.667 0 -223.667 -46 -297 -138c-68.667 -86 -103 -194 -103 -324zM1112 1806
c6.66699 -6.66699 10.001 -29.333 10.001 -68s-6.83301 -76.834 -20.5 -114.501s-34.834 -71.5 -63.501 -101.5c-64.667 -67.333 -155 -101 -271 -101s-206.333 33.667 -271 101c-56 58.667 -84 130.334 -84 215.001c0 39.333 3.33301 62.333 10 69l133 -3
c6.66699 -52.667 19 -91.667 37 -117c39.333 -56 97.666 -84 174.999 -84s134.333 26 171 78c20.667 29.333 34.334 70.333 41.001 123z" />
    <glyph glyph-name="obreve" unicode="&#x14f;" horiz-adv-x="1197" 
d="M71 517c0 73.333 12.5 143.499 37.5 210.499s60.833 125.5 107.5 175.5c102 108 234.333 162 397 162c162 0 290.667 -51 386 -153c91.333 -97.333 137 -223.666 137 -378.999s-47 -284 -141 -386c-99.333 -108 -231 -162 -395 -162c-169.333 0 -302 53 -398 159
c-87.333 96.667 -131 221 -131 373zM314 522.999c0 -42 6.99902 -82.666 20.999 -121.999s34 -73 60 -101c55.333 -60.667 128 -91 218 -91c83.333 0 149 29.667 197 89c46.667 57.333 70 132 70 224c0 93.333 -24 168.666 -72 225.999
c-51.333 61.333 -121.666 92 -210.999 92c-90.667 0 -161.667 -32.667 -213 -98c-46.667 -60 -70 -133 -70 -219zM942.999 1610c6.66699 -6.66699 10.001 -29.333 10.001 -68s-6.83301 -76.834 -20.5 -114.501s-34.834 -71.5 -63.501 -101.5
c-64.667 -67.333 -155 -101 -271 -101s-206.333 33.667 -271 101c-56 58.667 -84 130.334 -84 215.001c0 39.333 3.33301 62.333 10 69l133 -3c6.66699 -52.667 19 -91.667 37 -117c39.333 -56 97.666 -84 174.999 -84s134.333 26 171 78
c20.667 29.333 34.334 70.333 41.001 123z" />
    <glyph glyph-name="Ohungarumlaut" unicode="&#x150;" horiz-adv-x="1535" 
d="M137.5 367c-35 81.333 -52.499 170.499 -52.499 267.499s16.333 188.833 49 275.5s79.334 163 140.001 229s134 118.5 220 157.5s182.333 58.5 289 58.5c184 0 339 -58 465 -174c134.667 -124 202 -291.333 202 -502c0 -204 -69.333 -373.667 -208 -509
c-85.333 -83.333 -187 -140.666 -305 -171.999c-58 -15.333 -125.833 -23 -203.5 -23s-157.334 16 -239.001 48s-152.834 77 -213.501 135s-108.5 127.667 -143.5 209zM363.001 647.999c0 -62 10.3311 -119.001 30.998 -171.001s49.334 -96.667 86.001 -134
c78 -78.667 178.333 -118 301 -118c116.667 0 210.334 37.667 281.001 113c72 78 108 184.333 108 319c0 126.667 -34.333 232.334 -103 317.001c-74 90.667 -175.333 136 -304 136c-124.667 0 -223.667 -46 -297 -138c-68.667 -86 -103 -194 -103 -324zM998.999 1808
c53.333 0 136.667 5.66699 250 17l-1 -7l-262 -323h-156zM614 1808c34.667 0 64.667 1.33301 90 4l140 13l-1 -7l-262 -323h-136z" />
    <glyph glyph-name="ohungarumlaut" unicode="&#x151;" horiz-adv-x="1197" 
d="M71 517c0 73.333 12.5 143.499 37.5 210.499s60.833 125.5 107.5 175.5c102 108 234.333 162 397 162c162 0 290.667 -51 386 -153c91.333 -97.333 137 -223.666 137 -378.999s-47 -284 -141 -386c-99.333 -108 -231 -162 -395 -162c-169.333 0 -302 53 -398 159
c-87.333 96.667 -131 221 -131 373zM314 522.999c0 -42 6.99902 -82.666 20.999 -121.999s34 -73 60 -101c55.333 -60.667 128 -91 218 -91c83.333 0 149 29.667 197 89c46.667 57.333 70 132 70 224c0 93.333 -24 168.666 -72 225.999
c-51.333 61.333 -121.666 92 -210.999 92c-90.667 0 -161.667 -32.667 -213 -98c-46.667 -60 -70 -133 -70 -219zM829.999 1503c53.333 0 136.667 5.66699 250 17l-1 -7l-262 -323h-156zM445 1503c34.667 0 64.667 1 90 3l140 14l-1 -7l-262 -323h-136z" />
    <glyph glyph-name="OE" unicode="&#x152;" horiz-adv-x="2043" 
d="M1181 143c-126 -112 -271.332 -168 -435.999 -168c-190.667 0 -349.667 61 -477 183c-130.667 124.667 -196 284.334 -196 479.001c0 197.333 63.333 364.666 190 501.999c133.333 144 303.333 216 510 216c157.333 0 293.666 -48.667 408.999 -146v128
c18 -1.33301 37.667 -2.33301 59 -3l68 -2c45.333 -1.33301 95 -2 149 -2c163.333 0 319.666 2.66699 468.999 8c-7.33301 -58.667 -11 -137 -11 -235c0 -10.667 0.666992 -18.667 2 -24l-2 -3c-35.333 10 -84.666 15 -147.999 15h-331v-255h292c73.333 0 117.333 2 132 6
l3 -247c-32 3.33301 -73.333 5 -124 5h-303v-360h424c41.333 0 70 4 86 12l4 -1l-10 -251h-759v143zM330.001 648c0 -62 11.501 -119.5 34.501 -172.5s54.167 -98.833 93.5 -137.5c83.333 -82 186.666 -123 309.999 -123c116.667 0 213.667 39.667 291 119
c81.333 84 122 191.667 122 323c0 130 -41 238.333 -123 325c-82 85.333 -184 128 -306 128c-126 0 -229 -46 -309 -138c-75.333 -87.333 -113 -195.333 -113 -324z" />
    <glyph glyph-name="oe" unicode="&#x153;" horiz-adv-x="2043" 
d="M1527 -15c-208 0 -367 63.999 -477 191.999c-51.333 -60 -114.333 -107 -189 -141s-157.834 -51 -249.501 -51s-172.167 15.5 -241.5 46.5s-126.666 71.5 -171.999 121.5c-90 98 -135 217.667 -135 359c0 159.333 51.667 290.666 155 393.999
c106 106 247.5 159 424.5 159s315.167 -62.667 414.5 -188c105.333 125.333 250 188 434 188c142.667 0 259 -43.333 349 -130c93.333 -89.333 140 -207 140 -353c0 -38.667 -4 -74 -12 -106c-74 -20 -213 -30 -417 -30h-143c-43.333 0 -83 0.666992 -119 2v222
c27.333 -4.66699 67.166 -7 119.499 -7s90 0.166992 113 0.5s47.167 0.833008 72.5 1.5l73 2c24 0.666992 45.333 1.66699 64 3c-24.667 76 -84.334 127 -179.001 153c-29.333 8 -61.833 12 -97.5 12s-70.334 -6.66699 -104.001 -20s-63.167 -32.333 -88.5 -57
c-53.333 -52 -82.666 -119.333 -87.999 -202l1 -36v-12c0 -3.33301 0.833008 -16.666 2.5 -39.999s12.834 -52.166 33.501 -86.499s48 -63.5 82 -87.5c70 -49.333 164.333 -74 283 -74s221.334 35.333 308.001 106c-3.33301 -74 -8.33301 -161.667 -15 -263
c-53.333 -34.667 -135 -58.667 -245 -72c-32.667 -4 -65 -6 -97 -6zM307 525.999c0 -40 8.16699 -78.833 24.5 -116.5s38.5 -70.834 66.5 -99.501c60 -60.667 133.667 -91 221 -91c88 0 161 26.333 219 79c61.333 55.333 92 128 92 218
c0 90.667 -28.667 166.334 -86 227.001c-57.333 61.333 -131.333 92 -222 92c-94.667 0 -172 -32 -232 -96c-55.333 -58.667 -83 -129.667 -83 -213z" />
    <glyph glyph-name="Racute" unicode="&#x154;" 
d="M602 517c-20 -1.33301 -41.332 -1.99902 -63.999 -1.99902s-56.334 1.66699 -101.001 5v-520h-265v1337c93.333 12 208 18 344 18c185.333 0 323.5 -34.167 414.5 -102.5s136.5 -173.833 136.5 -316.5c0 -110.667 -41.667 -205.334 -125 -284.001
c-27.333 -25.333 -58.666 -47.333 -93.999 -66l204 -430c40 -88.667 70.667 -141.334 92 -158.001l-5 -5c-64.667 10.667 -166.334 10.334 -305.001 -0.999023zM535.001 1119c-34 0 -66.667 -1.66797 -98 -5.00098v-382c32.667 -4.66699 71 -7 115 -7s81 3.83301 111 11.5
s56 19.5 78 35.5c47.333 35.333 71 88.333 71 159s-24.667 120.334 -74 149.001c-46 26 -113.667 39 -203 39zM618.001 1788c100 0 206.667 5.66699 320 17l-1 -7l-262 -323h-226z" />
    <glyph glyph-name="racute" unicode="&#x155;" horiz-adv-x="684" 
d="M383 112c0 -57.333 1.33203 -94.667 3.99902 -112h-249v1045h245v-77c56.667 64.667 116.167 97 178.5 97s111.5 -7.66699 147.5 -23l-18 -269l-4 -3c-23.333 41.333 -71.666 62 -144.999 62c-28 0 -56.5 -9.5 -85.5 -28.5s-53.5 -44.167 -73.5 -75.5v-616zM442.999 1503
c100 0 206.667 5.66699 320 17l-1 -7l-262 -323h-226z" />
    <glyph glyph-name="Rcommaaccent" unicode="&#x156;" 
d="M602 517c-20 -1.33301 -41.332 -1.99902 -63.999 -1.99902s-56.334 1.66699 -101.001 5v-520h-265v1337c93.333 12 208 18 344 18c185.333 0 323.5 -34.167 414.5 -102.5s136.5 -173.833 136.5 -316.5c0 -110.667 -41.667 -205.334 -125 -284.001
c-27.333 -25.333 -58.666 -47.333 -93.999 -66l204 -430c40 -88.667 70.667 -141.334 92 -158.001l-5 -5c-64.667 10.667 -166.334 10.334 -305.001 -0.999023zM535.001 1119c-34 0 -66.667 -1.66797 -98 -5.00098v-382c32.667 -4.66699 71 -7 115 -7s81 3.83301 111 11.5
s56 19.5 78 35.5c47.333 35.333 71 88.333 71 159s-24.667 120.334 -74 149.001c-46 26 -113.667 39 -203 39zM527.001 -607c40.667 72 61 145.998 61 221.998s-3.66699 140.667 -11 194l249 40l8 -51c5.33301 -37.333 8 -75.833 8 -115.5s-2 -71.667 -6 -96
s-9.33301 -45.166 -16 -62.499c-16 -38.667 -43.333 -66 -82 -82c-42.667 -17.333 -111 -35.666 -205 -54.999z" />
    <glyph glyph-name="rcommaaccent" unicode="&#x157;" horiz-adv-x="684" 
d="M383 112c0 -57.333 1.33203 -94.667 3.99902 -112h-249v1045h245v-77c56.667 64.667 116.167 97 178.5 97s111.5 -7.66699 147.5 -23l-18 -269l-4 -3c-23.333 41.333 -71.666 62 -144.999 62c-28 0 -56.5 -9.5 -85.5 -28.5s-53.5 -44.167 -73.5 -75.5v-616z
M112.999 -607.001c40.667 72 61 145.998 61 221.998s-3.66699 140.667 -11 194l249 40l8 -51c5.33301 -37.333 8 -75.833 8 -115.5s-2 -71.667 -6 -96s-9.33301 -45.166 -16 -62.499c-16 -38.667 -43.333 -66 -82 -82c-42.667 -17.333 -111 -35.666 -205 -54.999z" />
    <glyph glyph-name="Rcaron" unicode="&#x158;" 
d="M602 517c-20 -1.33301 -41.332 -1.99902 -63.999 -1.99902s-56.334 1.66699 -101.001 5v-520h-265v1337c93.333 12 208 18 344 18c185.333 0 323.5 -34.167 414.5 -102.5s136.5 -173.833 136.5 -316.5c0 -110.667 -41.667 -205.334 -125 -284.001
c-27.333 -25.333 -58.666 -47.333 -93.999 -66l204 -430c40 -88.667 70.667 -141.334 92 -158.001l-5 -5c-64.667 10.667 -166.334 10.334 -305.001 -0.999023zM535.001 1119c-34 0 -66.667 -1.66797 -98 -5.00098v-382c32.667 -4.66699 71 -7 115 -7s81 3.83301 111 11.5
s56 19.5 78 35.5c47.333 35.333 71 88.333 71 159s-24.667 120.334 -74 149.001c-46 26 -113.667 39 -203 39zM685.001 1369h-51c-28 0 -50 -1 -66 -3l-242 331l3 3c32 -2 119.667 -3 263 -3l97 -177l113 177l255 3l4 -3l-255 -331z" />
    <glyph glyph-name="rcaron" unicode="&#x159;" horiz-adv-x="684" 
d="M383 112c0 -57.333 1.33203 -94.667 3.99902 -112h-249v1045h245v-77c56.667 64.667 116.167 97 178.5 97s111.5 -7.66699 147.5 -23l-18 -269l-4 -3c-23.333 41.333 -71.666 62 -144.999 62c-28 0 -56.5 -9.5 -85.5 -28.5s-53.5 -44.167 -73.5 -75.5v-616zM450.999 1188
h-51c-28 0 -50 -1 -66 -3l-242 331l3 3c32 -2 119.667 -3 263 -3l97 -177l113 177l255 3l4 -3l-255 -331z" />
    <glyph glyph-name="Sacute" unicode="&#x15a;" 
d="M975 1256l-19.0049 -294.002l-7 -2c-49.333 74 -133.333 122 -252 144c-37.333 7.33301 -73.166 11 -107.499 11s-63.666 -3 -87.999 -9s-45.166 -14.667 -62.499 -26c-36.667 -24 -55 -55.333 -55 -94c0 -50.667 16 -88.667 48 -114
c40 -30.667 106.333 -52.167 199 -64.5s167 -29.166 223 -50.499s102 -48.333 138 -81c68 -61.333 102 -148 102 -260c0 -146.667 -55.333 -259.667 -166 -339c-94.667 -68 -214 -102 -358 -102c-116 0 -230.667 22 -344 66c-37.333 14.667 -70 31.667 -98 51l11 334l4 3
c82.667 -142.667 218.334 -214 407.001 -214c134 0 222.667 32.333 266 97c14.667 22 22 46.5 22 73.5s-4.33301 49.333 -13 67s-23 32.834 -43 45.501c-38.667 25.333 -103.667 42.333 -195 51s-166 25 -224 49s-104.333 53.667 -139 89c-62.667 64 -94 153.333 -94 268
c0 118.667 41.667 214.667 125 288c84.667 74.667 198.834 112 342.501 112s269.5 -33 377.5 -99zM520.995 1788c100 0 206.667 5.66699 320 17l-1 -7l-262 -323h-226z" />
    <glyph glyph-name="sacute" unicode="&#x15b;" horiz-adv-x="1026" 
d="M499 -15c-188 0 -329.667 34.334 -425 103.001c1.33301 20 3.33301 42.667 6 68l9 72l10 88.5c1.33301 11.667 2.33301 18 3 19s6 -4.33301 16 -16s29 -25.834 57 -42.501s60.333 -31.334 97 -44.001c79.333 -27.333 162 -41 248 -41c115.333 0 173 38.333 173 115
c0 24.667 -11 43 -33 55c-39.333 20 -97.166 35.167 -173.499 45.5s-138.833 25.5 -187.5 45.5s-88.334 44 -119.001 72c-56.667 52.667 -85 121.667 -85 207c0 104 40 185.667 120 245c79.333 58.667 189 88 329 88c138.667 0 257 -39.333 355 -118
c-4.66699 -17.333 -9.66699 -34 -15 -50c-15.333 -44 -26.666 -75.667 -33.999 -95l-23 -59c-1.33301 -5.33301 -2.33301 -8 -3 -8c-1.33301 0 -6.66602 7 -15.999 21c-42 48.667 -107.333 80.667 -196 96c-27.333 5.33301 -55.333 8 -84 8
c-121.333 0 -182 -36.667 -182 -110c0 -25.333 12.667 -44.666 38 -57.999c47.333 -25.333 112.166 -44 194.499 -56s144.833 -28.167 187.5 -48.5s77 -44.833 103 -73.5c48 -52 72 -121 72 -207c0 -94 -37.667 -170.333 -113 -229c-78.667 -62 -188.334 -93 -329.001 -93z
M497 1503c100 0 206.667 5.66699 320 17l-1 -7l-262 -323h-226z" />
    <glyph glyph-name="Scircumflex" unicode="&#x15c;" 
d="M975 1256l-19.0049 -294.002l-7 -2c-49.333 74 -133.333 122 -252 144c-37.333 7.33301 -73.166 11 -107.499 11s-63.666 -3 -87.999 -9s-45.166 -14.667 -62.499 -26c-36.667 -24 -55 -55.333 -55 -94c0 -50.667 16 -88.667 48 -114
c40 -30.667 106.333 -52.167 199 -64.5s167 -29.166 223 -50.499s102 -48.333 138 -81c68 -61.333 102 -148 102 -260c0 -146.667 -55.333 -259.667 -166 -339c-94.667 -68 -214 -102 -358 -102c-116 0 -230.667 22 -344 66c-37.333 14.667 -70 31.667 -98 51l11 334l4 3
c82.667 -142.667 218.334 -214 407.001 -214c134 0 222.667 32.333 266 97c14.667 22 22 46.5 22 73.5s-4.33301 49.333 -13 67s-23 32.834 -43 45.501c-38.667 25.333 -103.667 42.333 -195 51s-166 25 -224 49s-104.333 53.667 -139 89c-62.667 64 -94 153.333 -94 268
c0 118.667 41.667 214.667 125 288c84.667 74.667 198.834 112 342.501 112s269.5 -33 377.5 -99zM494.995 1473c-143.333 0 -231 -1 -263 -3l-3 3l242 331c16 -2 38 -3 66 -3h51l121 3l255 -331l-4 -3l-255 3l-113 177z" />
    <glyph glyph-name="scircumflex" unicode="&#x15d;" horiz-adv-x="1026" 
d="M499 -15c-188 0 -329.667 34.334 -425 103.001c1.33301 20 3.33301 42.667 6 68l9 72l10 88.5c1.33301 11.667 2.33301 18 3 19s6 -4.33301 16 -16s29 -25.834 57 -42.501s60.333 -31.334 97 -44.001c79.333 -27.333 162 -41 248 -41c115.333 0 173 38.333 173 115
c0 24.667 -11 43 -33 55c-39.333 20 -97.166 35.167 -173.499 45.5s-138.833 25.5 -187.5 45.5s-88.334 44 -119.001 72c-56.667 52.667 -85 121.667 -85 207c0 104 40 185.667 120 245c79.333 58.667 189 88 329 88c138.667 0 257 -39.333 355 -118
c-4.66699 -17.333 -9.66699 -34 -15 -50c-15.333 -44 -26.666 -75.667 -33.999 -95l-23 -59c-1.33301 -5.33301 -2.33301 -8 -3 -8c-1.33301 0 -6.66602 7 -15.999 21c-42 48.667 -107.333 80.667 -196 96c-27.333 5.33301 -55.333 8 -84 8
c-121.333 0 -182 -36.667 -182 -110c0 -25.333 12.667 -44.666 38 -57.999c47.333 -25.333 112.166 -44 194.499 -56s144.833 -28.167 187.5 -48.5s77 -44.833 103 -73.5c48 -52 72 -121 72 -207c0 -94 -37.667 -170.333 -113 -229c-78.667 -62 -188.334 -93 -329.001 -93z
M411 1188c-143.333 0 -231 -1 -263 -3l-3 3l242 331c16 -2 38 -3 66 -3h51l121 3l255 -331l-4 -3l-255 3l-113 177z" />
    <glyph glyph-name="Scedilla" unicode="&#x15e;" 
d="M715 -11c6 -42 8.99414 -89.834 8.99414 -143.501s-7.5 -98.834 -22.5 -135.501s-32.167 -60.667 -51.5 -72c-39.333 -25.333 -111 -48.666 -215 -69.999l-6 6c32.667 46.667 54.334 144.667 65.001 294c3.33301 40 5 77 5 111c-106 9.33301 -203.333 32.666 -292 69.999
c-30 12.667 -56.333 27 -79 43l11 334l4 3c82.667 -142.667 218.334 -214 407.001 -214c134 0 222.667 32.333 266 97c14.667 22 22 46.5 22 73.5s-4.33301 49.333 -13 67s-23 32.834 -43 45.501c-38.667 25.333 -103.667 42.333 -195 51s-166 25 -224 49
s-104.333 53.667 -139 89c-62.667 64 -94 153.333 -94 268c0 118.667 41.667 214.667 125 288c84.667 74.667 198.834 112 342.501 112s269.5 -33 377.5 -99l-19 -294l-7 -2c-49.333 74 -133.333 122 -252 144c-37.333 7.33301 -73.166 11 -107.499 11
s-63.666 -3 -87.999 -9s-45.166 -14.667 -62.499 -26c-36.667 -24 -55 -55.333 -55 -94c0 -50.667 16 -88.667 48 -114c40 -30.667 106.333 -52.167 199 -64.5s167 -29.166 223 -50.499s102 -48.333 138 -81c68 -61.333 102 -148 102 -260c0 -120 -37.667 -218 -113 -294
c-65.333 -66.667 -154 -111 -266 -133z" />
    <glyph glyph-name="scedilla" unicode="&#x15f;" horiz-adv-x="1026" 
d="M415 -12c-146.667 8.66699 -260.333 41.999 -341 99.999c1.33301 20 3.33301 42.667 6 68l9 72l10 88.5c1.33301 11.667 2.33301 18 3 19s6 -4.33301 16 -16s29 -25.834 57 -42.501s60.333 -31.334 97 -44.001c79.333 -27.333 162 -41 248 -41
c115.333 0 173 38.333 173 115c0 24.667 -11 43 -33 55c-39.333 20 -97.166 35.167 -173.499 45.5s-138.833 25.5 -187.5 45.5s-88.334 44 -119.001 72c-56.667 52.667 -85 121.667 -85 207c0 104 40 185.667 120 245c79.333 58.667 189 88 329 88
c138.667 0 257 -39.333 355 -118c-4.66699 -17.333 -9.66699 -34 -15 -50c-15.333 -44 -26.666 -75.667 -33.999 -95l-23 -59c-1.33301 -5.33301 -2.33301 -8 -3 -8c-1.33301 0 -6.66602 7 -15.999 21c-42 48.667 -107.333 80.667 -196 96c-27.333 5.33301 -55.333 8 -84 8
c-121.333 0 -182 -36.667 -182 -110c0 -25.333 12.667 -44.666 38 -57.999c47.333 -25.333 112.166 -44 194.499 -56s144.833 -28.167 187.5 -48.5s77 -44.833 103 -73.5c48 -52 72 -121 72 -207c0 -120.667 -58.667 -210.334 -176 -269.001
c-38.667 -19.333 -83.334 -33.333 -134.001 -42c6 -45.333 9 -95.166 9 -149.499s-7.5 -99.833 -22.5 -136.5s-32.167 -60.667 -51.5 -72c-39.333 -25.333 -111 -48.666 -215 -69.999l-6 6c32 46.667 53.667 147.334 65 302.001c3.33301 40.667 5 78 5 112z" />
    <glyph glyph-name="Scaron" unicode="&#x160;" 
d="M975 1256l-19.0049 -294.002l-7 -2c-49.333 74 -133.333 122 -252 144c-37.333 7.33301 -73.166 11 -107.499 11s-63.666 -3 -87.999 -9s-45.166 -14.667 -62.499 -26c-36.667 -24 -55 -55.333 -55 -94c0 -50.667 16 -88.667 48 -114
c40 -30.667 106.333 -52.167 199 -64.5s167 -29.166 223 -50.499s102 -48.333 138 -81c68 -61.333 102 -148 102 -260c0 -146.667 -55.333 -259.667 -166 -339c-94.667 -68 -214 -102 -358 -102c-116 0 -230.667 22 -344 66c-37.333 14.667 -70 31.667 -98 51l11 334l4 3
c82.667 -142.667 218.334 -214 407.001 -214c134 0 222.667 32.333 266 97c14.667 22 22 46.5 22 73.5s-4.33301 49.333 -13 67s-23 32.834 -43 45.501c-38.667 25.333 -103.667 42.333 -195 51s-166 25 -224 49s-104.333 53.667 -139 89c-62.667 64 -94 153.333 -94 268
c0 118.667 41.667 214.667 125 288c84.667 74.667 198.834 112 342.501 112s269.5 -33 377.5 -99zM587.995 1369h-51c-28 0 -50 -1 -66 -3l-242 331l3 3c32 -2 119.667 -3 263 -3l97 -177l113 177l255 3l4 -3l-255 -331z" />
    <glyph glyph-name="scaron" unicode="&#x161;" horiz-adv-x="1026" 
d="M499 -15c-188 0 -329.667 34.334 -425 103.001c1.33301 20 3.33301 42.667 6 68l9 72l10 88.5c1.33301 11.667 2.33301 18 3 19s6 -4.33301 16 -16s29 -25.834 57 -42.501s60.333 -31.334 97 -44.001c79.333 -27.333 162 -41 248 -41c115.333 0 173 38.333 173 115
c0 24.667 -11 43 -33 55c-39.333 20 -97.166 35.167 -173.499 45.5s-138.833 25.5 -187.5 45.5s-88.334 44 -119.001 72c-56.667 52.667 -85 121.667 -85 207c0 104 40 185.667 120 245c79.333 58.667 189 88 329 88c138.667 0 257 -39.333 355 -118
c-4.66699 -17.333 -9.66699 -34 -15 -50c-15.333 -44 -26.666 -75.667 -33.999 -95l-23 -59c-1.33301 -5.33301 -2.33301 -8 -3 -8c-1.33301 0 -6.66602 7 -15.999 21c-42 48.667 -107.333 80.667 -196 96c-27.333 5.33301 -55.333 8 -84 8
c-121.333 0 -182 -36.667 -182 -110c0 -25.333 12.667 -44.666 38 -57.999c47.333 -25.333 112.166 -44 194.499 -56s144.833 -28.167 187.5 -48.5s77 -44.833 103 -73.5c48 -52 72 -121 72 -207c0 -94 -37.667 -170.333 -113 -229c-78.667 -62 -188.334 -93 -329.001 -93z
M504 1188h-51c-28 0 -50 -1 -66 -3l-242 331l3 3c32 -2 119.667 -3 263 -3l97 -177l113 177l255 3l4 -3l-255 -331z" />
    <glyph glyph-name="Tcommaaccent" unicode="&#x162;" horiz-adv-x="1026" 
d="M652 -6c-32 4 -114.333 6 -247 6h-32v1106h-198c-58.667 0 -93.334 -3 -104.001 -9s-19 -11.333 -25 -16l-3 1v256l3 3c22 -7.33301 81.333 -11 178 -11h627c58.667 0 93.334 3 104.001 9s19 11.333 25 16l3 -1v-256l-3 -3c-22 7.33301 -81.333 11 -178 11h-150v-1112z
M347 -607c40.667 72 61 145.998 61 221.998s-3.66699 140.667 -11 194l249 40l8 -51c5.33301 -37.333 8 -75.833 8 -115.5s-2 -71.667 -6 -96s-9.33301 -45.166 -16 -62.499c-16 -38.667 -43.333 -66 -82 -82c-42.667 -17.333 -111 -35.666 -205 -54.999z" />
    <glyph glyph-name="tcommaaccent" unicode="&#x163;" horiz-adv-x="855" 
d="M611 220c86 0 145.001 22.335 177.001 67.002h8l3 -232c-32.667 -32.667 -93.334 -54.334 -182.001 -65.001c-24 -3.33301 -53.833 -5 -89.5 -5s-74.334 6.66699 -116.001 20s-77.167 35 -106.5 65c-60.667 62 -91 159 -91 291v454h-151c-0.666992 19.333 -1 39 -1 59
v154c0 11.333 0.333008 17 1 17h151v285h245v-285h275v-230h-275v-408c0 -104.667 29 -164.334 87 -179.001c18.667 -5.33301 40.334 -8 65.001 -8zM264.001 -606.998c40.667 72 61 145.998 61 221.998s-3.66699 140.667 -11 194l249 40l8 -51
c5.33301 -37.333 8 -75.833 8 -115.5s-2 -71.667 -6 -96s-9.33301 -45.166 -16 -62.499c-16 -38.667 -43.333 -66 -82 -82c-42.667 -17.333 -111 -35.666 -205 -54.999z" />
    <glyph glyph-name="Tcaron" unicode="&#x164;" horiz-adv-x="1026" 
d="M652 -6c-32 4 -114.333 6 -247 6h-32v1106h-198c-58.667 0 -93.334 -3 -104.001 -9s-19 -11.333 -25 -16l-3 1v256l3 3c22 -7.33301 81.333 -11 178 -11h627c58.667 0 93.334 3 104.001 9s19 11.333 25 16l3 -1v-256l-3 -3c-22 7.33301 -81.333 11 -178 11h-150v-1112z
M505 1369h-51c-28 0 -50 -1 -66 -3l-242 331l3 3c32 -2 119.667 -3 263 -3l97 -177l113 177l255 3l4 -3l-255 -331z" />
    <glyph glyph-name="tcaron" unicode="&#x165;" horiz-adv-x="1057" 
d="M611 220c86 0 145.001 22.335 177.001 67.002h8l3 -232c-32.667 -32.667 -93.334 -54.334 -182.001 -65.001c-24 -3.33301 -53.833 -5 -89.5 -5s-74.334 6.66699 -116.001 20s-77.167 35 -106.5 65c-60.667 62 -91 159 -91 291v454h-151c-0.666992 19.333 -1 39 -1 59
v154c0 11.333 0.333008 17 1 17h151v285h245v-285h275v-230h-275v-408c0 -104.667 29 -164.334 87 -179.001c18.667 -5.33301 40.334 -8 65.001 -8zM1061 1445c7.33301 -70 11 -122.834 11 -158.501s-1.16699 -70.167 -3.5 -103.5s-5.5 -63.333 -9.5 -90
c-10 -57.333 -22 -90.666 -36 -99.999c-16.667 -10.667 -44.667 -19.667 -84 -27l-111 -23l-6 6c10.667 18.667 16 78.667 16 180v99c0 68 -2 127 -6 177z" />
    <glyph glyph-name="Tbar" unicode="&#x166;" horiz-adv-x="1026" 
d="M652 -6c-32 4 -114.332 5.99902 -246.999 5.99902h-32v649h-204l3 26c3.33301 22 5 38.167 5 48.5s-0.166992 21.5 -0.5 33.5s-0.833008 23.667 -1.5 35l-2 32c-0.666992 10.667 -1.33398 19 -2.00098 25h202v257h-198c-58.667 0 -93.334 -3 -104.001 -9
s-19 -11.333 -25 -16l-3 1v256l3 3c22 -7.33301 81.333 -11 178 -11h627c58.667 0 93.334 3 104.001 9s19 11.333 25 16l3 -1v-256l-3 -3c-22 7.33301 -81.333 11 -178 11h-150v-257h192c-2.66699 -33.333 -4 -63.666 -4 -90.999v-51c0 -4 1.33301 -23.333 4 -58h-192v-655z
" />
    <glyph glyph-name="tbar" unicode="&#x167;" horiz-adv-x="855" 
d="M611 220c86 0 145.002 22.334 177.002 67.001h8l3 -232c-32.667 -32.667 -93.334 -54.334 -182.001 -65.001c-24 -3.33301 -53.833 -5 -89.5 -5s-74.334 6.66699 -116.001 20s-77.167 35 -106.5 65c-60.667 62 -91 159 -91 291v116h-160l4 26c2.66699 22 4 38.167 4 48.5
s-0.166992 21.5 -0.5 33.5s-0.833008 23.667 -1.5 35l-2 32c-0.666992 10.667 -1.33398 19 -2.00098 25h158v138h-151c-0.666992 19.333 -1 39 -1 59v154c0 11.333 0.333008 17 1 17h151v285h245v-285h275v-230h-275v-138h270c-2.66699 -33.333 -4 -63.666 -4 -90.999v-51
c0 -4 1.33301 -23.333 4 -58h-270v-70c0 -104.667 29 -164.334 87 -179.001c18.667 -5.33301 40.334 -8 65.001 -8z" />
    <glyph glyph-name="Utilde" unicode="&#x168;" horiz-adv-x="1368" 
d="M930 1335c41.333 -3.33301 75.667 -5.00098 103 -5.00098h83c28 0 57.333 2.66699 88 8v-827c0 -164 -49.667 -295.667 -149 -395c-94 -94 -212 -141 -354 -141c-155.333 0 -281 40.333 -377 121c-107.333 90.667 -161 221.334 -161 392.001v847
c55.333 -3.33301 107.5 -5 156.5 -5s89.5 2.66699 121.5 8v-863c0 -84 25.667 -149.333 77 -196c48 -42.667 108 -64 180 -64c106.667 0 177.667 54.667 213 164c12.667 39.333 19 88 19 146v810zM520.001 1565c-62.667 0 -118.334 -25 -167.001 -75l-4 1l-4 199
c45.333 53.333 107 80 185 80c61.333 0 118.333 -18.167 171 -54.5s107 -54.5 163 -54.5c79.333 0 131.333 28 156 84l2 -2l-10 -216c-11.333 -20 -31.666 -36.5 -60.999 -49.5s-60 -19.5 -92 -19.5s-57.833 2.66699 -77.5 8s-37.834 12 -54.501 20s-32.167 16.5 -46.5 25.5
s-29.5 17.5 -45.5 25.5c-37.333 18.667 -75.666 28 -114.999 28z" />
    <glyph glyph-name="utilde" unicode="&#x169;" 
d="M773 91c-85.333 -70.667 -178.333 -105.999 -279 -105.999c-108 0 -192.667 36.333 -254 109c-58.667 70.667 -88 167.667 -88 291v397c0 133.333 -2.83301 209.833 -8.5 229.5s-9.83398 32.167 -12.501 37.5c30.667 -2.66699 62.667 -4 96 -4h83c22 0 51 1 87 3v-579
c0 -137.333 37.333 -217 112 -239c22.667 -6.66699 47.334 -10 74.001 -10c78.667 0 142 28.667 190 86v739h248v-917c0 -58.667 2.66699 -101.334 8 -128.001h-256v91zM407 1280c-62.667 0 -118.334 -25 -167.001 -75l-4 1l-4 199c45.333 53.333 107 80 185 80
c61.333 0 118.333 -18.167 171 -54.5s107 -54.5 163 -54.5c79.333 0 131.333 28 156 84l2 -2l-10 -216c-11.333 -20 -31.666 -36.5 -60.999 -49.5s-60 -19.5 -92 -19.5s-57.833 2.66699 -77.5 8s-37.834 12 -54.501 20s-32.167 16.5 -46.5 25.5s-29.5 17.5 -45.5 25.5
c-37.333 18.667 -75.666 28 -114.999 28z" />
    <glyph glyph-name="Umacron" unicode="&#x16a;" horiz-adv-x="1368" 
d="M930 1335c41.333 -3.33301 75.667 -5.00098 103 -5.00098h83c28 0 57.333 2.66699 88 8v-827c0 -164 -49.667 -295.667 -149 -395c-94 -94 -212 -141 -354 -141c-155.333 0 -281 40.333 -377 121c-107.333 90.667 -161 221.334 -161 392.001v847
c55.333 -3.33301 107.5 -5 156.5 -5s89.5 2.66699 121.5 8v-863c0 -84 25.667 -149.333 77 -196c48 -42.667 108 -64 180 -64c106.667 0 177.667 54.667 213 164c12.667 39.333 19 88 19 146v810zM1027 1700c-2.66699 -33.333 -4 -58.667 -4 -76v-34
c0 -5.33301 1.33301 -25.333 4 -60h-675l3 26c3.33301 22 5 42 5 60s-2 46 -6 84h673z" />
    <glyph glyph-name="umacron" unicode="&#x16b;" 
d="M773 91c-85.333 -70.667 -178.333 -105.999 -279 -105.999c-108 0 -192.667 36.333 -254 109c-58.667 70.667 -88 167.667 -88 291v397c0 133.333 -2.83301 209.833 -8.5 229.5s-9.83398 32.167 -12.501 37.5c30.667 -2.66699 62.667 -4 96 -4h83c22 0 51 1 87 3v-579
c0 -137.333 37.333 -217 112 -239c22.667 -6.66699 47.334 -10 74.001 -10c78.667 0 142 28.667 190 86v739h248v-917c0 -58.667 2.66699 -101.334 8 -128.001h-256v91zM908 1523c-2.66699 -33.333 -4 -58.667 -4 -76v-34c0 -5.33301 1.33301 -25.333 4 -60h-675l3 26
c3.33301 22 5 42 5 60s-2 46 -6 84h673z" />
    <glyph glyph-name="Ubreve" unicode="&#x16c;" horiz-adv-x="1368" 
d="M930 1335c41.333 -3.33301 75.667 -5.00098 103 -5.00098h83c28 0 57.333 2.66699 88 8v-827c0 -164 -49.667 -295.667 -149 -395c-94 -94 -212 -141 -354 -141c-155.333 0 -281 40.333 -377 121c-107.333 90.667 -161 221.334 -161 392.001v847
c55.333 -3.33301 107.5 -5 156.5 -5s89.5 2.66699 121.5 8v-863c0 -84 25.667 -149.333 77 -196c48 -42.667 108 -64 180 -64c106.667 0 177.667 54.667 213 164c12.667 39.333 19 88 19 146v810zM1028 1806c6.66699 -6.66699 10.001 -29.333 10.001 -68
s-6.83301 -76.834 -20.5 -114.501s-34.834 -71.5 -63.501 -101.5c-64.667 -67.333 -155 -101 -271 -101s-206.333 33.667 -271 101c-56 58.667 -84 130.334 -84 215.001c0 39.333 3.33301 62.333 10 69l133 -3c6.66699 -52.667 19 -91.667 37 -117
c39.333 -56 97.666 -84 174.999 -84s134.333 26 171 78c20.667 29.333 34.334 70.333 41.001 123z" />
    <glyph glyph-name="ubreve" unicode="&#x16d;" 
d="M773 91c-85.333 -70.667 -178.333 -105.999 -279 -105.999c-108 0 -192.667 36.333 -254 109c-58.667 70.667 -88 167.667 -88 291v397c0 133.333 -2.83301 209.833 -8.5 229.5s-9.83398 32.167 -12.501 37.5c30.667 -2.66699 62.667 -4 96 -4h83c22 0 51 1 87 3v-579
c0 -137.333 37.333 -217 112 -239c22.667 -6.66699 47.334 -10 74.001 -10c78.667 0 142 28.667 190 86v739h248v-917c0 -58.667 2.66699 -101.334 8 -128.001h-256v91zM915 1610c6.66699 -6.66699 10.001 -29.333 10.001 -68s-6.83301 -76.834 -20.5 -114.501
s-34.834 -71.5 -63.501 -101.5c-64.667 -67.333 -155 -101 -271 -101s-206.333 33.667 -271 101c-56 58.667 -84 130.334 -84 215.001c0 39.333 3.33301 62.333 10 69l133 -3c6.66699 -52.667 19 -91.667 37 -117c39.333 -56 97.666 -84 174.999 -84s134.333 26 171 78
c20.667 29.333 34.334 70.333 41.001 123z" />
    <glyph glyph-name="Uring" unicode="&#x16e;" horiz-adv-x="1368" 
d="M930 1335c41.333 -3.33301 75.667 -5.00098 103 -5.00098h83c28 0 57.333 2.66699 88 8v-827c0 -164 -49.667 -295.667 -149 -395c-94 -94 -212 -141 -354 -141c-155.333 0 -281 40.333 -377 121c-107.333 90.667 -161 221.334 -161 392.001v847
c55.333 -3.33301 107.5 -5 156.5 -5s89.5 2.66699 121.5 8v-863c0 -84 25.667 -149.333 77 -196c48 -42.667 108 -64 180 -64c106.667 0 177.667 54.667 213 164c12.667 39.333 19 88 19 146v810zM677.001 1367c-40.667 0 -77.668 5.33203 -111.001 15.999s-62 26 -86 46
c-50.667 42 -76 99.333 -76 172c0 71.333 25 129 75 173c50.667 46 121.334 69 212.001 69c80 0 145.333 -23 196 -69c50 -44.667 75 -100.667 75 -168c0 -73.333 -26.667 -131.666 -80 -174.999c-52 -42.667 -120.333 -64 -205 -64zM631 1516
c15.333 -5.33301 31.833 -8.00098 49.5 -8.00098s33.5 2.5 47.5 7.5s26.333 11.833 37 20.5c23.333 20 35 39.833 35 59.5s-2.5 35.334 -7.5 47.001s-12.5 22.167 -22.5 31.5c-22.667 22 -48.5 33 -77.5 33s-50.833 -3 -65.5 -9s-26.667 -14 -36 -24
c-18.667 -18 -28 -37 -28 -57s2.5 -36 7.5 -48s12.5 -22.5 22.5 -31.5s22.667 -16.167 38 -21.5z" />
    <glyph glyph-name="uring" unicode="&#x16f;" 
d="M773 91c-85.333 -70.667 -178.333 -105.999 -279 -105.999c-108 0 -192.667 36.333 -254 109c-58.667 70.667 -88 167.667 -88 291v397c0 133.333 -2.83301 209.833 -8.5 229.5s-9.83398 32.167 -12.501 37.5c30.667 -2.66699 62.667 -4 96 -4h83c22 0 51 1 87 3v-579
c0 -137.333 37.333 -217 112 -239c22.667 -6.66699 47.334 -10 74.001 -10c78.667 0 142 28.667 190 86v739h248v-917c0 -58.667 2.66699 -101.334 8 -128.001h-256v91zM564 1180c-40.667 0 -77.668 5.33203 -111.001 15.999s-62 26 -86 46c-50.667 42 -76 99.333 -76 172
c0 71.333 25 129.333 75 174c50.667 45.333 121.334 68 212.001 68c80 0 145.333 -23 196 -69c50 -44.667 75 -100.667 75 -168c0 -73.333 -26.667 -131.666 -80 -174.999c-52 -42.667 -120.333 -64 -205 -64zM517.999 1329c15.333 -5.33301 31.833 -8.00098 49.5 -8.00098
s33.5 2.5 47.5 7.5s26.333 12.167 37 21.5c23.333 19.333 35 38.833 35 58.5s-2.5 35.334 -7.5 47.001s-12.5 22.5 -22.5 32.5c-22.667 21.333 -48.5 32 -77.5 32s-50.833 -3 -65.5 -9s-26.667 -13.667 -36 -23c-18.667 -18.667 -28 -38 -28 -58s2.5 -36 7.5 -48
s12.5 -22.5 22.5 -31.5s22.667 -16.167 38 -21.5z" />
    <glyph glyph-name="Uhungarumlaut" unicode="&#x170;" horiz-adv-x="1368" 
d="M930 1335c41.333 -3.33301 75.667 -5.00098 103 -5.00098h83c28 0 57.333 2.66699 88 8v-827c0 -164 -49.667 -295.667 -149 -395c-94 -94 -212 -141 -354 -141c-155.333 0 -281 40.333 -377 121c-107.333 90.667 -161 221.334 -161 392.001v847
c55.333 -3.33301 107.5 -5 156.5 -5s89.5 2.66699 121.5 8v-863c0 -84 25.667 -149.333 77 -196c48 -42.667 108 -64 180 -64c106.667 0 177.667 54.667 213 164c12.667 39.333 19 88 19 146v810zM915.001 1808c53.333 0 136.667 5.66699 250 17l-1 -7l-262 -323h-156z
M530.002 1808c34.667 0 64.667 1.33301 90 4l140 13l-1 -7l-262 -323h-136z" />
    <glyph glyph-name="uhungarumlaut" unicode="&#x171;" 
d="M773 91c-85.333 -70.667 -178.333 -105.999 -279 -105.999c-108 0 -192.667 36.333 -254 109c-58.667 70.667 -88 167.667 -88 291v397c0 133.333 -2.83301 209.833 -8.5 229.5s-9.83398 32.167 -12.501 37.5c30.667 -2.66699 62.667 -4 96 -4h83c22 0 51 1 87 3v-579
c0 -137.333 37.333 -217 112 -239c22.667 -6.66699 47.334 -10 74.001 -10c78.667 0 142 28.667 190 86v739h248v-917c0 -58.667 2.66699 -101.334 8 -128.001h-256v91zM802 1503c53.333 0 136.667 5.66699 250 17l-1 -7l-262 -323h-156zM417.001 1503
c34.667 0 64.667 1 90 3l140 14l-1 -7l-262 -323h-136z" />
    <glyph glyph-name="Uogonek" unicode="&#x172;" horiz-adv-x="1368" 
d="M893 -323c24.667 0 44.334 5.33203 59.001 15.999l2 -5l-54 -243c-116 0 -216 22.333 -300 67c-102 54.667 -153 135.334 -153 242.001c0 84.667 36.667 163 110 235c-184 38 -305 138.333 -363 301c-20.667 57.333 -31 123.333 -31 198v847
c55.333 -3.33301 107.5 -5 156.5 -5s89.5 2.66699 121.5 8v-863c0 -84 25.667 -149.333 77 -196c48 -42.667 108 -64 180 -64c106.667 0 177.667 54.667 213 164c12.667 39.333 19 88 19 146v810c41.333 -3.33301 75.666 -5 102.999 -5h61
c42.667 0 79.334 2.66699 110.001 8v-827c0 -166 -50.333 -298.333 -151 -397c-31.333 -30.667 -56.833 -51.5 -76.5 -62.5s-31.834 -17.5 -36.501 -19.5l-20 -10c-8.66699 -4.66699 -22 -11.334 -40 -20.001s-39.167 -21.667 -63.5 -39s-45.833 -35.666 -64.5 -54.999
c-40 -43.333 -60 -85.333 -60 -126c0 -70 67 -105 201 -105z" />
    <glyph glyph-name="uogonek" unicode="&#x173;" 
d="M652 15c-47.333 -20 -99.168 -29.998 -155.501 -29.998s-105.833 9.5 -148.5 28.5s-78.667 45.833 -108 80.5c-58.667 70.667 -88 167.667 -88 291v397c0 133.333 -2.83301 209.833 -8.5 229.5s-9.83398 32.167 -12.501 37.5c30.667 -2.66699 62.667 -4 96 -4h83
c22 0 51 1 87 3v-579c0 -137.333 37.333 -217 112 -239c22.667 -6.66699 47.334 -10 74.001 -10c78.667 0 142 28.667 190 86v739h248v-917c0 -58.667 2.66699 -101.334 8 -128.001h-14l2 -3c-72 0 -134.333 -23 -187 -69c-48 -43.333 -72 -92 -72 -146
c0 -70 67 -105 201 -105c24.667 0 44.334 5.33301 59.001 16l2 -5l-74 -243c-188.667 0 -319.667 54 -393 162c-26.667 39.333 -40 83.666 -40 132.999c0 105.333 46.333 197 139 275z" />
    </font>
</defs>
</svg>
